<svg xmlns="http://www.w3.org/2000/svg" width="1498.165" height="1521.208" viewBox="0 0 1498.165 1521.208">
  <g id="logo" transform="translate(-230.147 367.557) rotate(-19)" opacity="0.23">
    <path id="Path_158" data-name="Path 158" d="M1049.023,68.557l203.554,206.287c21.858-1.366,42.35-4.1,64.21-5.465-2.733-83.334-50.547-132.515-107.925-187.161,57.378-46.449,144.806-6.831,203.554,20.492,84.7-53.279,137.981-36.886,207.652-45.083-10.928,72.406,25.958,135.248-20.492,222.68,15.028,47.815,66.942,168.034,19.125,207.653-57.375-57.378-103.823-95.629-185.792-102.46,0,24.59,2.733,47.815,2.733,72.405L1620.069,643.7,1420.615,845.888c0,25.956-2.732,49.181-2.732,75.137,80.6-8.2,128.417-45.082,185.8-102.46,47.811,39.618-5.467,159.838-19.131,207.653,47.819,87.432,9.568,150.275,20.495,222.68-68.308-8.2-122.952,8.2-207.653-45.083-58.741,28.689-146.178,66.941-203.555,21.859,57.377-53.28,105.2-103.826,107.927-187.161-23.224-1.366-43.714-4.1-66.942-5.465l-187.161,188.527L849.569,1020.753c-20.491,1.366-38.253,4.1-58.745,5.465,2.733,83.334,50.548,132.515,107.926,187.161-57.378,46.448-144.811,6.831-203.554-21.858-84.7,53.279-137.981,36.886-207.653,45.083,10.928-72.405-25.957-135.247,20.492-222.68-13.662-47.815-66.941-168.034-19.125-207.653C546.286,863.648,592.735,901.9,674.7,908.73c0-23.224-1.367-43.716-2.733-65.575L476.613,645.066,671.97,446.976c0-25.957,2.733-49.181,2.733-76.5-81.968,8.2-128.417,45.083-185.794,102.46-47.816-39.618,5.463-159.838,19.125-207.653-46.448-87.433-9.563-150.275-20.492-222.68,68.306,8.2,122.952-8.2,207.653,45.082,58.743-28.689,146.177-66.94,203.554-21.858C841.371,119.1,793.557,169.651,790.823,252.985c23.226,1.366,43.717,4.1,66.941,6.831v1.366ZM584.536,1064.47c-8.2,8.2-15.027,16.393-23.224,24.591-4.1,30.055,15.027,53.279,47.816,57.377,10.928-9.562,21.857-20.492,32.786-30.055,21.858-6.831,80.6,9.563,92.9,6.83-19.126-32.787-25.957-84.7-35.519-122.952-49.182-8.2-79.237-16.394-125.684-36.886,2.732,20.492,19.126,75.137,10.928,101.094Zm0-849.737c-8.2-8.2-15.027-16.393-23.224-24.59-4.1-30.055,15.027-53.279,47.816-57.378,10.928,9.563,21.857,19.126,32.786,30.055,21.858,6.831,80.6-9.563,92.9-6.831-19.126,32.787-25.957,84.7-35.519,122.952-49.182,8.2-79.237,15.027-125.684,36.886,2.732-20.492,19.126-75.138,10.928-101.094Zm939.9,15.027c8.2-8.2,15.029-16.394,23.228-23.224,4.1-30.055-15.03-53.279-47.815-57.378-10.929,9.563-21.859,20.492-32.788,30.055-21.856,6.831-80.6-9.563-92.9-6.831,19.129,32.787,25.96,84.7,35.521,122.952,50.547,8.2,79.238,15.027,125.686,36.886-2.734-21.858-19.125-76.5-10.932-102.46Zm-15.024,847c8.195,8.2,15.024,16.394,23.222,23.224,4.1,31.421-15.023,53.28-47.813,57.377-10.928-9.563-21.858-20.492-32.788-30.055-21.858-6.83-80.6,9.563-92.9,6.831,19.129-32.787,25.958-84.7,35.52-122.952,49.181-8.2,79.238-15.028,125.683-36.886-2.731,21.858-19.126,76.5-10.926,102.46ZM1049.023,220.2l168.035,165.3h90.163v88.8l173.5,170.767-173.5,170.767v88.8h-90.163l-168.035,165.3-168.034-165.3H790.823v-88.8l-173.5-170.767L790.823,474.3V385.5h90.166Z" transform="translate(-256.018 44.69)" fill="#f6f6f6" fill-rule="evenodd"/>
  </g>
</svg>
