<svg xmlns="http://www.w3.org/2000/svg" width="906.311" height="922.836" viewBox="0 0 906.311 922.836">
  <path id="Path_1581" data-name="Path 1581" d="M833.813,58.92l127.98,129.7c13.743-.859,26.627-2.577,40.371-3.436-1.719-52.395-31.78-83.316-67.855-117.673,36.075-29.2,91.043-4.295,127.98,12.884,53.254-33.5,86.752-23.191,130.557-28.345-6.871,45.523,16.32,85.034-12.884,140.005,9.448,30.062,42.088,105.648,12.024,130.557-36.073-36.075-65.276-60.125-116.812-64.419,0,15.461,1.718,30.063,1.718,45.523l115.954,116.814-125.4,127.121c0,16.32-1.718,30.921-1.718,47.241,50.676-5.154,80.739-28.344,116.814-64.419,30.06,24.909-3.437,100.494-12.028,130.557,30.065,54.971,6.015,94.482,12.885,140-42.947-5.154-77.3,5.154-130.557-28.345-36.932,18.038-91.906,42.088-127.98,13.743,36.075-33.5,66.139-65.278,67.856-117.673-14.6-.859-27.484-2.577-42.088-3.436L832.954,783.852,708.411,657.591c-12.883.859-24.051,2.577-36.935,3.436,1.719,52.394,31.781,83.316,67.856,117.673-36.075,29.2-91.047,4.295-127.98-13.743C558.1,798.454,524.6,788.147,480.795,793.3c6.871-45.523-16.32-85.034,12.884-140-8.59-30.062-42.088-105.648-12.024-130.557,36.075,36.075,65.278,60.125,116.814,64.419,0-14.6-.86-27.486-1.719-41.228L473.924,421.386,596.75,296.842c0-16.32,1.719-30.921,1.719-48.1-51.535,5.154-80.739,28.345-116.814,64.419-30.063-24.909,3.435-100.494,12.024-130.557-29.2-54.971-6.013-94.482-12.884-140,42.946,5.154,77.3-5.154,130.557,28.344,36.933-18.037,91.9-42.087,127.98-13.743-36.075,33.5-66.137,65.278-67.856,117.673,14.6.859,27.486,2.577,42.088,4.295v.859ZM541.778,685.076c-5.153,5.153-9.448,10.307-14.6,15.461-2.577,18.9,9.448,33.5,30.063,36.075,6.871-6.012,13.742-12.884,20.613-18.9,13.743-4.295,50.676,6.012,58.407,4.294-12.025-20.614-16.32-53.253-22.332-77.3-30.922-5.154-49.818-10.307-79.021-23.191,1.717,12.884,12.025,47.241,6.871,63.56Zm0-534.252c-5.153-5.154-9.448-10.307-14.6-15.461-2.577-18.9,9.448-33.5,30.063-36.075,6.871,6.013,13.742,12.025,20.613,18.9,13.743,4.295,50.676-6.012,58.407-4.295-12.025,20.614-16.32,53.253-22.332,77.3-30.922,5.153-49.818,9.448-79.021,23.191,1.717-12.884,12.025-47.241,6.871-63.561Zm590.94,9.448c5.154-5.153,9.449-10.307,14.6-14.6,2.577-18.9-9.45-33.5-30.063-36.075-6.871,6.012-13.743,12.884-20.615,18.9-13.741,4.295-50.678-6.012-58.409-4.295,12.027,20.614,16.322,53.254,22.333,77.3,31.78,5.154,49.819,9.448,79.022,23.191-1.719-13.743-12.024-48.1-6.873-64.42Zm-9.446,532.534c5.152,5.153,9.446,10.307,14.6,14.6,2.578,19.755-9.445,33.5-30.061,36.075-6.871-6.012-13.742-12.884-20.615-18.9-13.743-4.294-50.677,6.013-58.407,4.295,12.026-20.614,16.32-53.254,22.332-77.3,30.922-5.154,49.819-9.448,79.02-23.191-1.717,13.743-12.025,48.1-6.87,64.419ZM833.813,154.26,939.461,258.19h56.688v55.83l109.085,107.366L996.149,528.752v55.83H939.461L833.813,688.512,728.166,584.582h-56.69v-55.83L562.393,421.386,671.476,314.02V258.19h56.69Z" transform="translate(-464.402 270.581) rotate(-15)" fill="#016362" fill-rule="evenodd" opacity="0.23"/>
</svg>
