<svg xmlns="http://www.w3.org/2000/svg" xmlns:xlink="http://www.w3.org/1999/xlink" width="326.253" height="326.253" viewBox="0 0 326.253 326.253">
  <defs>
    <filter id="Ellipse_44" x="0" y="0" width="326.253" height="326.253" filterUnits="userSpaceOnUse">
      <feOffset dx="3" dy="3" input="SourceAlpha"/>
      <feGaussianBlur stdDeviation="4.5" result="blur"/>
      <feFlood flood-opacity="0.161"/>
      <feComposite operator="in" in2="blur"/>
      <feComposite in="SourceGraphic"/>
    </filter>
  </defs>
  <g id="logo_circle" transform="translate(10.5 10.5)">
    <g transform="matrix(1, 0, 0, 1, -10.5, -10.5)" filter="url(#Ellipse_44)">
      <circle id="Ellipse_44-2" data-name="Ellipse 44" cx="149.627" cy="149.627" r="149.627" transform="translate(10.5 10.5)" fill="#fff"/>
    </g>
    <g id="aldr_tech" data-name="aldr tech" transform="translate(37.554 74.837)">
      <path id="Path_42" data-name="Path 42" d="M176.353,169.362h-5.6v18.909h-4.381V169.362H160.81V165.59h15.543Z" transform="translate(-6.394 -42.751)" fill="#1e4382"/>
      <path id="Path_43" data-name="Path 43" d="M188.45,188.147H175.88V165.68h12.093V169.3H180.2v5.444h7.33v3.534H180.2v6.255h8.249Z" transform="translate(-3.475 -42.734)" fill="#1e4382"/>
      <path id="Path_44" data-name="Path 44" d="M205.4,187.465a11.413,11.413,0,0,1-4.847.824,9.693,9.693,0,0,1-7.592-3.044,11.425,11.425,0,0,1-2.65-7.939,11.568,11.568,0,0,1,3.187-8.643,10.314,10.314,0,0,1,7.557-2.9,9.67,9.67,0,0,1,4.548.836l-.836,3.4a8.774,8.774,0,0,0-3.51-.7,5.969,5.969,0,0,0-4.62,1.91,10,10,0,0,0-.143,11.556,5.969,5.969,0,0,0,4.775,1.946,9.107,9.107,0,0,0,3.581-.609Z" transform="translate(-0.681 -42.721)" fill="#1e4382"/>
      <path id="Path_45" data-name="Path 45" d="M221.828,188.254h-4.357v-9.717h-7.688v9.717H205.45V165.68h4.333v9.013h7.688V165.68h4.357Z" transform="translate(2.255 -42.734)" fill="#1e4382"/>
      <path id="Path_46" data-name="Path 46" d="M200.233,132.585c0-14.528-5.611-31.038-14.325-41.925C176.3,78.567,168.3,72.467,155.359,67.346l-4-1.576L151.706,208h5.837l-.322-133.535c9.622,4.393,16.283,9.944,24.138,19.817,7.342,9.252,12.284,22.861,12.952,35.4l-28.268.191,17.393,24.818a6.732,6.732,0,0,0-.573,2.746,7.222,7.222,0,1,0,7.222-7.007,7.354,7.354,0,0,0-2.269.359l-10.623-15.149,23.028-.155Zm-10.147,20.76a4.095,4.095,0,1,1-4.31,4.083,4.2,4.2,0,0,1,4.31-4.083" transform="translate(-8.226 -62.093)" fill="#1e4382"/>
      <path id="Path_47" data-name="Path 47" d="M130,123.537a7.234,7.234,0,1,0,7.222-7.007A7.234,7.234,0,0,0,130,123.537m7.222-4.083a4.095,4.095,0,1,1-4.31,4.083,4.2,4.2,0,0,1,4.31-4.083" transform="translate(-12.365 -52.257)" fill="#1e4382"/>
      <path id="Path_48" data-name="Path 48" d="M89.97,179.87c11.186,14.325,26.9,22.562,45.363,23.744v-.394A7.163,7.163,0,0,0,142.2,208a7.007,7.007,0,1,0,0-14,7.258,7.258,0,0,0-6.53,4.023v-.275c-36.279-2.316-55.259-33.772-55.259-63.652a64.69,64.69,0,0,1,19.4-46.437,67.4,67.4,0,0,1,48.837-19.1l.084-5.838A73.237,73.237,0,0,0,95.712,83.485,70.432,70.432,0,0,0,74.57,134.077a75.6,75.6,0,0,0,15.3,45.733m52.3,17.083a4.095,4.095,0,1,1-4.309,4.095,4.214,4.214,0,0,1,4.309-4.095" transform="translate(-23.105 -62.69)" fill="#1e4382"/>
      <path id="Path_49" data-name="Path 49" d="M100.221,207.221c-.609-.537-1.194-1.1-1.958-1.671-22.323-17.787-34.619-42.9-34.619-70.731A88.96,88.96,0,0,1,90.862,69.926L86.779,65.76h-.6c-14.767,1.194-28.352,9.467-40.373,24.6-8.535,10.744-14.325,28.137-14.325,43.274h0c-.143,4.954-.251,34.285,16.176,62.231a6.828,6.828,0,0,0-1.516,4.274,7.234,7.234,0,1,0,7.222-7.007h-.537c-13.967-23.6-15.435-48.944-15.519-57.181H57.831c.334,28.065,12.427,53.469,34.225,71.96H101.1l-.9-.776M53.426,196.167a4.095,4.095,0,1,1-4.309,4.083,4.2,4.2,0,0,1,4.309-4.083M37.489,130.2c.8-12.9,5.861-27.325,12.881-36.147,9.192-11.568,19.255-18.718,29.975-21.368a94.068,94.068,0,0,0-22.431,57.528Z" transform="translate(-31.458 -62.095)" fill="#1e4382"/>
      <path id="Path_50" data-name="Path 50" d="M138.568,163.891h-.5a31.687,31.687,0,0,1-3.211-.43l-.346-.06a34.822,34.822,0,0,1-1-68.224h.155a62.472,62.472,0,0,1,9.693-1h.442V88.54h-2.9a40.624,40.624,0,0,0,.1,81.248h2.9v-5.42h-.43c-1.552-.119-3.2-.275-4.871-.454" transform="translate(-18.115 -57.681)" fill="#1e4382"/>
      <path id="Path_51" data-name="Path 51" d="M140.056,143.755l-2.555-.239-1.313-.072-.477-.084h-.263a17.345,17.345,0,0,1-.5-33.987h.179a32.234,32.234,0,0,1,4.835-.477h1.325V103.74h-2.674a22.682,22.682,0,1,0,0,45.363h2.674v-5.05Z" transform="translate(-15.091 -54.735)" fill="#1e4382"/>
    </g>
  </g>
</svg>
