<?xml version="1.0" standalone="no"?>
<!DOCTYPE svg PUBLIC "-//W3C//DTD SVG 1.1//EN" "http://www.w3.org/Graphics/SVG/1.1/DTD/svg11.dtd" >
<svg xmlns="http://www.w3.org/2000/svg" xmlns:xlink="http://www.w3.org/1999/xlink" version="1.1">
<metadata>
Created by FontForge 20170731 at Sun May 28 14:23:37 2006
 By Aleksey,,,
Copyright (c) 2006 M. Hacen, All Rights Reserved / www.hacen.net
</metadata>
<defs>
<font id="HacenBeirutLight" horiz-adv-x="891" >
  <font-face 
    font-family="Hacen Beirut Light"
    font-weight="400"
    font-stretch="normal"
    units-per-em="2048"
    panose-1="2 0 0 0 0 0 0 0 0 0"
    ascent="1638"
    descent="-410"
    x-height="1102"
    cap-height="1449"
    bbox="-246 -711 2701 2134.08"
    underline-thickness="100"
    underline-position="-900"
    unicode-range="U+0020-FEFF"
  />
<missing-glyph horiz-adv-x="582" 
d="M5 1257h485v-1107h-485v1107zM76 1186v-966h343v966h-343z" />
    <glyph glyph-name=".notdef" unicode="&#x640;&#x651;&#x650;" horiz-adv-x="582" 
d="M5 1257h485v-1107h-485v1107zM76 1186v-966h343v966h-343z" />
    <glyph glyph-name="shaddawithfathatanisolated" unicode="&#x651;&#x64b;" horiz-adv-x="425" 
d="M398 1823q5 -8 5.5 -12.5t-0.5 -8.5t-1.5 -8.5t3.5 -13.5q12 -32 14.5 -66t-5 -63.5t-25.5 -50.5t-47 -26q-25 -4 -39 3t-31 18q-4 -11 -10.5 -25.5t-18 -28.5t-27 -25.5t-37.5 -16.5q-34 -9 -56 -3.5t-35 20t-17.5 35t-4.5 40.5q0 21 4.5 39.5t9.5 29.5q0 -3 4.5 1.5
t9.5 10.5t10 10.5t5 1.5q-5 -21 -7 -40t2 -32.5t17 -19t38 -0.5q28 5 41 23t17.5 40.5t5.5 46t6 39.5q1 -3 4.5 1t7.5 9t8 9.5t6 1.5q-3 -30 6.5 -54t26 -36.5t38 -11.5t42.5 21q4 10 2 23t-8.5 25.5t-15.5 24.5t-18 21q5 10 14.5 15.5t20 10t20 9.5t15.5 13zM401 1903
l-340 -193l17 91l340 193zM390 2031l-340 -193l17 91l340 193z" />
    <glyph glyph-name="shaddawithdammatanisolated" unicode="&#x651;&#x64c;" horiz-adv-x="484" arabic-form="isolated" 
d="M396 1846q13 -15 22.5 -33t17.5 -36q11 -32 13 -66t-6 -63.5t-26.5 -50t-47.5 -24.5q-25 -4 -38.5 3t-30.5 19q-4 -11 -11 -25t-18.5 -28t-27.5 -25.5t-38 -16.5q-34 -8 -56.5 1.5t-36 29.5t-19 47.5t-6 54t3.5 48.5t9 33q0 -3 5 1.5t10.5 10.5t10 10t4.5 1
q-5 -21 -6.5 -47.5t4 -49.5t19.5 -37.5t40 -9.5q28 5 41 23t18 40.5t6.5 45.5t6.5 39q1 -3 4.5 1t8 9t8 9.5t5.5 1.5q-3 -30 6 -54t25.5 -37t38 -12.5t43.5 20.5q4 10 2 23t-8.5 26t-15 25t-17.5 21q11 20 19.5 37.5t17.5 34.5zM425 1928q-7 -12 -21 -28.5t-33 -34t-42 -33
t-48 -26t-50 -13t-48 6.5q-23 10 -25 27t3 36t11 36t-2 26.5t-36.5 9t-90.5 -17.5q20 23 46.5 37.5t53 18.5t49.5 -1.5t35.5 -20.5t10.5 -40.5t-24 -61.5q48 17 89.5 38t75.5 53q-43 9 -63 27t-23.5 40t8 45t31.5 41.5t46 30t52 10.5q22 -2 29.5 -21t7 -43t-6 -46.5
t-9.5 -31.5l40 -10l-18 -65zM403 2065q-5 5 -12 6.5t-12 1.5q-14 1 -23.5 -7t-9.5 -18q-2 -10 3.5 -16.5t14.5 -11.5t21.5 -9.5t25.5 -9.5q2 17 2 30q0 11 -2 21.5t-8 14.5v-2z" />
    <glyph glyph-name="shaddawithkasratanisolated" unicode="&#x651;&#x64d;" horiz-adv-x="425" arabic-form="isolated" 
d="M370 2050q12 -15 21.5 -33.5t16.5 -36.5q10 -32 11 -66t-7.5 -63t-27.5 -49t-48 -24q-25 -3 -38.5 4t-30.5 20q-4 -11 -11.5 -25t-19 -27.5t-28 -24.5t-38.5 -16q-34 -7 -56.5 3t-35 31t-17.5 48t-4.5 53.5t4.5 49t10 32.5q0 -3 4.5 1.5l10.5 10.5t10.5 10t4.5 1
q-6 -21 -8 -48t3 -50t18.5 -37.5t39.5 -10.5q29 4 42.5 21t19 39.5t7 46t7.5 39.5q1 -3 5 0.5t8.5 9t8 9.5t5.5 1q-4 -29 4 -53.5t24 -38t37 -13.5q22 0 45 20q5 10 3 22.5t-8 25.5t-14.5 25.5t-16.5 21.5q11 20 20 37t19 34zM391 1684l-350 -141l33 75l350 141zM381 1579
l-350 -141l33 75l350 141z" />
    <glyph glyph-name="shaddawithfathaisolated" unicode="&#x651;&#x64e;" horiz-adv-x="425" arabic-form="isolated" 
d="M398 1823q5 -8 5.5 -12.5t-0.5 -8.5t-1.5 -8.5t3.5 -13.5q12 -32 14.5 -66t-5 -63.5t-25.5 -50.5t-47 -26q-25 -4 -39 3t-31 18q-4 -11 -10.5 -25.5t-18 -28.5t-27 -25.5t-37.5 -16.5q-34 -9 -56 -3.5t-35 20t-17.5 35t-4.5 40.5q0 21 4.5 39.5t9.5 29.5q0 -3 4.5 1.5
t9.5 10.5t10 10.5t5 1.5q-5 -21 -7 -40t2 -32.5t17 -19t38 -0.5q28 5 41 23t17.5 40.5t5.5 46t6 39.5q1 -3 4.5 1t7.5 9t8 9.5t6 1.5q-3 -30 6.5 -54t26 -36.5t38 -11.5t42.5 21q4 10 2 23t-8.5 25.5t-15.5 24.5t-18 21q5 10 14.5 15.5t20 10t20 9.5t15.5 13zM401 1903
l-340 -193l17 91l340 193z" />
    <glyph glyph-name="shaddawithdammaisolated" unicode="&#x651;&#x64f;" horiz-adv-x="437" arabic-form="isolated" 
d="M372 1846q13 -15 22.5 -33t17.5 -36q11 -32 13 -66t-6 -63.5t-26.5 -50t-47.5 -24.5q-25 -4 -38.5 3t-30.5 19q-4 -11 -11 -25t-18.5 -28t-27.5 -25.5t-38 -16.5q-34 -8 -56.5 1.5t-36 29.5t-19 47.5t-6 54t3.5 48.5t9 33q0 -3 5 1.5t10.5 10.5t10 10t4.5 1
q-5 -21 -6.5 -47.5t4 -49.5t19.5 -37.5t40 -9.5q28 5 41 23t18 40.5t6.5 45.5t6.5 39q1 -3 4.5 1t8 9t8 9.5t5.5 1.5q-3 -30 6 -54t25.5 -37t38 -12.5t43.5 20.5q4 10 2 23t-8.5 26t-15 25t-17.5 21q11 20 19.5 37.5t17.5 34.5zM347 1915q-11 -18 -37 -41t-61.5 -43.5
t-76.5 -34t-83 -11.5q-57 4 -75 4q-17 0 -12 2q60 20 103 34t77 28t61.5 31t54.5 43q-46 8 -67.5 26.5t-25 40.5t8.5 45t33 42t48.5 30.5t55.5 10.5q23 -1 31 -20t7.5 -43.5t-6.5 -47.5t-10 -33l43 -10l-19 -63zM322 2054q-5 5 -11.5 6.5t-11.5 1.5q-17 1 -26.5 -7
t-10.5 -19q-2 -20 19 -29.5t50 -17.5q2 16 2 30q0 11 -2 22t-9 14v-1z" />
    <glyph glyph-name="shaddawithkasraisolated" unicode="&#x651;&#x650;" horiz-adv-x="425" arabic-form="isolated" 
d="M385 1972q12 -15 21.5 -33.5t16.5 -36.5q10 -32 11 -66t-7.5 -63t-27.5 -49t-48 -24q-25 -3 -38.5 4t-30.5 20q-4 -11 -11.5 -25t-19 -27.5t-28 -24.5t-38.5 -16q-34 -7 -56.5 3t-35 31t-17.5 48t-4.5 53.5t4.5 48.5t10 33q0 -3 4.5 1.5l10.5 10.5t10.5 10t4.5 1
q-6 -21 -8 -48t3 -50t18.5 -37.5t39.5 -10.5q29 4 42.5 21t19 39.5t7 46t7.5 39.5q1 -3 5 0.5t8.5 9t8 9.5t5.5 1q-4 -29 4 -53.5t24 -38t37 -13.5q22 0 45 20q5 10 3 22.5t-8 25.5t-14.5 25.5t-16.5 21.5q11 20 20 37t19 34zM422 1590l-340 -193l17 91l340 193z" />
    <glyph glyph-name="shaddawithfathamedial" unicode="&#x640;&#x651;&#x64e;" horiz-adv-x="375" arabic-form="medial" 
d="M298 1190q5 -8 5.5 -12.5t-0.5 -8.5t-1.5 -8.5t3.5 -13.5q12 -32 14.5 -66t-5 -63.5t-25.5 -50.5t-47 -26q-25 -4 -39 3t-31 18q-4 -11 -10.5 -25.5t-18 -28.5t-27 -25.5t-37.5 -16.5q-34 -9 -56 -3.5t-35 20t-17.5 35t-4.5 40.5q0 21 4.5 39.5t9.5 29.5q0 -3 4.5 1.5
t9.5 10.5t10 10.5t5 1.5q-5 -21 -7 -40t2 -32.5t17 -19t38 -0.5q28 5 41 23t17.5 40.5t5.5 46t6 39.5q1 -3 4.5 1t7.5 9t8 9.5t6 1.5q-3 -30 6.5 -54t26 -36.5t38 -11.5t42.5 21q4 10 2 23t-8.5 25.5t-15.5 24.5t-18 21q5 10 14.5 15.5t20 10t20 9.5t15.5 13zM301 1270
l-340 -193l17 91l340 193z" />
    <glyph glyph-name="shaddawithdammamedial" unicode="&#x640;&#x651;&#x64f;" horiz-adv-x="480" arabic-form="medial" 
d="M365 1238q13 -15 22.5 -33t17.5 -36q11 -32 13 -66t-6 -63.5t-26.5 -50t-47.5 -24.5q-25 -4 -38.5 3t-30.5 19q-4 -11 -11 -25t-18.5 -28t-27.5 -25.5t-38 -16.5q-34 -8 -56.5 1.5t-36 29.5t-19 47.5t-6 54t3.5 48.5t9 33q0 -3 5 1.5t10.5 10.5t10 10t4.5 1
q-5 -21 -6.5 -47.5t4 -49.5t19.5 -37.5t40 -9.5q28 5 41 23t18 40.5t6.5 45.5t6.5 39q1 -3 4.5 1t8 9t8 9.5t5.5 1.5q-3 -30 6 -54t25.5 -37t38 -12.5t43.5 20.5q4 10 2 23t-8.5 26t-15 25t-17.5 21q11 20 19.5 37.5t17.5 34.5zM340 1307q-11 -18 -37 -41t-61.5 -43.5
t-76.5 -34t-83 -11.5q-57 4 -75 4q-17 0 -12 2q60 20 103 34t77 28t61.5 31t54.5 43q-46 8 -67.5 26.5t-25 40.5t8.5 45t33 42t48.5 30.5t55.5 10.5q23 -1 31 -20t7.5 -43.5t-6.5 -47.5t-10 -33l43 -10l-19 -63zM315 1446q-5 5 -11.5 6.5t-11.5 1.5q-17 1 -26.5 -7
t-10.5 -19q-2 -20 19 -29.5t50 -17.5q2 16 2 30q0 11 -2 22t-9 14v-1z" />
    <glyph glyph-name="allahisolated" unicode="&#xfedf;&#xfee0;&#xfeea;" horiz-adv-x="1898" arabic-form="isolated" 
d="M1598 1291q0 21 15 36t37 15h136q21 0 36 -15t15 -36v-881q-1 -140 -62 -201.5t-175 -61.5h-1306q-57 0 -101.5 15t-74.5 47t-45.5 81.5t-15.5 119.5v351q0 139 61 200.5t176 61.5h242q114 0 175.5 -61.5t61.5 -200.5v-377h294v668q0 21 14.5 36t37.5 15h135q21 0 36 -15
t15 -36v-668h293v907zM294 384h242v403h-242v-403zM1388 1246q0 -24 -7 -39t-18.5 -23.5t-26 -12t-28.5 -3.5h-262q-39 0 -59 18t-20 60v152q0 11 8.5 19.5t20.5 8.5h38q12 0 20 -8.5t8 -19.5v-135h68v135q0 11 9 19.5t20 8.5h38q12 0 20 -8.5t8 -19.5v-135h67v135
q0 11 8.5 19.5t21.5 8.5h37q11 0 20 -8.5t9 -19.5v-152z" />
    <glyph glyph-name="fathamedial" unicode="&#x640;&#x64e;" horiz-adv-x="448" arabic-form="medial" 
d="M396 1157q-97 -52 -191.5 -102.5t-191.5 -102.5q5 24 8 39.5t7 37.5q99 52 191.5 101.5t191.5 102.5z" />
    <glyph glyph-name="dammamedial" unicode="&#x640;&#x64f;" horiz-adv-x="490" arabic-form="medial" 
d="M360 1221q-11 -23 -37.5 -52.5t-62.5 -55t-78.5 -42.5t-85.5 -15q-29 2 -47.5 3t-28.5 2t-12.5 1.5t-0.5 1.5q61 25 105.5 43t79 36t62.5 39.5t56 54.5q-47 11 -69 34t-25.5 51t9 57.5t34 53.5t49.5 39t56 13q16 -1 25 -12.5t12.5 -29t2.5 -39t-3.5 -41.5t-6.5 -36.5
t-7 -24.5l44 -13l-19 -80zM335 1398q-5 6 -12 8t-12 2q-17 2 -27 -8.5t-11 -24.5q-2 -25 20 -37t51 -23q2 20 2 38q0 15 -2 28.5t-9 18.5v-2z" />
    <glyph glyph-name="kasramedial" unicode="&#x640;&#x650;" horiz-adv-x="669" arabic-form="medial" 
d="M392 506q-97 -52 -191.5 -102.5t-191.5 -102.5q5 23 8 39t7 38q99 52 191.5 101.5t191.5 102.5z" />
    <glyph glyph-name="shaddamedial" unicode="&#x640;&#x651;" horiz-adv-x="448" arabic-form="medial" 
d="M386 1293q11 -17 17.5 -36t11.5 -38q6 -33 3 -67t-15 -62t-33 -45.5t-51 -17.5q-25 0 -37.5 9t-27.5 23q-6 -10 -15 -23t-22 -25t-31 -21t-40 -11q-35 -3 -56 10t-31 35t-11.5 49.5t2 53.5t10.5 47.5t14 31.5q0 -3 5 1t11.5 9t11.5 8.5t5 0.5q-8 -20 -13.5 -46.5t-3 -50
t14 -39.5t37.5 -15q29 0 44.5 16t23.5 37.5t12.5 44.5t12.5 38q1 -3 5 0t9 7.5t9.5 8t5.5 0.5q-8 -29 -2.5 -54t19.5 -40t35.5 -18t46.5 14q6 9 5.5 22t-4.5 26.5t-11 27t-14 23.5q13 18 24.5 34t22.5 32z" />
    <glyph glyph-name="lamwithalefmaddaaboveisolatedd" unicode="&#xfedf;&#xfe82;" horiz-adv-x="1007" arabic-form="isolated" 
d="M693 384v907q0 21 14.5 36t36.5 15h136q21 0 36 -15t15 -36v-881q-1 -140 -61.5 -201.5t-175.5 -61.5h-589q-21 0 -35.5 15t-14.5 36v136q0 20 14.5 35t35.5 15h110v907q0 21 14.5 36t34.5 15h137q21 0 36 -15t15 -36v-907h241zM172 1412q-11 0 -19.5 8.5t-8.5 20.5v37
q0 13 8.5 21t19.5 8h307q12 0 20 -8t8 -21v-37q0 -12 -8 -20.5t-20 -8.5h-307z" />
    <glyph glyph-name="lamwithalefmaddaabovefinal" unicode="&#xfee0;&#xfe82;" horiz-adv-x="896" arabic-form="final" 
d="M316 384h240v907q0 21 15 36t36 15h136q21 0 35.5 -15t14.5 -36v-907h112v-237h-591q-57 0 -101 15t-74.5 47t-46 81.5t-15.5 119.5v881q0 21 15 36t36 15h136q21 0 36.5 -15t15.5 -36v-907zM60 1412q-12 0 -20.5 8.5t-8.5 20.5v37q0 13 8.5 21t20.5 8h307q12 0 20 -8
t8 -21v-37q0 -12 -8 -20.5t-20 -8.5h-307z" />
    <glyph glyph-name="lamwithalefhamzaaboveisolatedd" unicode="&#xfedf;&#xfe84;" horiz-adv-x="1007" arabic-form="isolated" 
d="M693 384v907q0 21 14.5 36t36.5 15h136q21 0 36 -15t15 -36v-881q-1 -140 -61.5 -201.5t-175.5 -61.5h-589q-21 0 -35.5 15t-14.5 36v136q0 20 14.5 35t35.5 15h110v907q0 21 14.5 36t34.5 15h137q21 0 36 -15t15 -36v-907h241zM241 1573v79q0 61 26.5 87.5t77.5 26.5h93
q15 0 25.5 -10.5t10.5 -26.5v-50q0 -15 -10.5 -26t-25.5 -11h-73v-69h73q15 0 25.5 -10.5t10.5 -26.5v-50q0 -16 -10.5 -26.5t-25.5 -10.5h-220q-16 0 -26.5 10.5t-10.5 26.5v50q0 16 10.5 26.5t26.5 10.5h23z" />
    <glyph glyph-name="lamwithalefhamzaabovefinal" unicode="&#xfee0;&#xfe84;" horiz-adv-x="892" arabic-form="final" 
d="M309 384h242v907q0 21 14 36t35 15h136q21 0 36 -15t15 -36v-907h112v-237h-591q-57 0 -101 15t-74.5 47t-46 81.5t-15.5 119.5v881q0 21 15 36t36 15h135q22 0 37 -15t15 -36v-907zM124 1573v79q0 61 27 87.5t78 26.5h93q15 0 25.5 -10.5t10.5 -26.5v-50
q0 -15 -10.5 -26t-25.5 -11h-74v-69h74q15 0 25.5 -10.5t10.5 -26.5v-50q0 -16 -10.5 -26.5t-25.5 -10.5h-219q-16 0 -27 10.5t-11 26.5v50q0 16 11 26.5t27 10.5h21z" />
    <glyph glyph-name="lamwithalefhamzabelowisolated" unicode="&#xfedf;&#xfe88;" horiz-adv-x="1016" arabic-form="isolated" 
d="M698 384v907q0 21 14.5 36t36.5 15h136q21 0 36 -15t15 -36v-881q-2 -140 -62 -201.5t-175 -61.5h-589q-20 0 -35.5 15t-15.5 36v136q0 20 15.5 35t35.5 15h109v907q0 21 15 36t36 15h135q21 0 36.5 -15t15.5 -36v-907h241zM124 -177v77q0 62 27 89t78 27h93
q15 0 25.5 -11t10.5 -26v-51q0 -15 -10.5 -26t-25.5 -11h-74v-68h74q15 0 25.5 -11.5t10.5 -26.5v-49q0 -16 -10.5 -27t-25.5 -11h-219q-16 0 -27 11t-11 27v49q0 15 11 26.5t27 11.5h21z" />
    <glyph glyph-name="lamwithalefhamzabelowfinal" unicode="&#xfee0;&#xfe88;" horiz-adv-x="906" arabic-form="final" 
d="M319 384h241v907q0 21 15 36t36 15h135q21 0 36 -15t15 -36v-907h112v-237h-591q-57 0 -101.5 15t-74.5 47t-45.5 81.5t-15.5 119.5v881q0 21 15 36t35 15h136q23 0 37.5 -15t14.5 -36v-907zM124 -177v77q0 62 27 89t78 27h93q15 0 25.5 -11t10.5 -26v-51
q0 -15 -10.5 -26t-25.5 -11h-74v-68h74q15 0 25.5 -11.5t10.5 -26.5v-49q0 -16 -10.5 -27t-25.5 -11h-219q-16 0 -27 11t-11 27v49q0 15 11 26.5t27 11.5h21z" />
    <glyph glyph-name="lamwithalefisolated" unicode="&#xfedf;&#xfe8e;" horiz-adv-x="1012" arabic-form="isolated" 
d="M698 384v907q0 21 14.5 36t36.5 15h136q21 0 36 -15t15 -36v-881q-2 -140 -62 -201.5t-175 -61.5h-589q-20 0 -35.5 15t-15.5 36v136q0 20 15.5 35t35.5 15h109v907q0 21 15 36t36 15h135q21 0 36.5 -15t15.5 -36v-907h241z" />
    <glyph glyph-name="lamwithaleffinal" unicode="&#xfee0;&#xfe8e;" horiz-adv-x="892" arabic-form="final" 
d="M309 384h242v907q0 21 14 36t35 15h136q21 0 36 -15t15 -36v-907h112v-237h-591q-57 0 -101 15t-74.5 47t-46 81.5t-15.5 119.5v881q0 21 15 36t36 15h135q22 0 37 -15t15 -36v-907z" />
    <glyph glyph-name="bullet_ara" unicode="&#xfcf4;" horiz-adv-x="532" arabic-form="medial" 
d="M424 1178q-11 -23 -37.5 -52.5t-62.5 -55t-78.5 -42.5t-85.5 -15q-29 2 -47.5 3t-28.5 2t-12.5 1.5t-0.5 1.5q61 25 105.5 43t79 36t62.5 39.5t56 54.5q-47 11 -69 34t-25.5 51t9 57.5t34 53.5t49.5 38.5t56 13.5q16 -1 25 -12.5t12.5 -29t2.5 -39t-3.5 -41.5t-6.5 -36.5
t-7 -24.5l44 -13l-19 -80zM399 1355q-5 6 -12 8t-12 2q-17 2 -27 -8.5t-11 -24.5q-2 -25 20 -37t51 -23q2 20 2 38q0 15 -2 28.5t-9 18.5v-2z" />
    <glyph glyph-name="fathatanisolated" unicode="&#xfe70;" horiz-adv-x="408" arabic-form="isolated" 
d="M389 1675l-340 -193l17 91l340 193zM403 1842l-340 -193l17 91l340 193z" />
    <glyph glyph-name="fathatanabove" unicode="&#xfe71;" horiz-adv-x="669" arabic-form="medial" 
d="M383 1154q-97 -52 -191 -102.5t-191 -102.5q5 23 8 39t7 38q99 52 191.5 101.5t191.5 102.5zM416 1345q-97 -52 -191.5 -102.5t-191.5 -102.5q5 23 8.5 38.5t7.5 38.5q99 52 191 101.5t191 102.5z" />
    <glyph glyph-name="dammatanisolated" unicode="&#xfe72;" horiz-adv-x="469" arabic-form="isolated" 
d="M409 1632q-6 -14 -19.5 -33.5t-32 -40t-40.5 -39.5t-45.5 -31t-47.5 -15t-46 8t-24 31.5t3 42t10.5 42t-2 32t-34.5 10.5t-86 -20q19 27 44.5 43.5t50.5 22t47 -1t34 -24.5t10.5 -48t-23.5 -72q46 20 85.5 44t71.5 62q-41 10 -60.5 31.5t-22 47.5t8 53t30 49.5t44 36
t49.5 12.5q21 -2 28 -24.5t6.5 -51t-6 -55.5t-8.5 -37l38 -12l-17 -76zM388 1793q-10 10 -23 10q-14 1 -22.5 -8.5t-8.5 -21.5q-2 -11 3 -19t14 -14t20.5 -11.5t24.5 -11.5q2 19 2 35q0 14 -2.5 26.5t-7.5 16.5v-2z" />
    <glyph glyph-name="kasratanisolated" unicode="&#xfe74;" horiz-adv-x="408" arabic-form="isolated" 
d="M384 -83q-97 -52 -191.5 -102.5t-191.5 -102.5q5 23 8 38.5t7 38.5q99 52 191.5 101.5t191.5 102.5zM416 107q-97 -52 -191.5 -102.5t-191.5 -102.5q5 24 8.5 39.5t7.5 38.5q99 52 191 101t191 102z" />
    <glyph glyph-name="fathaisolated" unicode="&#xfe76;" horiz-adv-x="408" arabic-form="isolated" 
d="M396 1583q-97 -52 -191.5 -102.5t-191.5 -102.5q5 24 8 39.5t7 37.5q99 52 191.5 101.5t191.5 102.5z" />
    <glyph glyph-name="dammaisolated" unicode="&#xfe78;" horiz-adv-x="414" arabic-form="isolated" 
d="M366 1664q-11 -23 -37.5 -52.5t-62.5 -55t-78.5 -42.5t-85.5 -15q-29 2 -47.5 3t-28.5 2t-12.5 1.5t-0.5 1.5q61 25 105.5 43t79 36t62.5 39.5t56 54.5q-47 11 -69 34t-25.5 51t9 57.5t34 53.5t49.5 38.5t56 13.5q16 -1 25 -12.5t12.5 -29t2.5 -39t-3.5 -41.5t-6.5 -36.5
t-7 -24.5l44 -13l-19 -80zM341 1841q-5 6 -12 8t-12 2q-17 2 -27 -8.5t-11 -24.5q-2 -25 20 -37t51 -23q2 20 2 38q0 15 -2 28.5t-9 18.5v-2z" />
    <glyph glyph-name="kasraisolated" unicode="&#xfe7a;" horiz-adv-x="408" arabic-form="isolated" 
d="M392 -363q-97 -52 -191.5 -102.5t-191.5 -102.5q5 23 8 39t7 38q99 52 191.5 101.5t191.5 102.5z" />
    <glyph glyph-name="shaddaisolated" unicode="&#xfe7c;" horiz-adv-x="425" arabic-form="isolated" 
d="M398 1823q11 -17 17.5 -36t11.5 -38q6 -33 3 -67t-15 -62t-33 -45.5t-51 -17.5q-25 0 -37.5 9t-27.5 23q-6 -10 -15 -23t-22 -25t-31 -21t-40 -11q-35 -3 -56 10t-31 35t-11.5 49.5t2 53.5t10.5 47.5t14 31.5q0 -3 5 1t11.5 9t11.5 8.5t5 0.5q-8 -20 -13.5 -46.5t-3 -50
t14 -39.5t37.5 -15q29 0 44.5 16t23.5 37.5t12.5 44.5t12.5 38q1 -3 5 0t9 7.5t9.5 8t5.5 0.5q-8 -29 -2.5 -54t19.5 -40t35.5 -18t46.5 14q6 9 5.5 22t-4.5 26.5t-11 27t-14 23.5q13 18 24.5 34t22.5 32z" />
    <glyph glyph-name="sukunisolated" unicode="&#xfe7e;" horiz-adv-x="328" arabic-form="isolated" 
d="M347 1696q5 -34 -10 -71.5t-41 -87.5v1q0 1 1 2l-3 -5q-24 -14 -61.5 -26.5t-74 -15t-65 11t-34.5 51.5q-5 33 3.5 75.5t27 81.5t46 67t59.5 33q28 4 54 -6.5t46.5 -28.5t34.5 -40.5t17 -41.5zM283 1628q-3 14 -13.5 30t-25 29.5t-31.5 22t-35 5.5q-30 -5 -44 -27
t-11 -45q3 -22 21 -32.5t42 -11t50 6.5t46 21zM296 1537q0 -1 -1 -1zM295 1536q0 -1 -1 -1z" />
    <glyph glyph-name="logo" unicode="&#xfe7f;" horiz-adv-x="2797" arabic-form="medial" 
d="M90 727h2611v-504h-2611v504zM1364 886q-21 -12 -45 -26t-49.5 -25.5t-50.5 -19.5t-49 -8q-31 0 -55.5 20.5t-43.5 65.5q-17 -12 -30 -20.5t-25.5 -15.5t-25.5 -12t-30 -11q-18 -6 -32 -6q-17 0 -33 11.5t-16 33.5q0 7 2.5 15t6.5 17q18 40 49 76.5t68.5 64t77.5 44
t76 16.5q27 0 48 -16t21 -52q0 -14 -9.5 -30.5t-27.5 -36.5q-20 -20 -35 -44.5t-15 -46.5q0 -15 9 -21.5t23 -6.5q21 0 49.5 10t56.5 23t51.5 25.5t33.5 18.5q8 37 32.5 68.5t55.5 54.5t63.5 36.5t57.5 13.5q14 0 20 -5t6 -13q0 -10 -11 -20.5t-30 -12.5q-19 -7 -44 -19
t-47.5 -30t-38 -41t-15.5 -52q0 -32 16.5 -45t42.5 -13t59 10t64.5 23.5t58 27.5t41.5 21q0 36 19 71t48.5 62.5t66.5 44t73 16.5q22 0 36.5 -4.5t22 -11t10.5 -15t3 -15.5q0 -26 -29 -52t-67 -49t-74.5 -40.5t-52.5 -25.5q16 -23 41 -33.5t57 -10.5q30 0 64.5 8.5t70 23.5
t70 35.5t64.5 43.5q19 14 38 32t40 33q4 3 13 8t19.5 10.5t21.5 9t20 3.5q15 0 15 -13q0 -5 -4 -16.5t-10 -22.5q-16 -45 -25.5 -75t-11.5 -47q0 -5 6 -5q7 0 20 6.5t29.5 16t34 22t32.5 24.5q4 2 23 15t43 27.5t48 26.5t38 12q12 0 12 -12q-3 -29 -3 -57q0 -12 1 -24.5
t4.5 -22t10 -15.5t17.5 -6q17 0 31 5.5t27 13.5t25.5 18t27.5 19l8 -21q-12 -9 -30 -25t-38.5 -31.5t-42.5 -27t-42 -11.5q-15 0 -25 6t-15 15t-7 19t-2 19t1 18.5t1 17.5q0 11 -3.5 21t-14.5 10q-10 0 -27.5 -9.5t-38.5 -24t-45 -31t-48 -31t-46 -24.5t-40 -10q-11 2 -22 8
t-11 19q0 23 4.5 44.5t18.5 62.5q0 1 -15.5 -10t-43 -28t-64 -37t-77 -37.5t-83 -29t-82.5 -11.5q-41 0 -76.5 16.5t-49.5 46.5q-19 -8 -47.5 -22t-62 -27.5t-68.5 -23t-66 -9.5q-35 0 -61.5 16.5t-35.5 60.5zM524 1295q8 37 25.5 64t46.5 27q10 0 19.5 -3.5t9.5 -17.5
q0 -9 -8 -24.5t-17 -28.5l-97 -192q105 5 209 36t189 97q35 31 61.5 43.5t43.5 12.5q25 0 25 -21q0 -19 -23 -47.5t-73 -54.5q-33 -34 -63 -72t-54 -82t-40 -96t-20 -115q0 -19 -15 -19q-12 0 -18 13.5t-6 45.5q0 73 22.5 140.5t56.5 124.5q-76 -25 -155 -36.5t-161 -11.5
l-80 -160q-15 -31 -39 -54t-56 -23q-24 0 -50 18.5t-47 49t-35 68.5t-14 77q0 34 16.5 56.5t54.5 22.5q6 0 12 -0.5t13 -1.5q46 -5 92.5 -10t94.5 -5zM1103 265h91v320l318 -320h109v421h-91v-320l-313 320h-114v-421zM1709 265h430v76h-331v108h299v75h-299v87h322v75h-421
v-421zM2202 686v-77h183v-344h89v344h183v77h-455zM427 1080q-108 3 -214 21q-13 -10 -13 -35q0 -23 9.5 -52.5t25.5 -56t36 -45t40 -18.5q15 0 29 12t26 40zM1183 1059q-5 1 -10 1h-10q-36 0 -70.5 -17t-65 -43.5t-56 -58.5t-43.5 -61q41 0 77.5 16.5t68.5 42t59 57.5
t50 63zM880 390v-125h126v125h-126zM1914 1091q-50 -5 -99 -38t-78 -99q40 17 73.5 34t58.5 33t39 30t14 25q0 10 -8 15z" />
    <glyph glyph-name="hamzaisolated" unicode="&#x621;" horiz-adv-x="820" arabic-form="isolated" 
d="M218 384v377q0 139 61 200.5t175 61.5h254q20 0 35.5 -15t15.5 -36v-136q0 -20 -15.5 -34.5t-35.5 -14.5h-251v-403h251q20 0 35.5 -15t15.5 -35v-136q0 -21 -15.5 -36t-35.5 -15h-601q-21 0 -35.5 15t-14.5 36v136q0 20 14.5 35t35.5 15h111z" />
    <glyph glyph-name="alefwithmaddaaboveisolated" unicode="&#x622;" horiz-adv-x="387" arabic-form="isolated" 
d="M77 1291q0 21 15 36t36 15h136q20 0 35 -15t15 -36v-1100q0 -21 -15 -35.5t-35 -14.5h-136q-21 0 -36 14.5t-15 35.5v1100zM50 1412q-11 0 -19.5 8.5t-8.5 20.5v37q0 13 8.5 21t19.5 8h308q11 0 19 -8t8 -21v-37q0 -12 -8 -20.5t-19 -8.5h-308z" />
    <glyph glyph-name="alefwithmaddaabovefinal" unicode="&#x622;" horiz-adv-x="393" arabic-form="final" 
d="M295 384h103v-237h-103q-57 0 -101 15t-74.5 47t-46 81.5t-15.5 119.5v881q0 21 15 36t36 15h135q21 0 36 -15t15 -36v-907zM50 1412q-11 0 -19.5 8.5t-8.5 20.5v37q0 13 8.5 21t19.5 8h308q11 0 19 -8t8 -21v-37q0 -12 -8 -20.5t-19 -8.5h-308z" />
    <glyph glyph-name="alefwithhamzaaboveisolated" unicode="&#x623;" horiz-adv-x="387" arabic-form="isolated" 
d="M77 1291q0 21 15 36t36 15h136q20 0 35 -15t15 -36v-1100q0 -21 -15 -35.5t-35 -14.5h-136q-21 0 -36 14.5t-15 35.5v1100zM109 1573v79q0 61 26.5 87.5t77.5 26.5h93q15 0 25.5 -10.5t10.5 -26.5v-50q0 -15 -10.5 -26t-25.5 -11h-74v-69h74q15 0 25.5 -10.5t10.5 -26.5
v-50q0 -16 -10.5 -26.5t-25.5 -10.5h-220q-16 0 -26.5 10.5t-10.5 26.5v50q0 16 10.5 26.5t26.5 10.5h23z" />
    <glyph glyph-name="alefwithhamzaabovefinal" unicode="&#x623;" horiz-adv-x="393" arabic-form="final" 
d="M295 384h103v-237h-103q-57 0 -101 15t-74.5 47t-46 81.5t-15.5 119.5v881q0 21 15 36t36 15h135q21 0 36 -15t15 -36v-907zM99 1573v79q0 61 27 87.5t78 26.5h93q15 0 25 -10.5t10 -26.5v-50q0 -15 -10 -26t-25 -11h-74v-69h74q15 0 25 -10.5t10 -26.5v-50
q0 -16 -10 -26.5t-25 -10.5h-220q-16 0 -27 10.5t-11 26.5v50q0 16 11 26.5t27 10.5h22z" />
    <glyph glyph-name="wawwithhamzaaboveisolated" unicode="&#x624;" horiz-adv-x="846" arabic-form="isolated" 
d="M146 -333q-23 2 -39.5 16t-16.5 35v135q0 21 15 36.5t36 15.5h24q12 0 26 -2q16 -1 32 -1h33q48 0 95.5 8t88 34t70.5 74t44 129h-254q-57 0 -101 15t-74 47t-45.5 81.5t-15.5 119.5v351q0 139 60.5 200.5t175.5 61.5h243q114 0 175.5 -61.5t60.5 -200.5
q0 -145 -0.5 -289t-0.5 -289q0 -126 -38 -223t-107 -163.5t-167.5 -100.5t-220.5 -34q-23 0 -47 1t-51 4h-1zM300 384h242v403h-242v-403zM331 1297v85q0 68 29.5 98t84.5 30h103q17 0 29 -12t12 -30v-56q0 -16 -12 -28.5t-29 -12.5h-81v-74h81q17 0 29 -12t12 -29v-55
q0 -18 -12 -30t-29 -12h-241q-17 0 -29.5 12t-12.5 30v55q0 17 12.5 29t29.5 12h24z" />
    <glyph glyph-name="wawwithhamzaabovefinal" unicode="&#x624;" arabic-form="final" 
d="M153 -333q-22 2 -39 16t-17 35v135q0 21 15.5 36.5t36.5 15.5h24q12 0 26 -2q16 -1 33 -1h33q48 0 95.5 8t87.5 34t70 74t44 129h-254q-57 0 -101 15t-74.5 47t-46 81.5t-15.5 119.5v351q0 139 61.5 200.5t175.5 61.5h243q114 0 175 -61.5t60 -200.5v-377h111v-237h-111
q-14 -118 -57.5 -208.5t-112.5 -152t-161.5 -93t-203.5 -31.5q-22 0 -45.5 1t-51.5 4h-1zM308 384h241v403h-241v-403zM331 1297v85q0 68 29.5 98t84.5 30h103q17 0 29 -12t12 -30v-56q0 -16 -12 -28.5t-29 -12.5h-81v-74h81q17 0 29 -12t12 -29v-55q0 -18 -12 -30t-29 -12
h-241q-17 0 -29.5 12t-12.5 30v55q0 17 12.5 29t29.5 12h24z" />
    <glyph glyph-name="alefwithhamzabelowisolated" unicode="&#x625;" horiz-adv-x="387" arabic-form="isolated" 
d="M77 1291q0 21 15 36t36 15h136q20 0 35 -15t15 -36v-1100q0 -21 -15 -35.5t-35 -14.5h-136q-21 0 -36 14.5t-15 35.5v1100zM84 -177v77q0 62 26.5 89t77.5 27h93q15 0 26 -11t11 -26v-51q0 -15 -11 -26t-26 -11h-74v-68h74q15 0 26 -11.5t11 -26.5v-49q0 -16 -11 -27
t-26 -11h-219q-17 0 -27.5 11t-10.5 27v49q0 15 10.5 26.5t27.5 11.5h22z" />
    <glyph glyph-name="alefwithhamzabelowfinal" unicode="&#x625;" horiz-adv-x="393" arabic-form="final" 
d="M295 384h103v-237h-103q-57 0 -101 15t-74.5 47t-46 81.5t-15.5 119.5v881q0 21 15 36t36 15h135q21 0 36 -15t15 -36v-907zM124 -177v77q0 62 27 89t78 27h93q15 0 25.5 -11t10.5 -26v-51q0 -15 -10.5 -26t-25.5 -11h-74v-68h74q15 0 25.5 -11.5t10.5 -26.5v-49
q0 -16 -10.5 -27t-25.5 -11h-219q-16 0 -27 11t-11 27v49q0 15 11 26.5t27 11.5h21z" />
    <glyph glyph-name="yehwithhamzaaboveisolated" unicode="&#x626;" horiz-adv-x="1163" arabic-form="isolated" 
d="M1053 1023q21 0 35 -15.5t14 -36.5v-135q0 -21 -14 -35.5t-35 -14.5l-227 1v-403h188q99 -3 99 -180q0 -22 -2 -48t-4 -55v1q-14 -101 -60 -183t-116.5 -140t-160 -89t-189.5 -31q-139 5 -236.5 57.5t-158.5 138t-89 197.5t-27 237q0 11 0.5 23.5t0.5 34.5v56v87
q0 21 15 36t36 15h137q20 0 35.5 -15t15.5 -36v-196q-1 -43 2 -88t13.5 -87.5t30 -80.5t52.5 -68t81.5 -49t115.5 -23q46 -2 92 13.5t85.5 48t68 79.5t39.5 108q-79 0 -136 18t-93.5 52t-53.5 83t-17 110v351q0 139 60.5 201t175.5 61h227zM100 793v85q0 69 29.5 98.5
t85.5 29.5h103q16 0 28 -12t12 -29v-55q0 -17 -12 -29.5t-28 -12.5h-82v-75h82q16 0 28 -12t12 -29v-55q0 -17 -12 -29t-28 -12h-242q-17 0 -29 12t-12 29v55q0 17 12 29t29 12h24z" />
    <glyph glyph-name="yehwithhamzaabovefinal" unicode="&#x626;" horiz-adv-x="1203" arabic-form="final" 
d="M60 321q0 20 1 58t1 111q0 21 14.5 36t35.5 15h136q21 0 36 -15t15 -36q0 -50 0.5 -98.5t0.5 -98.5q-1 -43 2 -88t13.5 -87.5t30.5 -80.5t52.5 -67.5t81 -48.5t115.5 -23q46 -2 92 13.5t85 48t67 79.5t39 108h-236q-21 0 -35.5 15t-14.5 36v136q0 20 14.5 35t35.5 15h564
v-237h-104q-14 -110 -61 -200t-118 -154t-161 -99t-190 -35q-139 5 -236.5 58t-159 139t-89.5 198t-27 237v30zM130 793v85q0 69 29.5 98.5t85.5 29.5h103q17 0 28.5 -12t11.5 -29v-55q0 -17 -11.5 -29.5t-28.5 -12.5h-82v-75h82q17 0 28.5 -12t11.5 -29v-55
q0 -17 -11.5 -29t-28.5 -12h-242q-17 0 -29 12t-12 29v55q0 17 12 29t29 12h24z" />
    <glyph glyph-name="yehwithhamzaaboveinitial" unicode="&#x626;" horiz-adv-x="432" arabic-form="initial" 
d="M-6 384h150v246q0 20 15 35t36 15h136q20 0 35.5 -15t15.5 -35v-220q0 -140 -61.5 -201.5t-176.5 -61.5h-150v237zM114 920v85q0 68 30 97.5t85 29.5h102q17 0 29 -11.5t12 -29.5v-55q0 -17 -12 -29t-29 -12h-80v-75h80q17 0 29 -12.5t12 -29.5v-54q0 -17 -12 -29.5
t-29 -12.5h-241q-17 0 -29 12.5t-12 29.5v54q0 17 12 29.5t29 12.5h24z" />
    <glyph glyph-name="yehwithhamzaabovemedial" unicode="&#x626;" horiz-adv-x="452" arabic-form="medial" 
d="M348 384h111v-237h-467v237h118v246q0 20 14.5 35t36.5 15h136q21 0 36 -15t15 -35v-246zM130 920v85q0 68 29.5 97.5t84.5 29.5h103q17 0 28.5 -11.5t11.5 -29.5v-55q0 -17 -11.5 -29t-28.5 -12h-82v-75h82q17 0 28.5 -12.5t11.5 -29.5v-54q0 -17 -11.5 -29.5
t-28.5 -12.5h-242q-17 0 -29 12.5t-12 29.5v54q0 17 12 29.5t29 12.5h25z" />
    <glyph glyph-name="alefisolated" unicode="&#x627;" horiz-adv-x="387" arabic-form="isolated" 
d="M77 1291q0 21 15 36t36 15h136q20 0 35 -15t15 -36v-1100q0 -21 -15 -35.5t-35 -14.5h-136q-21 0 -36 14.5t-15 35.5v1100z" />
    <glyph glyph-name="aleffinal" unicode="&#x627;" horiz-adv-x="393" arabic-form="final" 
d="M295 384h103v-237h-103q-57 0 -101 15t-74.5 47t-46 81.5t-15.5 119.5v881q0 21 15 36t36 15h135q21 0 36 -15t15 -36v-907z" />
    <glyph glyph-name="behisolated" unicode="&#x628;" horiz-adv-x="1294" arabic-form="isolated" 
d="M285 384h715v586q0 20 15.5 35.5t36.5 15.5h136q21 0 36 -15.5t15 -35.5l-1 -560q0 -70 -15.5 -119.5t-45.5 -81.5t-74 -47t-101 -15h-717q-57 0 -101 15t-74 47t-45.5 81.5t-15.5 119.5v80q0 20 14.5 35t35.5 15h136q21 0 35.5 -15t14.5 -35v-106zM750 -134
q0 -25 -9.5 -46.5t-25.5 -38t-38 -26t-46 -9.5q-25 0 -46.5 9.5t-37.5 26t-25 38t-9 46.5q0 24 9 45.5t25 37.5t37.5 25.5t46.5 9.5q24 0 46 -9.5t38 -25.5t25.5 -37.5t9.5 -45.5z" />
    <glyph glyph-name="behfinal" unicode="&#x628;" horiz-adv-x="1344" arabic-form="final" 
d="M750 -134q0 -25 -9.5 -46.5t-25.5 -38t-38 -26t-46 -9.5q-25 0 -46.5 9.5t-37.5 26t-25 38t-9 46.5q0 24 9 45.5t25 37.5t37.5 25.5t46.5 9.5q24 0 46 -9.5t38 -25.5t25.5 -37.5t9.5 -45.5zM280 384h723v586q0 20 15 35.5t36 15.5h136q21 0 35.5 -15.5t14.5 -35.5v-586
h112v-237h-1073q-57 0 -101 15t-74.5 47t-46 81.5t-15.5 119.5v80q0 20 14.5 35t35.5 15h136q22 0 37 -15t15 -35v-106z" />
    <glyph glyph-name="behinitial" unicode="&#x628;" horiz-adv-x="407" arabic-form="initial" 
d="M-3 384h113v586q0 20 15 35.5t36 15.5h137q20 0 35 -15.5t15 -35.5v-560q0 -140 -61.5 -201.5t-176.5 -61.5h-113v237zM307 -134q0 -25 -9.5 -46.5t-25.5 -38t-38 -26t-46 -9.5t-45.5 9.5t-37.5 26t-25.5 38t-9.5 46.5q0 24 9.5 45.5t25.5 37.5t37.5 25.5t45.5 9.5
t46 -9.5t38 -25.5t25.5 -37.5t9.5 -45.5z" />
    <glyph glyph-name="behmedial" unicode="&#x628;" horiz-adv-x="455" arabic-form="medial" 
d="M351 384h111v-237h-467v237h118v586q0 20 14.5 35.5t36.5 15.5h135q22 0 37 -15.5t15 -35.5v-586zM350 -134q0 -25 -9.5 -46.5t-25.5 -38t-37.5 -26t-46.5 -9.5q-24 0 -45.5 9.5t-37.5 26t-25.5 38t-9.5 46.5q0 24 9.5 45.5t25.5 37.5t37.5 25.5t45.5 9.5q25 0 46.5 -9.5
t37.5 -25.5t25.5 -37.5t9.5 -45.5z" />
    <glyph glyph-name="tehmarbutaisolated" unicode="&#x629;" horiz-adv-x="840" arabic-form="isolated" 
d="M293 147q-57 0 -101 15t-74 47t-45.5 81.5t-15.5 119.5v351q0 139 61 200.5t175 61.5h243q114 0 175.5 -61.5t61.5 -200.5v-351q0 -70 -15.5 -119.5t-45.5 -81.5t-74 -47t-101 -15h-244zM536 384v403h-242v-403h242zM397 1306q0 -24 -9.5 -46t-25.5 -38t-37.5 -25.5
t-46.5 -9.5q-24 0 -45.5 9.5t-37.5 25.5t-25.5 38t-9.5 46t9.5 46t25.5 38t37.5 25.5t45.5 9.5q25 0 46.5 -9.5t37.5 -25.5t25.5 -38t9.5 -46zM685 1306q0 -24 -9.5 -46t-26 -38t-38 -25.5t-46.5 -9.5q-24 0 -45.5 9.5t-37 25.5t-25 38t-9.5 46t9.5 46t25 38t37 25.5
t45.5 9.5q25 0 46.5 -9.5t38 -25.5t26 -38t9.5 -46z" />
    <glyph glyph-name="tehmarbutafinal" unicode="&#x629;" horiz-adv-x="880" arabic-form="final" 
d="M774 384h111v-237h-590q-57 0 -101 15t-74.5 47t-46 81.5t-15.5 119.5v351q0 139 61.5 200.5t175.5 61.5h243q114 0 174.5 -61.5t61.5 -200.5v-377zM537 384v403h-242v-403h242zM391 1306q0 -24 -9.5 -46t-26 -38t-38 -25.5t-46.5 -9.5q-24 0 -45.5 9.5t-37.5 25.5
t-25.5 38t-9.5 46t9.5 46t25.5 38t37.5 25.5t45.5 9.5q25 0 46.5 -9.5t38 -25.5t26 -38t9.5 -46zM678 1306q0 -24 -9.5 -46t-25.5 -38t-38 -25.5t-46 -9.5t-45.5 9.5t-37.5 25.5t-25.5 38t-9.5 46t9.5 46t25.5 38t37.5 25.5t45.5 9.5t46 -9.5t38 -25.5t25.5 -38t9.5 -46z
" />
    <glyph glyph-name="tehisolated" unicode="&#x62a;" horiz-adv-x="1294" arabic-form="isolated" 
d="M285 384h715v586q0 20 15.5 35.5t36.5 15.5h136q21 0 36 -15.5t15 -35.5l-1 -560q0 -70 -15.5 -119.5t-45.5 -81.5t-74 -47t-101 -15h-717q-57 0 -101 15t-74 47t-45.5 81.5t-15.5 119.5v80q0 20 14.5 35t35.5 15h136q21 0 35.5 -15t14.5 -35v-106zM846 1075
q0 -24 -9.5 -46t-26 -38t-38 -25.5t-46.5 -9.5q-24 0 -45.5 9.5t-37 25.5t-25 38t-9.5 46t9.5 46t25 38t37 25.5t45.5 9.5q25 0 46.5 -9.5t38 -25.5t26 -38t9.5 -46zM558 1075q0 -24 -9.5 -46t-25.5 -38t-37.5 -25.5t-46.5 -9.5q-24 0 -45.5 9.5t-37.5 25.5t-25.5 38
t-9.5 46t9.5 46t25.5 38t37.5 25.5t45.5 9.5q25 0 46.5 -9.5t37.5 -25.5t25.5 -38t9.5 -46z" />
    <glyph glyph-name="tehfinal" unicode="&#x62a;" horiz-adv-x="1344" arabic-form="final" 
d="M816 1075q0 -24 -9.5 -46t-25.5 -38t-38 -25.5t-46 -9.5t-45.5 9.5t-37.5 25.5t-25.5 38t-9.5 46t9.5 46t25.5 38t37.5 25.5t45.5 9.5t46 -9.5t38 -25.5t25.5 -38t9.5 -46zM528 1075q0 -24 -9.5 -46t-25.5 -38t-37.5 -25.5t-45.5 -9.5t-46 9.5t-38 25.5t-25.5 38t-9.5 46
t9.5 46t25.5 38t38 25.5t46 9.5t45.5 -9.5t37.5 -25.5t25.5 -38t9.5 -46zM280 384h723v586q0 20 15 35.5t36 15.5h136q21 0 35.5 -15.5t14.5 -35.5v-586h112v-237h-1073q-57 0 -101 15t-74.5 47t-46 81.5t-15.5 119.5v80q0 20 14.5 35t35.5 15h136q22 0 37 -15t15 -35v-106z
" />
    <glyph glyph-name="tehinitial" unicode="&#x62a;" horiz-adv-x="599" arabic-form="initial" 
d="M-6 384h323v586q0 20 14.5 35.5t35.5 15.5h137q21 0 35.5 -15.5t14.5 -35.5v-560q0 -140 -61 -201.5t-176 -61.5h-323v237zM553 1306q0 -24 -9.5 -46t-25.5 -38t-38 -25.5t-46 -9.5t-45.5 9.5t-37 25.5t-25 38t-9.5 46t9.5 46t25 38t37 25.5t45.5 9.5t46 -9.5t38 -25.5
t25.5 -38t9.5 -46zM265 1306q0 -24 -9.5 -46t-25.5 -38t-37.5 -25.5t-45.5 -9.5t-45.5 9.5t-37.5 25.5t-25.5 38t-9.5 46t9.5 46t25.5 38t37.5 25.5t45.5 9.5t45.5 -9.5t37.5 -25.5t25.5 -38t9.5 -46z" />
    <glyph glyph-name="tehmedial" unicode="&#x62a;" horiz-adv-x="599" arabic-form="medial" 
d="M412 384h192v-237h-612v237h183v586q0 20 14.5 35.5t35.5 15.5h135q22 0 37 -15.5t15 -35.5v-586zM568 1306q0 -24 -9.5 -46t-25.5 -38t-37.5 -25.5t-45.5 -9.5t-46 9.5t-38 25.5t-25.5 38t-9.5 46t9.5 46t25.5 38t38 25.5t46 9.5t45.5 -9.5t37.5 -25.5t25.5 -38t9.5 -46
zM281 1306q0 -24 -9.5 -46t-25.5 -38t-38 -25.5t-46 -9.5t-45.5 9.5t-37.5 25.5t-25.5 38t-9.5 46t9.5 46t25.5 38t37.5 25.5t45.5 9.5t46 -9.5t38 -25.5t25.5 -38t9.5 -46z" />
    <glyph glyph-name="thehisolated" unicode="&#x62b;" horiz-adv-x="1294" arabic-form="isolated" 
d="M285 384h715v586q0 20 15.5 35.5t36.5 15.5h136q21 0 36 -15.5t15 -35.5l-1 -560q0 -70 -15.5 -119.5t-45.5 -81.5t-74 -47t-101 -15h-717q-57 0 -101 15t-74 47t-45.5 81.5t-15.5 119.5v80q0 20 14.5 35t35.5 15h136q21 0 35.5 -15t14.5 -35v-106zM886 1160
q0 -24 -9.5 -45.5t-25.5 -37.5t-37.5 -25.5t-46.5 -9.5q-24 0 -45.5 9.5t-37.5 25.5t-25.5 37.5t-9.5 45.5t9.5 46t25.5 38t37.5 25.5t45.5 9.5q25 0 46.5 -9.5t37.5 -25.5t25.5 -38t9.5 -46zM599 1160q0 -24 -9.5 -45.5t-26 -37.5t-38 -25.5t-46.5 -9.5q-24 0 -45.5 9.5
t-37.5 25.5t-25.5 37.5t-9.5 45.5t9.5 46t25.5 38t37.5 25.5t45.5 9.5q25 0 46.5 -9.5t38 -25.5t26 -38t9.5 -46zM745 1422q0 -24 -9.5 -45.5t-25.5 -37.5t-37.5 -25.5t-46.5 -9.5q-24 0 -45.5 9.5t-37.5 25.5t-25.5 37.5t-9.5 45.5t9.5 46t25.5 38t37.5 25.5t45.5 9.5
q25 0 46.5 -9.5t37.5 -25.5t25.5 -38t9.5 -46z" />
    <glyph glyph-name="thehfinal" unicode="&#x62b;" horiz-adv-x="1344" arabic-form="final" 
d="M280 384h723v586q0 20 15 35.5t36 15.5h136q21 0 35.5 -15.5t14.5 -35.5v-586h112v-237h-1073q-57 0 -101 15t-74.5 47t-46 81.5t-15.5 119.5v80q0 20 14.5 35t35.5 15h136q22 0 37 -15t15 -35v-106zM891 1160q0 -24 -9.5 -45.5t-25.5 -37.5t-38 -25.5t-46 -9.5
t-45.5 9.5t-37.5 25.5t-25.5 37.5t-9.5 45.5t9.5 46t25.5 38t37.5 25.5t45.5 9.5t46 -9.5t38 -25.5t25.5 -38t9.5 -46zM750 1422q0 -24 -9.5 -45.5t-25.5 -37.5t-38 -25.5t-46 -9.5t-45.5 9.5t-37.5 25.5t-25.5 37.5t-9.5 45.5t9.5 46t25.5 38t37.5 25.5t45.5 9.5t46 -9.5
t38 -25.5t25.5 -38t9.5 -46zM603 1160q0 -24 -9.5 -45.5t-25.5 -37.5t-37.5 -25.5t-45.5 -9.5t-46 9.5t-38 25.5t-25.5 37.5t-9.5 45.5t9.5 46t25.5 38t38 25.5t46 9.5t45.5 -9.5t37.5 -25.5t25.5 -38t9.5 -46z" />
    <glyph glyph-name="thehinitial" unicode="&#x62b;" horiz-adv-x="629" arabic-form="initial" 
d="M-3 384h335v586q0 20 15.5 35.5t36.5 15.5h135q21 0 36.5 -15.5t15.5 -35.5v-560q0 -70 -15.5 -119.5t-46 -81.5t-75 -47t-102.5 -15h-335v237zM568 1306q0 -24 -9.5 -46t-25.5 -38t-37.5 -25.5t-45.5 -9.5t-46 9.5t-38 25.5t-25.5 38t-9.5 46t9.5 46t25.5 38t38 25.5
t46 9.5t45.5 -9.5t37.5 -25.5t25.5 -38t9.5 -46zM281 1306q0 -24 -9.5 -46t-25.5 -38t-38 -25.5t-46 -9.5t-45.5 9.5t-37.5 25.5t-25.5 38t-9.5 46t9.5 46t25.5 38t37.5 25.5t45.5 9.5t46 -9.5t38 -25.5t25.5 -38t9.5 -46zM427 1568q0 -24 -9.5 -46t-25.5 -38t-37.5 -25.5
t-45.5 -9.5t-45.5 9.5t-37.5 25.5t-25.5 38t-9.5 46t9.5 45.5t25.5 37.5t37.5 25.5t45.5 9.5t45.5 -9.5t37.5 -25.5t25.5 -37.5t9.5 -45.5z" />
    <glyph glyph-name="thehmedial" unicode="&#x62b;" horiz-adv-x="604" arabic-form="medial" 
d="M423 384h187v-237h-618v237h193v586q0 20 14.5 35.5t36.5 15.5h135q22 0 37 -15.5t15 -35.5v-586zM568 1306q0 -24 -9.5 -46t-25.5 -38t-37.5 -25.5t-45.5 -9.5t-46 9.5t-38 25.5t-25.5 38t-9.5 46t9.5 46t25.5 38t38 25.5t46 9.5t45.5 -9.5t37.5 -25.5t25.5 -38t9.5 -46
zM281 1306q0 -24 -9.5 -46t-25.5 -38t-38 -25.5t-46 -9.5t-45.5 9.5t-37.5 25.5t-25.5 38t-9.5 46t9.5 46t25.5 38t37.5 25.5t45.5 9.5t46 -9.5t38 -25.5t25.5 -38t9.5 -46zM427 1568q0 -24 -9.5 -46t-25.5 -38t-37.5 -25.5t-45.5 -9.5t-45.5 9.5t-37.5 25.5t-25.5 38
t-9.5 46t9.5 45.5t25.5 37.5t37.5 25.5t45.5 9.5t45.5 -9.5t37.5 -25.5t25.5 -37.5t9.5 -45.5z" />
    <glyph glyph-name="jeemisolated" unicode="&#x62c;" horiz-adv-x="931" arabic-form="isolated" 
d="M449 486q22 2 42.5 2.5t40.5 0.5h117v104q-11 63 -39.5 100.5t-67.5 57.5t-86.5 26t-95.5 6h-32t-33 -1q-14 -1 -26 -1h-25q-20 0 -34.5 14.5t-14.5 35.5v137q0 20 16.5 34t39.5 16q26 4 50 4.5t47 0.5q112 0 203.5 -28.5t159.5 -84.5t109.5 -138t53.5 -189v5l3 -287
q2 -20 -13.5 -34.5t-36.5 -14.5h-190q-70 0 -109 -0.5t-56 -2t-29 -4.5h1q-33 -6 -62.5 -18.5t-53 -34t-40.5 -53t-24 -76.5v-60q11 -62 39 -100t67 -58t86 -26.5t96 -6.5h31q17 0 32 1t27 1h26q20 0 35 -14.5t15 -35.5v-137q0 -20 -16.5 -33.5t-39.5 -15.5q-26 -4 -50 -5.5
t-47 -1.5q-102 0 -187.5 24t-151.5 69q-46 32 -80.5 72.5t-58 87t-35 97.5t-11.5 102q0 83 28.5 163.5t87.5 146.5q54 63 128.5 101.5t163.5 52.5v-1zM609 28q0 -25 -9.5 -46.5t-25.5 -38t-38 -26t-46 -9.5t-45.5 9.5t-37.5 26t-25.5 38t-9.5 46.5q0 24 9.5 46t25.5 38
t37.5 25.5t45.5 9.5t46 -9.5t38 -25.5t25.5 -38t9.5 -46z" />
    <glyph glyph-name="jeemfinal" unicode="&#x62c;" horiz-adv-x="991" arabic-form="final" 
d="M460 486q23 2 43 2.5t40 0.5h117q7 87 -7.5 142t-44.5 87.5t-71.5 46.5t-89 17.5t-97 1t-93.5 -2.5q-21 0 -36 14.5t-15 35.5v137q0 20 17 34t40 16q27 4 50.5 4.5t45.5 0.5q111 0 208 -27t169 -81.5t113 -137.5t40 -194v-199h106v-237h-280q-22 0 -36 31t-14 74h-112
q-25 0 -49.5 -0.5t-49.5 -6.5h1q-33 -6 -62 -18.5t-53 -34t-41 -53t-24 -75.5v-61q12 -62 40.5 -100t67.5 -58t86 -26.5t95 -6.5h31q17 0 33 1q14 1 25 1h26q21 0 36.5 -14.5t15.5 -35.5v-137q0 -20 -17.5 -33.5t-40.5 -15.5q-26 -4 -49.5 -5.5t-46.5 -1.5q-103 0 -187.5 24
t-151.5 69q-47 32 -81.5 72.5t-57.5 87t-34.5 97.5t-11.5 102q0 82 29.5 163t86.5 147q56 61 130 100.5t161 53.5v-1zM619 33q0 -25 -9.5 -47t-25.5 -38t-38 -25.5t-46 -9.5t-45.5 9.5t-37.5 25.5t-25 38t-9 47q0 24 9 45.5t25 37.5t37.5 25.5t45.5 9.5t46 -9.5t38 -25.5
t25.5 -37.5t9.5 -45.5z" />
    <glyph glyph-name="jeeminitial" unicode="&#x62c;" horiz-adv-x="1027" arabic-form="initial" 
d="M140 1018q25 4 49.5 4.5t47.5 0.5q111 0 204 -24t162 -76.5t111 -136t50 -203.5l2 -199h163q21 0 36 -15t15 -35v-136q0 -21 -15 -36t-36 -15h-937v237h545v209q-7 61 -32.5 98.5t-61.5 58.5t-79 28.5t-85.5 8t-81 -2.5t-64.5 -3q-22 0 -36 14.5t-14 35.5v137q0 20 16 34
t40 16h1zM513 -134q0 -25 -9.5 -46.5t-25.5 -38t-38 -26t-46 -9.5t-45.5 9.5t-37.5 26t-25.5 38t-9.5 46.5q0 24 9.5 45.5t25.5 37.5t37.5 25.5t45.5 9.5t46 -9.5t38 -25.5t25.5 -37.5t9.5 -45.5z" />
    <glyph glyph-name="jeemmedial" unicode="&#x62c;" horiz-adv-x="881" arabic-form="medial" 
d="M144 1018q27 4 50.5 4.5t46.5 0.5q106 0 195 -20.5t157 -70.5t113 -135t64 -214l1 -199h115v-237h-889v237h545v209q-9 55 -31.5 91t-54 56.5t-70.5 29.5t-80.5 11.5t-84.5 1t-83 -1.5q-21 0 -36 14.5t-15 35.5v137q0 20 17 34t40 16zM513 -134q0 -25 -9.5 -46.5
t-25.5 -38t-38 -26t-46 -9.5t-45.5 9.5t-37.5 26t-25.5 38t-9.5 46.5q0 24 9.5 45.5t25.5 37.5t37.5 25.5t45.5 9.5t46 -9.5t38 -25.5t25.5 -37.5t9.5 -45.5z" />
    <glyph glyph-name="hahisolated" unicode="&#x62d;" horiz-adv-x="931" arabic-form="isolated" 
d="M449 486q22 2 42.5 2.5t40.5 0.5h117v104q-11 63 -39.5 100.5t-67.5 57.5t-86.5 26t-95.5 6h-32t-33 -1q-14 -1 -26 -1h-25q-20 0 -34.5 14.5t-14.5 35.5v137q0 20 16.5 34t39.5 16q26 4 50 4.5t47 0.5q112 0 203.5 -28.5t159.5 -84.5t109.5 -138t53.5 -189v5l3 -287
q2 -20 -13.5 -34.5t-36.5 -14.5h-190q-70 0 -109 -0.5t-56 -2t-29 -4.5h1q-33 -6 -62.5 -18.5t-53 -34t-40.5 -53t-24 -76.5v-60q11 -62 39 -100t67 -58t86 -26.5t96 -6.5h31q17 0 32 1t27 1h26q20 0 35 -14.5t15 -35.5v-137q0 -20 -16.5 -33.5t-39.5 -15.5q-26 -4 -50 -5.5
t-47 -1.5q-102 0 -187.5 24t-151.5 69q-46 32 -80.5 72.5t-58 87t-35 97.5t-11.5 102q0 83 28.5 163.5t87.5 146.5q54 63 128.5 101.5t163.5 52.5v-1z" />
    <glyph glyph-name="hahfinal" unicode="&#x62d;" horiz-adv-x="991" arabic-form="final" 
d="M460 486q23 2 43 2.5t40 0.5h117q7 87 -7.5 142t-44.5 87.5t-71.5 46.5t-89 17.5t-97 1t-93.5 -2.5q-21 0 -36 14.5t-15 35.5v137q0 20 17 34t40 16q27 4 50.5 4.5t45.5 0.5q111 0 208 -27t169 -81.5t113 -137.5t40 -194v-199h106v-237h-280q-22 0 -36 31t-14 74h-112
q-25 0 -49.5 -0.5t-49.5 -6.5h1q-33 -6 -62 -18.5t-53 -34t-41 -53t-24 -75.5v-61q12 -62 40.5 -100t67.5 -58t86 -26.5t95 -6.5h31q17 0 33 1q14 1 25 1h26q21 0 36.5 -14.5t15.5 -35.5v-137q0 -20 -17.5 -33.5t-40.5 -15.5q-26 -4 -49.5 -5.5t-46.5 -1.5q-103 0 -187.5 24
t-151.5 69q-47 32 -81.5 72.5t-57.5 87t-34.5 97.5t-11.5 102q0 82 29.5 163t86.5 147q56 61 130 100.5t161 53.5v-1z" />
    <glyph glyph-name="hahinitial" unicode="&#x62d;" horiz-adv-x="1027" arabic-form="initial" 
d="M140 1018q25 4 49.5 4.5t47.5 0.5q111 0 204 -24t162 -76.5t111 -136t50 -203.5l2 -199h163q21 0 36 -15t15 -35v-136q0 -21 -15 -36t-36 -15h-937v237h545v209q-7 61 -32.5 98.5t-61.5 58.5t-79 28.5t-85.5 8t-81 -2.5t-64.5 -3q-22 0 -36 14.5t-14 35.5v137q0 20 16 34
t40 16h1z" />
    <glyph glyph-name="hahmedial" unicode="&#x62d;" horiz-adv-x="881" arabic-form="medial" 
d="M144 1018q27 4 50.5 4.5t46.5 0.5q106 0 195 -20.5t157 -70.5t113 -135t64 -214l1 -199h115v-237h-889v237h545v209q-9 55 -31.5 91t-54 56.5t-70.5 29.5t-80.5 11.5t-84.5 1t-83 -1.5q-21 0 -36 14.5t-15 35.5v137q0 20 17 34t40 16z" />
    <glyph glyph-name="khahisolated" unicode="&#x62e;" horiz-adv-x="931" arabic-form="isolated" 
d="M449 486q22 2 42.5 2.5t40.5 0.5h117v104q-11 63 -39.5 100.5t-67.5 57.5t-86.5 26t-95.5 6h-32t-33 -1q-14 -1 -26 -1h-25q-20 0 -34.5 14.5t-14.5 35.5v137q0 20 16.5 34t39.5 16q26 4 50 4.5t47 0.5q112 0 203.5 -28.5t159.5 -84.5t109.5 -138t53.5 -189v5l3 -287
q2 -20 -13.5 -34.5t-36.5 -14.5h-190q-70 0 -109 -0.5t-56 -2t-29 -4.5h1q-33 -6 -62.5 -18.5t-53 -34t-40.5 -53t-24 -76.5v-60q11 -62 39 -100t67 -58t86 -26.5t96 -6.5h31q17 0 32 1t27 1h26q20 0 35 -14.5t15 -35.5v-137q0 -20 -16.5 -33.5t-39.5 -15.5q-26 -4 -50 -5.5
t-47 -1.5q-102 0 -187.5 24t-151.5 69q-46 32 -80.5 72.5t-58 87t-35 97.5t-11.5 102q0 83 28.5 163.5t87.5 146.5q54 63 128.5 101.5t163.5 52.5v-1zM574 1306q0 -24 -9.5 -46t-25.5 -38t-38 -25.5t-46 -9.5t-45.5 9.5t-37 25.5t-25 38t-9.5 46t9.5 46t25 38t37 25.5
t45.5 9.5t46 -9.5t38 -25.5t25.5 -38t9.5 -46z" />
    <glyph glyph-name="khahfinal" unicode="&#x62e;" horiz-adv-x="991" arabic-form="final" 
d="M460 486q23 2 43 2.5t40 0.5h117q7 87 -7.5 142t-44.5 87.5t-71.5 46.5t-89 17.5t-97 1t-93.5 -2.5q-21 0 -36 14.5t-15 35.5v137q0 20 17 34t40 16q27 4 50.5 4.5t45.5 0.5q111 0 208 -27t169 -81.5t113 -137.5t40 -194v-199h106v-237h-280q-22 0 -36 31t-14 74h-112
q-25 0 -49.5 -0.5t-49.5 -6.5h1q-33 -6 -62 -18.5t-53 -34t-41 -53t-24 -75.5v-61q12 -62 40.5 -100t67.5 -58t86 -26.5t95 -6.5h31q17 0 33 1q14 1 25 1h26q21 0 36.5 -14.5t15.5 -35.5v-137q0 -20 -17.5 -33.5t-40.5 -15.5q-26 -4 -49.5 -5.5t-46.5 -1.5q-103 0 -187.5 24
t-151.5 69q-47 32 -81.5 72.5t-57.5 87t-34.5 97.5t-11.5 102q0 82 29.5 163t86.5 147q56 61 130 100.5t161 53.5v-1zM593 1306q0 -24 -9.5 -46t-25.5 -38t-38 -25.5t-46 -9.5t-45 9.5t-37 25.5t-25.5 38t-9.5 46t9.5 46t25.5 38t37 25.5t45 9.5t46 -9.5t38 -25.5t25.5 -38
t9.5 -46z" />
    <glyph glyph-name="khahinitial" unicode="&#x62e;" horiz-adv-x="1027" arabic-form="initial" 
d="M140 1018q25 4 49.5 4.5t47.5 0.5q111 0 204 -24t162 -76.5t111 -136t50 -203.5l2 -199h163q21 0 36 -15t15 -35v-136q0 -21 -15 -36t-36 -15h-937v237h545v209q-7 61 -32.5 98.5t-61.5 58.5t-79 28.5t-85.5 8t-81 -2.5t-64.5 -3q-22 0 -36 14.5t-14 35.5v137q0 20 16 34
t40 16h1zM492 1306q0 -24 -9.5 -46t-25.5 -38t-37.5 -25.5t-45.5 -9.5t-45.5 9.5t-37.5 25.5t-25.5 38t-9.5 46t9.5 46t25.5 38t37.5 25.5t45.5 9.5t45.5 -9.5t37.5 -25.5t25.5 -38t9.5 -46z" />
    <glyph glyph-name="khahmedial" unicode="&#x62e;" horiz-adv-x="881" arabic-form="medial" 
d="M144 1018q27 4 50.5 4.5t46.5 0.5q106 0 195 -20.5t157 -70.5t113 -135t64 -214l1 -199h115v-237h-889v237h545v209q-9 55 -31.5 91t-54 56.5t-70.5 29.5t-80.5 11.5t-84.5 1t-83 -1.5q-21 0 -36 14.5t-15 35.5v137q0 20 17 34t40 16zM508 1306q0 -24 -9.5 -46t-25.5 -38
t-38 -25.5t-46 -9.5t-45.5 9.5t-37.5 25.5t-25.5 38t-9.5 46t9.5 46t25.5 38t37.5 25.5t45.5 9.5t46 -9.5t38 -25.5t25.5 -38t9.5 -46z" />
    <glyph glyph-name="dalisolated" unicode="&#x62f;" horiz-adv-x="831" arabic-form="isolated" 
d="M539 384v403h-356q-22 0 -36.5 14.5t-14.5 34.5v136q0 21 14.5 36t36.5 15h356q115 0 176 -61.5t61 -200.5v-351q0 -140 -61 -201.5t-176 -61.5h-438q-22 0 -36.5 15t-14.5 36v136q0 20 14.5 35t36.5 15h438z" />
    <glyph glyph-name="dalfinal" unicode="&#x62f;" horiz-adv-x="876" arabic-form="final" 
d="M883 384v-237h-786q-21 0 -35.5 15t-14.5 36v136q0 20 14.5 35t35.5 15h439l-1 403h-334q-21 0 -35.5 14.5t-14.5 34.5v136q0 21 14.5 36t35.5 15h335q114 0 175.5 -61.5t61.5 -200.5v-377h110z" />
    <glyph glyph-name="thalisolated" unicode="&#x630;" horiz-adv-x="831" arabic-form="isolated" 
d="M539 384v403h-356q-22 0 -36.5 14.5t-14.5 34.5v136q0 21 14.5 36t36.5 15h356q115 0 176 -61.5t61 -200.5v-351q0 -140 -61 -201.5t-176 -61.5h-438q-22 0 -36.5 15t-14.5 36v136q0 20 14.5 35t36.5 15h438zM508 1306q0 -24 -9.5 -46t-25.5 -38t-38 -25.5t-46 -9.5
t-45.5 9.5t-37.5 25.5t-25.5 38t-9.5 46t9.5 46t25.5 38t37.5 25.5t45.5 9.5t46 -9.5t38 -25.5t25.5 -38t9.5 -46z" />
    <glyph glyph-name="thalfinal" unicode="&#x630;" horiz-adv-x="876" arabic-form="final" 
d="M883 384v-237h-786q-21 0 -35.5 15t-14.5 36v136q0 20 14.5 35t35.5 15h439l-1 403h-334q-21 0 -35.5 14.5t-14.5 34.5v136q0 21 14.5 36t35.5 15h335q114 0 175.5 -61.5t61.5 -200.5v-377h110zM472 1306q0 -24 -9.5 -46t-25.5 -38t-37.5 -25.5t-45.5 -9.5t-45.5 9.5
t-37.5 25.5t-25.5 38t-9.5 46t9.5 46t25.5 38t37.5 25.5t45.5 9.5t45.5 -9.5t37.5 -25.5t25.5 -38t9.5 -46z" />
    <glyph glyph-name="rehisolated" unicode="&#x631;" horiz-adv-x="624" arabic-form="isolated" 
d="M101 -95q41 3 78.5 13t68 31t52.5 56t31 88v886q0 20 13.5 32t33.5 12h155q17 0 27 -12t10 -32l-3 -796q0 -109 -29 -196.5t-82.5 -152t-129.5 -106t-169 -57.5h-1q0 -1 -2 -1q-15 -2 -30 -3.5t-29 -1.5h-12q-6 0 -14 2q-23 2 -39.5 16t-16.5 35v135q0 21 15 36.5
t36 15.5h37z" />
    <glyph glyph-name="rehfinal" unicode="&#x631;" horiz-adv-x="665" arabic-form="final" 
d="M106 -95q41 3 78.5 13t68.5 31t53 56t31 88v879q0 21 14 36t36 15h137q21 0 35.5 -15t14.5 -36l-3 -588h96v-237h-97q-12 -103 -45.5 -185t-86 -142t-123 -97.5t-155.5 -51.5l-1 -1q-16 -2 -30.5 -3.5t-29.5 -1.5h-10t-15 2q-23 2 -39.5 16t-16.5 35v135q0 21 15 36.5
t36 15.5h37z" />
    <glyph glyph-name="zainisolated" unicode="&#x632;" horiz-adv-x="624" arabic-form="isolated" 
d="M101 -95q41 3 78.5 13t68 31t52.5 56t31 88v886q0 20 13.5 32t33.5 12h155q17 0 27 -12t10 -32l-3 -796q0 -109 -29 -196.5t-82.5 -152t-129.5 -106t-169 -57.5h-1q0 -1 -2 -1q-15 -2 -30 -3.5t-29 -1.5h-12q-6 0 -14 2q-23 2 -39.5 16t-16.5 35v135q0 21 15 36.5
t36 15.5h37zM573 1306q0 -24 -9.5 -46t-25.5 -38t-38 -25.5t-46 -9.5t-45 9.5t-37 25.5t-25.5 38t-9.5 46t9.5 46t25.5 38t37 25.5t45 9.5t46 -9.5t38 -25.5t25.5 -38t9.5 -46z" />
    <glyph glyph-name="zainfinal" unicode="&#x632;" horiz-adv-x="665" arabic-form="final" 
d="M106 -95q41 3 78.5 13t68.5 31t53 56t31 88v879q0 21 14 36t36 15h137q21 0 35.5 -15t14.5 -36l-3 -588h96v-237h-97q-12 -103 -45.5 -185t-86 -142t-123 -97.5t-155.5 -51.5l-1 -1q-16 -2 -30.5 -3.5t-29.5 -1.5h-10t-15 2q-23 2 -39.5 16t-16.5 35v135q0 21 15 36.5
t36 15.5h37zM573 1306q0 -24 -9.5 -46t-25.5 -38t-38 -25.5t-46 -9.5t-45 9.5t-37 25.5t-25.5 38t-9.5 46t9.5 46t25.5 38t37 25.5t45 9.5t46 -9.5t38 -25.5t25.5 -38t9.5 -46z" />
    <glyph glyph-name="seenisolated" unicode="&#x633;" horiz-adv-x="2120" arabic-form="isolated" 
d="M1584 384h242v586q0 20 15.5 35.5t35.5 15.5h136q21 0 36.5 -15.5t15.5 -35.5v-560q0 -70 -16 -119.5t-46.5 -81.5t-75 -47t-101.5 -15h-726q-5 -103 -50.5 -192t-120 -154.5t-171 -103.5t-203.5 -38q-139 5 -237 58t-159.5 139t-89 198t-25.5 237v30q0 20 0.5 58
t0.5 111q0 21 14.5 36t35.5 15h136q21 0 36 -15t15 -36v-197q0 -43 3 -89t13.5 -90t30.5 -83.5t53.5 -69t82.5 -46.5t117 -17q91 1 147 31t86.5 76.5t40.5 103t10 110.5l-1 751q0 20 14.5 35.5t35.5 15.5h138q20 0 35 -15.5t14 -35.5v-586h244v586q0 20 15 35.5t36 15.5h136
q21 0 36 -15.5t15 -35.5v-586z" />
    <glyph glyph-name="seenfinal" unicode="&#x633;" horiz-adv-x="2170" arabic-form="final" 
d="M1586 384h243v586q0 20 14.5 35.5t35.5 15.5h136q21 0 36 -15.5t15 -35.5v-586h106v-237h-1069q-9 -108 -54.5 -199.5t-118.5 -157t-168.5 -101t-204.5 -30.5q-139 5 -236.5 58t-159 139t-89 198t-26.5 237v30q0 20 0.5 58t0.5 111q0 21 14.5 36t35.5 15h136q21 0 36 -15
t15 -36v-197q0 -43 3 -89t13.5 -90t30.5 -83.5t53.5 -69t82.5 -46.5t117 -17q91 1 147 31t86 76.5t40 103t10 110.5v751q0 20 15 35.5t36 15.5h136q21 0 36.5 -15.5t15.5 -35.5l-1 -586h243l-1 586q0 20 15 35.5t37 15.5h136q21 0 36 -15.5t15 -35.5v-586z" />
    <glyph glyph-name="seeninitial" unicode="&#x633;" horiz-adv-x="1364" arabic-form="initial" 
d="M826 384h242v586q0 20 15 35.5t36 15.5h136q20 0 35.5 -15.5t15.5 -35.5v-560q0 -70 -15.5 -119.5t-46 -81.5t-75 -47t-101.5 -15h-1073v237h115v586q0 20 14 35.5t34 15.5h137q21 0 36 -15.5t15 -35.5v-586h242v586q0 20 15 35.5t36 15.5h135q21 0 36.5 -15.5
t15.5 -35.5v-586z" />
    <glyph glyph-name="seenmedial" unicode="&#x633;" horiz-adv-x="1414" arabic-form="medial" 
d="M823 384h243v586q0 20 15 35.5t36 15.5h136q21 0 35.5 -15.5t14.5 -35.5v-586h118v-237h-1428v237h112v586q0 20 15.5 35.5t36.5 15.5h136q21 0 36.5 -15.5t15.5 -35.5v-586h241v586q0 20 15 35.5t36 15.5h136q20 0 35 -15.5t15 -35.5v-586z" />
    <glyph glyph-name="sheenisolated" unicode="&#x634;" horiz-adv-x="2120" arabic-form="isolated" 
d="M1584 384h242v586q0 20 15.5 35.5t35.5 15.5h136q21 0 36.5 -15.5t15.5 -35.5v-560q0 -70 -16 -119.5t-46.5 -81.5t-75 -47t-101.5 -15h-726q-5 -103 -50.5 -192t-120 -154.5t-171 -103.5t-203.5 -38q-139 5 -237 58t-159.5 139t-89 198t-25.5 237v30q0 20 0.5 58
t0.5 111q0 21 14.5 36t35.5 15h136q21 0 36 -15t15 -36v-197q0 -43 3 -89t13.5 -90t30.5 -83.5t53.5 -69t82.5 -46.5t117 -17q91 1 147 31t86.5 76.5t40.5 103t10 110.5l-1 751q0 20 14.5 35.5t35.5 15.5h138q20 0 35 -15.5t14 -35.5v-586h244v586q0 20 15 35.5t36 15.5h136
q21 0 36 -15.5t15 -35.5v-586zM1717 1306q0 -24 -9.5 -46t-25.5 -38t-38 -25.5t-46 -9.5t-45.5 9.5t-37.5 25.5t-25.5 38t-9.5 46t9.5 46t25.5 38t37.5 25.5t45.5 9.5t46 -9.5t38 -25.5t25.5 -38t9.5 -46zM1429 1306q0 -24 -9.5 -46t-25.5 -38t-38 -25.5t-46 -9.5t-45 9.5
t-37 25.5t-25.5 38t-9.5 46t9.5 46t25.5 38t37 25.5t45 9.5t46 -9.5t38 -25.5t25.5 -38t9.5 -46zM1576 1568q0 -24 -9.5 -46t-25.5 -38t-38 -25.5t-46 -9.5t-45.5 9.5t-37.5 25.5t-25.5 38t-9.5 46t9.5 45.5t25.5 37.5t37.5 25.5t45.5 9.5t46 -9.5t38 -25.5t25.5 -37.5
t9.5 -45.5z" />
    <glyph glyph-name="sheenfinal" unicode="&#x634;" horiz-adv-x="2170" arabic-form="final" 
d="M1586 384h243v586q0 20 14.5 35.5t35.5 15.5h136q21 0 36 -15.5t15 -35.5v-586h106v-237h-1069q-9 -108 -54.5 -199.5t-118.5 -157t-168.5 -101t-204.5 -30.5q-139 5 -236.5 58t-159 139t-89 198t-26.5 237v30q0 20 0.5 58t0.5 111q0 21 14.5 36t35.5 15h136q21 0 36 -15
t15 -36v-197q0 -43 3 -89t13.5 -90t30.5 -83.5t53.5 -69t82.5 -46.5t117 -17q91 1 147 31t86 76.5t40 103t10 110.5v751q0 20 15 35.5t36 15.5h136q21 0 36.5 -15.5t15.5 -35.5l-1 -586h243l-1 586q0 20 15 35.5t37 15.5h136q21 0 36 -15.5t15 -35.5v-586zM1708 1306
q0 -24 -9.5 -46t-25.5 -38t-38 -25.5t-46 -9.5t-46 9.5t-38 25.5t-25.5 38t-9.5 46t9.5 46t25.5 38t38 25.5t46 9.5t46 -9.5t38 -25.5t25.5 -38t9.5 -46zM1420 1306q0 -24 -9.5 -46t-25.5 -38t-38 -25.5t-46 -9.5t-45.5 9.5t-37.5 25.5t-25.5 38t-9.5 46t9.5 46t25.5 38
t37.5 25.5t45.5 9.5t46 -9.5t38 -25.5t25.5 -38t9.5 -46zM1567 1568q0 -24 -9.5 -46t-25.5 -38t-38 -25.5t-46 -9.5t-46 9.5t-38 25.5t-25.5 38t-9.5 46t9.5 45.5t25.5 37.5t38 25.5t46 9.5t46 -9.5t38 -25.5t25.5 -37.5t9.5 -45.5z" />
    <glyph glyph-name="sheeninitial" unicode="&#x634;" horiz-adv-x="1364" arabic-form="initial" 
d="M826 384h242v586q0 20 15 35.5t36 15.5h136q20 0 35.5 -15.5t15.5 -35.5v-560q0 -70 -15.5 -119.5t-46 -81.5t-75 -47t-101.5 -15h-1073v237h115v586q0 20 14 35.5t34 15.5h137q21 0 36 -15.5t15 -35.5v-586h242v586q0 20 15 35.5t36 15.5h135q21 0 36.5 -15.5
t15.5 -35.5v-586zM971 1306q0 -24 -9.5 -46t-25.5 -38t-37.5 -25.5t-45.5 -9.5t-46 9.5t-38 25.5t-25.5 38t-9.5 46t9.5 46t25.5 38t38 25.5t46 9.5t45.5 -9.5t37.5 -25.5t25.5 -38t9.5 -46zM684 1306q0 -24 -9.5 -46t-25.5 -38t-38 -25.5t-46 -9.5t-45.5 9.5t-37.5 25.5
t-25.5 38t-9.5 46t9.5 46t25.5 38t37.5 25.5t45.5 9.5t46 -9.5t38 -25.5t25.5 -38t9.5 -46zM830 1568q0 -24 -9.5 -46t-25.5 -38t-37.5 -25.5t-45.5 -9.5t-46 9.5t-38 25.5t-25.5 38t-9.5 46t9.5 45.5t25.5 37.5t38 25.5t46 9.5t45.5 -9.5t37.5 -25.5t25.5 -37.5t9.5 -45.5z
" />
    <glyph glyph-name="sheenmedial" unicode="&#x634;" horiz-adv-x="1414" arabic-form="medial" 
d="M823 384h243v586q0 20 15 35.5t36 15.5h136q21 0 35.5 -15.5t14.5 -35.5v-586h118v-237h-1428v237h112v586q0 20 15.5 35.5t36.5 15.5h136q21 0 36.5 -15.5t15.5 -35.5v-586h241v586q0 20 15 35.5t36 15.5h136q20 0 35 -15.5t15 -35.5v-586zM971 1306q0 -24 -9.5 -46
t-25.5 -38t-37.5 -25.5t-45.5 -9.5t-46 9.5t-38 25.5t-25.5 38t-9.5 46t9.5 46t25.5 38t38 25.5t46 9.5t45.5 -9.5t37.5 -25.5t25.5 -38t9.5 -46zM684 1306q0 -24 -9.5 -46t-25.5 -38t-38 -25.5t-46 -9.5t-45.5 9.5t-37.5 25.5t-25.5 38t-9.5 46t9.5 46t25.5 38t37.5 25.5
t45.5 9.5t46 -9.5t38 -25.5t25.5 -38t9.5 -46zM830 1568q0 -24 -9.5 -46t-25.5 -38t-37.5 -25.5t-45.5 -9.5t-46 9.5t-38 25.5t-25.5 38t-9.5 46t9.5 45.5t25.5 37.5t38 25.5t46 9.5t45.5 -9.5t37.5 -25.5t25.5 -37.5t9.5 -45.5z" />
    <glyph glyph-name="sadisolated" unicode="&#x635;" horiz-adv-x="2099" arabic-form="isolated" 
d="M1822 863q114 0 175 -61t61 -201v-191q0 -70 -15.5 -119.5t-45.5 -81.5t-74 -47t-101 -15h-722q-9 -108 -56 -199t-120.5 -156.5t-168.5 -100.5t-201 -32q-139 5 -237 57.5t-159.5 138t-89 197.5t-26.5 237q0 11 0.5 23.5t0.5 34.5v56v87q0 21 14.5 36t35.5 15h137
q21 0 36 -15t15 -36v-196q-1 -43 2.5 -89t14 -90t30.5 -83.5t53.5 -69.5t82 -47t116.5 -17q92 1 148.5 31t87 76.5t40.5 103t10 110.5l-3 382q0 140 61.5 201t176.5 61h721zM1822 384l-1 243h-720v-243h721z" />
    <glyph glyph-name="sadfinal" unicode="&#x635;" horiz-adv-x="2165" arabic-form="final" 
d="M2062 384h107v-237h-1067q-7 -108 -53 -198.5t-119.5 -156t-169.5 -101t-203 -32.5q-139 5 -236.5 58t-159 139t-89 198t-26.5 237v30q0 20 0.5 58t0.5 111q0 21 15 36t35 15h136q21 0 36 -15t15 -36v-197q0 -43 3 -89t13.5 -90t30.5 -83.5t53.5 -69t82.5 -46.5t117 -17
q91 1 147 31t86.5 76.5t40.5 103t10 110.5v23q0 13 -1 21v338q0 140 61 201t175 61h721q58 0 102.5 -14.5t74.5 -46t45.5 -81.5t15.5 -120v-217zM1824 384v243h-719v-243h719z" />
    <glyph glyph-name="sadinitial" unicode="&#x635;" horiz-adv-x="1354" arabic-form="initial" 
d="M-3 384h103v588q0 21 15 36t36 15h135q21 0 36.5 -15t15.5 -36v-109h720q114 0 175.5 -61t61.5 -201v-191q0 -70 -15.5 -119.5t-45.5 -81.5t-74.5 -47t-101.5 -15h-1061v237zM1058 384v243h-720v-243h720z" />
    <glyph glyph-name="sadmedial" unicode="&#x635;" horiz-adv-x="1389" arabic-form="medial" 
d="M1395 384v-237h-1402v237h103v588q0 21 15 36t37 15h136q20 0 35.5 -15t15.5 -36v-109h719q115 0 175.5 -61t60.5 -201v-217h105zM1054 384v243h-719v-243h719z" />
    <glyph glyph-name="dadisolated" unicode="&#x636;" horiz-adv-x="2099" arabic-form="isolated" 
d="M1822 863q114 0 175 -61t61 -201v-191q0 -70 -15.5 -119.5t-45.5 -81.5t-74 -47t-101 -15h-722q-9 -108 -56 -199t-120.5 -156.5t-168.5 -100.5t-201 -32q-139 5 -237 57.5t-159.5 138t-89 197.5t-26.5 237q0 11 0.5 23.5t0.5 34.5v56v87q0 21 14.5 36t35.5 15h137
q21 0 36 -15t15 -36v-196q-1 -43 2.5 -89t14 -90t30.5 -83.5t53.5 -69.5t82 -47t116.5 -17q92 1 148.5 31t87 76.5t40.5 103t10 110.5l-3 382q0 140 61.5 201t176.5 61h721zM1822 384l-1 243h-720v-243h721zM1559 1140q0 -24 -9.5 -45.5t-25.5 -37.5t-38 -25.5t-46 -9.5
t-45.5 9.5t-37.5 25.5t-25.5 37.5t-9.5 45.5t9.5 46t25.5 38t37.5 25.5t45.5 9.5t46 -9.5t38 -25.5t25.5 -38t9.5 -46z" />
    <glyph glyph-name="dadfinal" unicode="&#x636;" horiz-adv-x="2165" arabic-form="final" 
d="M2062 384h107v-237h-1067q-7 -108 -53 -198.5t-119.5 -156t-169.5 -101t-203 -32.5q-139 5 -236.5 58t-159 139t-89 198t-26.5 237v30q0 20 0.5 58t0.5 111q0 21 15 36t35 15h136q21 0 36 -15t15 -36v-197q0 -43 3 -89t13.5 -90t30.5 -83.5t53.5 -69t82.5 -46.5t117 -17
q91 1 147 31t86.5 76.5t40.5 103t10 110.5v23q0 13 -1 21v338q0 140 61 201t175 61h721q58 0 102.5 -14.5t74.5 -46t45.5 -81.5t15.5 -120v-217zM1824 384v243h-719v-243h719zM1580 1140q0 -24 -9.5 -45.5t-25.5 -37.5t-38 -25.5t-46 -9.5t-45.5 9.5t-37.5 25.5t-25.5 37.5
t-9.5 45.5t9.5 46t25.5 38t37.5 25.5t45.5 9.5t46 -9.5t38 -25.5t25.5 -38t9.5 -46z" />
    <glyph glyph-name="dadinitial" unicode="&#x636;" horiz-adv-x="1354" arabic-form="initial" 
d="M-3 384h103v588q0 21 15 36t36 15h135q21 0 36.5 -15t15.5 -36v-109h720q114 0 175.5 -61t61.5 -201v-191q0 -70 -15.5 -119.5t-45.5 -81.5t-74.5 -47t-101.5 -15h-1061v237zM1058 384v243h-720v-243h720zM810 1140q0 -24 -9.5 -45.5t-25.5 -37.5t-37.5 -25.5t-45.5 -9.5
t-46 9.5t-38 25.5t-25.5 37.5t-9.5 45.5t9.5 46t25.5 38t38 25.5t46 9.5t45.5 -9.5t37.5 -25.5t25.5 -38t9.5 -46z" />
    <glyph glyph-name="dadmedial" unicode="&#x636;" horiz-adv-x="1389" arabic-form="medial" 
d="M1395 384v-237h-1402v237h103v588q0 21 15 36t37 15h136q20 0 35.5 -15t15.5 -36v-109h719q115 0 175.5 -61t60.5 -201v-217h105zM1054 384v243h-719v-243h719zM810 1140q0 -24 -9.5 -45.5t-25.5 -37.5t-37.5 -25.5t-45.5 -9.5t-46 9.5t-38 25.5t-25.5 37.5t-9.5 45.5
t9.5 46t25.5 38t38 25.5t46 9.5t45.5 -9.5t37.5 -25.5t25.5 -38t9.5 -46z" />
    <glyph glyph-name="tahisolated" unicode="&#x637;" horiz-adv-x="1490" arabic-form="isolated" 
d="M242 1291q0 21 14.5 36t34.5 15h136q21 0 36 -15t15 -36v-428h720q58 0 102 -14.5t74 -46t45.5 -81.5t15.5 -120v-191q1 -140 -60.5 -201.5t-176.5 -61.5h-1101q-20 0 -35 15t-15 36v136q0 20 15 35t35 15h145v907zM1198 384v243h-720v-243h720z" />
    <glyph glyph-name="tahfinal" unicode="&#x637;" horiz-adv-x="1530" arabic-form="final" 
d="M1433 384h102v-237h-1440q-21 0 -35.5 15t-14.5 36v136q0 20 14.5 35t35.5 15h143v907q0 21 15.5 36t36.5 15h135q20 0 35.5 -15t15.5 -36v-428h720q115 0 175.5 -61t61.5 -201v-217zM1196 384v243h-720v-243h720z" />
    <glyph glyph-name="tahinitial" unicode="&#x637;" horiz-adv-x="1355" arabic-form="initial" 
d="M-3 384h102v907q0 21 15 36t37 15h134q22 0 37.5 -15t15.5 -36v-428h718q58 0 102.5 -14.5t74.5 -46t45.5 -81.5t15.5 -120v-191q0 -70 -15.5 -119.5t-45.5 -81.5t-74 -47t-101 -15h-1061v237zM1056 384v243h-720v-243h720z" />
    <glyph glyph-name="tahmedial" unicode="&#x637;" horiz-adv-x="1394" arabic-form="medial" 
d="M-5 384h108v907q0 21 14 36t36 15h137q21 0 35.5 -15t14.5 -36v-428h720q58 0 102 -14.5t74 -46t45.5 -81.5t15.5 -120v-217h103v-237h-1405v237zM1060 384v243h-720v-243h720z" />
    <glyph glyph-name="zahisolated" unicode="&#x638;" horiz-adv-x="1490" arabic-form="isolated" 
d="M242 1291q0 21 14.5 36t34.5 15h136q21 0 36 -15t15 -36v-428h720q58 0 102 -14.5t74 -46t45.5 -81.5t15.5 -120v-191q1 -140 -60.5 -201.5t-176.5 -61.5h-1101q-20 0 -35 15t-15 36v136q0 20 15 35t35 15h145v907zM1198 384v243h-720v-243h720zM972 1140
q0 -24 -9.5 -45.5t-25.5 -37.5t-37.5 -25.5t-46.5 -9.5q-24 0 -45.5 9.5t-37.5 25.5t-25.5 37.5t-9.5 45.5t9.5 46t25.5 38t37.5 25.5t45.5 9.5q25 0 46.5 -9.5t37.5 -25.5t25.5 -38t9.5 -46z" />
    <glyph glyph-name="zahfinal" unicode="&#x638;" horiz-adv-x="1530" arabic-form="final" 
d="M1433 384h102v-237h-1440q-21 0 -35.5 15t-14.5 36v136q0 20 14.5 35t35.5 15h143v907q0 21 15.5 36t36.5 15h135q20 0 35.5 -15t15.5 -36v-428h720q115 0 175.5 -61t61.5 -201v-217zM1196 384v243h-720v-243h720zM962 1140q0 -24 -9.5 -45.5t-25.5 -37.5t-37.5 -25.5
t-45.5 -9.5t-45.5 9.5t-37.5 25.5t-25.5 37.5t-9.5 45.5t9.5 46t25.5 38t37.5 25.5t45.5 9.5t45.5 -9.5t37.5 -25.5t25.5 -38t9.5 -46z" />
    <glyph glyph-name="zahinitial" unicode="&#x638;" horiz-adv-x="1355" arabic-form="initial" 
d="M-3 384h102v907q0 21 15 36t37 15h134q22 0 37.5 -15t15.5 -36v-428h718q58 0 102.5 -14.5t74.5 -46t45.5 -81.5t15.5 -120v-191q0 -70 -15.5 -119.5t-45.5 -81.5t-74 -47t-101 -15h-1061v237zM1056 384v243h-720v-243h720zM826 1140q0 -24 -9.5 -45.5t-26 -37.5
t-38 -25.5t-46.5 -9.5q-24 0 -45.5 9.5t-37 25.5t-25 37.5t-9.5 45.5t9.5 46t25 38t37 25.5t45.5 9.5q25 0 46.5 -9.5t38 -25.5t26 -38t9.5 -46z" />
    <glyph glyph-name="zahmedial" unicode="&#x638;" horiz-adv-x="1394" arabic-form="medial" 
d="M-5 384h108v907q0 21 14 36t36 15h137q21 0 35.5 -15t14.5 -36v-428h720q58 0 102 -14.5t74 -46t45.5 -81.5t15.5 -120v-217h103v-237h-1405v237zM1060 384v243h-720v-243h720zM837 1140q0 -24 -9.5 -45.5t-25.5 -37.5t-38 -25.5t-46 -9.5t-45.5 9.5t-37.5 25.5
t-25.5 37.5t-9.5 45.5t9.5 46t25.5 38t37.5 25.5t45.5 9.5t46 -9.5t38 -25.5t25.5 -38t9.5 -46z" />
    <glyph glyph-name="ainisolated" unicode="&#x639;" horiz-adv-x="977" arabic-form="isolated" 
d="M185 761q0 139 61 200.5t175 61.5h439q20 0 35.5 -15t15.5 -36v-136q0 -20 -15.5 -34.5t-35.5 -14.5h-438v-308q52 6 85 8t54 2h298q21 0 36 -14.5t15 -35.5v-136q0 -21 -15 -35.5t-36 -14.5l-266 -1h-20q-24 0 -49.5 -0.5t-50.5 -6.5h1q-32 -7 -61 -19.5t-52.5 -34
t-40.5 -53t-25 -75.5v-60q11 -62 39 -100t67 -58t85.5 -26.5t95.5 -6.5h32t32 1t27 1h26q20 0 35.5 -14.5t15.5 -35.5v-137q0 -20 -17 -32t-40 -17q-126 -27 -236.5 -8.5t-195.5 70t-139.5 130t-69 172t16 195t116.5 199.5v425z" />
    <glyph glyph-name="ainfinal" unicode="&#x639;" horiz-adv-x="1007" arabic-form="final" 
d="M219 619q-3 8 -6.5 17t-7.5 17v-2q-21 51 -38 100.5t-17 102.5q0 11 0.5 21t1.5 19q7 40 30.5 65.5t57.5 39.5t74.5 19t80.5 5h280q40 0 78 -5.5t70.5 -20.5t57 -41.5t36.5 -67.5q8 -26 11.5 -52.5t3.5 -52.5q0 -35 -12 -74.5t-32 -79t-46.5 -77.5t-55 -70.5t-57.5 -58
t-55 -39.5h338v-237h-493q-23 -3 -42 4t-34.5 19.5t-28 28.5t-21.5 31q-122 -91 -122 -227q11 -62 39.5 -100t67.5 -58t86 -26.5t95 -6.5h31q17 0 32 1q14 1 26 1h26q21 0 36 -14.5t15 -35.5v-137q0 -20 -17 -33.5t-40 -15.5q-27 -4 -50.5 -5.5t-45.5 -1.5q-108 0 -199 31
t-159 88t-112 138.5t-59 183.5v42q16 118 79.5 218t169.5 167zM494 496q47 30 81 60.5t58 65.5t39.5 75.5t24.5 89.5h-329z" />
    <glyph glyph-name="aininitial" unicode="&#x639;" horiz-adv-x="886" arabic-form="initial" 
d="M-6 384h110v377q1 139 62 200.5t175 61.5h379q21 0 35.5 -15t14.5 -36v-136q0 -20 -14.5 -34.5t-35.5 -14.5h-379v-403h439q21 0 35.5 -15t14.5 -35v-136q0 -21 -14.5 -36t-35.5 -15h-786v237z" />
    <glyph glyph-name="ainmedial" unicode="&#x639;" horiz-adv-x="1047" arabic-form="medial" 
d="M261 384q-5 12 -14.5 34.5t-19.5 47t-19 46t-13 32.5q-24 59 -43 105.5t-31.5 83.5t-19 67t-6.5 57q0 10 0.5 19.5t1.5 17.5q7 40 30.5 65.5t57 39.5t74 19t80.5 5h370q40 0 80.5 -5t74 -19t57 -39.5t29.5 -65.5q3 -18 3 -40q0 -53 -17.5 -102.5t-38.5 -100.5v2
l-109 -269h268v-237h-1065v237h270zM347 787l178 -417l197 417h-375z" />
    <glyph glyph-name="ghainisolated" unicode="&#x63a;" horiz-adv-x="977" arabic-form="isolated" 
d="M185 761q0 139 61 200.5t175 61.5h439q20 0 35.5 -15t15.5 -36v-136q0 -20 -15.5 -34.5t-35.5 -14.5h-438v-308q52 6 85 8t54 2h298q21 0 36 -14.5t15 -35.5v-136q0 -21 -15 -35.5t-36 -14.5l-266 -1h-20q-24 0 -49.5 -0.5t-50.5 -6.5h1q-32 -7 -61 -19.5t-52.5 -34
t-40.5 -53t-25 -75.5v-60q11 -62 39 -100t67 -58t85.5 -26.5t95.5 -6.5h32t32 1t27 1h26q20 0 35.5 -14.5t15.5 -35.5v-137q0 -20 -17 -32t-40 -17q-126 -27 -236.5 -8.5t-195.5 70t-139.5 130t-69 172t16 195t116.5 199.5v425zM685 1306q0 -24 -9.5 -46t-26 -38t-38 -25.5
t-46.5 -9.5q-24 0 -45.5 9.5t-37 25.5t-25 38t-9.5 46t9.5 46t25 38t37 25.5t45.5 9.5q25 0 46.5 -9.5t38 -25.5t26 -38t9.5 -46z" />
    <glyph glyph-name="ghainfinal" unicode="&#x63a;" horiz-adv-x="1007" arabic-form="final" 
d="M219 619q-3 8 -6.5 17t-7.5 17v-2q-21 51 -38 100.5t-17 102.5q0 11 0.5 21t1.5 19q7 40 30.5 65.5t57.5 39.5t74.5 19t80.5 5h280q40 0 78 -5.5t70.5 -20.5t57 -41.5t36.5 -67.5q8 -26 11.5 -52.5t3.5 -52.5q0 -35 -12 -74.5t-32 -79t-46.5 -77.5t-55 -70.5t-57.5 -58
t-55 -39.5h338v-237h-493q-23 -3 -42 4t-34.5 19.5t-28 28.5t-21.5 31q-122 -91 -122 -227q11 -62 39.5 -100t67.5 -58t86 -26.5t95 -6.5h31q17 0 32 1q14 1 26 1h26q21 0 36 -14.5t15 -35.5v-137q0 -20 -17 -33.5t-40 -15.5q-27 -4 -50.5 -5.5t-45.5 -1.5q-108 0 -199 31
t-159 88t-112 138.5t-59 183.5v42q16 118 79.5 218t169.5 167zM494 496q47 30 81 60.5t58 65.5t39.5 75.5t24.5 89.5h-329zM645 1306q0 -24 -9.5 -46t-26 -38t-38 -25.5t-46.5 -9.5q-24 0 -45.5 9.5t-37.5 25.5t-25.5 38t-9.5 46t9.5 46t25.5 38t37.5 25.5t45.5 9.5
q25 0 46.5 -9.5t38 -25.5t26 -38t9.5 -46z" />
    <glyph glyph-name="ghaininitial" unicode="&#x63a;" horiz-adv-x="886" arabic-form="initial" 
d="M-6 384h110v377q1 139 62 200.5t175 61.5h379q21 0 35.5 -15t14.5 -36v-136q0 -20 -14.5 -34.5t-35.5 -14.5h-379v-403h439q21 0 35.5 -15t14.5 -35v-136q0 -21 -14.5 -36t-35.5 -15h-786v237zM579 1306q0 -24 -9.5 -46t-25.5 -38t-38 -25.5t-46 -9.5t-45.5 9.5
t-37.5 25.5t-25.5 38t-9.5 46t9.5 46t25.5 38t37.5 25.5t45.5 9.5t46 -9.5t38 -25.5t25.5 -38t9.5 -46z" />
    <glyph glyph-name="ghainmedial" unicode="&#x63a;" horiz-adv-x="1047" arabic-form="medial" 
d="M261 384q-5 12 -14.5 34.5t-19.5 47t-19 46t-13 32.5q-24 59 -43 105.5t-31.5 83.5t-19 67t-6.5 57q0 10 0.5 19.5t1.5 17.5q7 40 30.5 65.5t57 39.5t74 19t80.5 5h370q40 0 80.5 -5t74 -19t57 -39.5t29.5 -65.5q3 -18 3 -40q0 -53 -17.5 -102.5t-38.5 -100.5v2
l-109 -269h268v-237h-1065v237h270zM347 787l178 -417l197 417h-375zM642 1306q0 -24 -9.5 -46t-25.5 -38t-37.5 -25.5t-45.5 -9.5t-46 9.5t-38 25.5t-25.5 38t-9.5 46t9.5 46t25.5 38t38 25.5t46 9.5t45.5 -9.5t37.5 -25.5t25.5 -38t9.5 -46z" />
    <glyph glyph-name="fehisolated" unicode="&#x641;" horiz-adv-x="1284" arabic-form="isolated" 
d="M282 384h235v377q0 139 60.5 200.5t175.5 61.5h242q115 0 176 -61.5t61 -200.5v-351q0 -70 -15.5 -119.5t-45.5 -81.5t-74 -47t-101 -15h-715q-57 0 -101 15t-74.5 47t-46 81.5t-15.5 119.5v80q0 20 14.5 35t35.5 15h136q22 0 37 -15t15 -35v-106zM753 384h242v403h-242
v-403zM995 1306q0 -24 -9.5 -46t-25.5 -38t-38 -25.5t-46 -9.5t-45.5 9.5t-37 25.5t-25 38t-9.5 46t9.5 46t25 38t37 25.5t45.5 9.5t46 -9.5t38 -25.5t25.5 -38t9.5 -46z" />
    <glyph glyph-name="fehfinal" unicode="&#x641;" horiz-adv-x="1404" arabic-form="final" 
d="M302 384h288v377q0 139 61 200.5t175 61.5h243q114 0 175 -61.5t61 -200.5v-377h105v-237h-1109q-57 0 -101 15t-74.5 47t-46 81.5t-15.5 119.5v80q0 20 14.5 35t35.5 15h136q22 0 37 -15t15 -35v-106zM1069 384v403h-242v-403h242zM1067 1306q0 -24 -9.5 -46t-25.5 -38
t-38 -25.5t-46 -9.5t-46 9.5t-38 25.5t-25.5 38t-9.5 46t9.5 46t25.5 38t38 25.5t46 9.5t46 -9.5t38 -25.5t25.5 -38t9.5 -46z" />
    <glyph glyph-name="fehinitial" unicode="&#x641;" horiz-adv-x="876" arabic-form="initial" 
d="M-3 384h104v377q0 139 61 200.5t176 61.5h242q115 0 176 -61.5t61 -200.5v-351q0 -70 -15.5 -119.5t-45.5 -81.5t-74 -47t-101 -15h-584v237zM580 384v403h-242v-403h242zM584 1306q0 -24 -9.5 -46t-25.5 -38t-38 -25.5t-46 -9.5t-45.5 9.5t-37.5 25.5t-25.5 38t-9.5 46
t9.5 46t25.5 38t37.5 25.5t45.5 9.5t46 -9.5t38 -25.5t25.5 -38t9.5 -46z" />
    <glyph glyph-name="fehmedial" unicode="&#x641;" horiz-adv-x="921" arabic-form="medial" 
d="M818 384h106v-237h-927v237h105v377q0 139 61 200.5t175 61.5h243q114 0 175.5 -61.5t61.5 -200.5v-377zM581 384l-1 403h-242v-403h243zM579 1306q0 -24 -9.5 -46t-25.5 -38t-38 -25.5t-46 -9.5t-45.5 9.5t-37.5 25.5t-25.5 38t-9.5 46t9.5 46t25.5 38t37.5 25.5
t45.5 9.5t46 -9.5t38 -25.5t25.5 -38t9.5 -46z" />
    <glyph glyph-name="qafisolated" unicode="&#x642;" horiz-adv-x="1311" arabic-form="isolated" 
d="M1248 191q-1 -73 -26 -141t-67.5 -127t-100.5 -107.5t-125 -83.5t-140.5 -54t-147.5 -19q-138 5 -244.5 58t-178 139t-108 198t-34.5 237v199q0 21 14 36t36 15h137q21 0 35 -15.5t15 -36.5v-196q-1 -43 6.5 -89t24.5 -90t44.5 -83.5t67 -69t92.5 -46.5t121 -17
q76 1 134 22.5t98.5 56t65 79t35.5 91.5h-234q-57 0 -101 15t-74 47t-45.5 81.5t-15.5 119.5v351q0 139 61 200.5t175 61.5h243q114 0 175.5 -61.5t61.5 -200.5v-570zM1009 384v225h2v178h-242v-403h240zM858 1306q0 -24 -9.5 -46t-25.5 -38t-38 -25.5t-46 -9.5t-45 9.5
t-37 25.5t-25.5 38t-9.5 46t9.5 46t25.5 38t37 25.5t45 9.5t46 -9.5t38 -25.5t25.5 -38t9.5 -46zM1146 1306q0 -24 -9.5 -46t-25.5 -38t-38 -25.5t-46 -9.5t-45.5 9.5t-37.5 25.5t-25.5 38t-9.5 46t9.5 46t25.5 38t37.5 25.5t45.5 9.5t46 -9.5t38 -25.5t25.5 -38t9.5 -46z
" />
    <glyph glyph-name="qaffinal" unicode="&#x642;" horiz-adv-x="1387" arabic-form="final" 
d="M1392 384v-237h-147q-8 -68 -36.5 -130.5t-72 -117t-100 -98.5t-121 -75.5t-134.5 -49t-140 -17.5q-138 5 -244.5 58t-178 139t-108 198t-34.5 237v199q0 21 14 36t36 15h137q21 0 35 -15.5t15 -36.5v-196q-1 -43 6.5 -89t24.5 -90t44.5 -83.5t67 -69t92.5 -46.5t121 -17
q76 1 134 22.5t98.5 56t65 79t35.5 91.5h-234q-57 0 -101 15t-74 47t-45.5 81.5t-15.5 119.5v351q0 139 61 200.5t175 61.5h243q114 0 175.5 -61.5t61.5 -200.5v-377h144zM1009 609h2v178h-242v-403h240v225zM1146 1306q0 -24 -9.5 -46t-25.5 -38t-38 -25.5t-46 -9.5
t-45.5 9.5t-37.5 25.5t-25.5 38t-9.5 46t9.5 46t25.5 38t37.5 25.5t45.5 9.5t46 -9.5t38 -25.5t25.5 -38t9.5 -46zM858 1306q0 -24 -9.5 -46t-25.5 -38t-38 -25.5t-46 -9.5t-45 9.5t-37 25.5t-25.5 38t-9.5 46t9.5 46t25.5 38t37 25.5t45 9.5t46 -9.5t38 -25.5t25.5 -38
t9.5 -46z" />
    <glyph glyph-name="qafinitial" unicode="&#x642;" horiz-adv-x="881" arabic-form="initial" 
d="M-3 384h104v377q0 139 61 200.5t176 61.5h242q115 0 176 -61.5t61 -200.5v-351q0 -70 -15.5 -119.5t-45.5 -81.5t-74 -47t-101 -15h-584v237zM580 384v403h-242v-403h242zM432 1306q0 -24 -9.5 -46t-25.5 -38t-38 -25.5t-46 -9.5t-45 9.5t-37 25.5t-25.5 38t-9.5 46
t9.5 46t25.5 38t37 25.5t45 9.5t46 -9.5t38 -25.5t25.5 -38t9.5 -46zM720 1306q0 -24 -9.5 -46t-25.5 -38t-38 -25.5t-46 -9.5t-45.5 9.5t-37.5 25.5t-25.5 38t-9.5 46t9.5 46t25.5 38t37.5 25.5t45.5 9.5t46 -9.5t38 -25.5t25.5 -38t9.5 -46z" />
    <glyph glyph-name="qafmedial" unicode="&#x642;" horiz-adv-x="911" arabic-form="medial" 
d="M813 384h107v-237h-928v237h105v377q0 139 61 200.5t175 61.5h243q115 0 176 -61.5t61 -200.5v-377zM576 384l-1 403h-242v-403h243zM427 1306q0 -24 -9.5 -46t-25.5 -38t-37.5 -25.5t-45.5 -9.5t-45.5 9.5t-37.5 25.5t-25.5 38t-9.5 46t9.5 46t25.5 38t37.5 25.5
t45.5 9.5t45.5 -9.5t37.5 -25.5t25.5 -38t9.5 -46zM715 1306q0 -24 -9.5 -46t-25.5 -38t-38 -25.5t-46 -9.5t-45.5 9.5t-37.5 25.5t-25.5 38t-9.5 46t9.5 46t25.5 38t37.5 25.5t45.5 9.5t46 -9.5t38 -25.5t25.5 -38t9.5 -46z" />
    <glyph glyph-name="kafisolated" unicode="&#x643;" horiz-adv-x="1379" arabic-form="isolated" 
d="M1087 384v243h-902q-20 0 -35 14.5t-15 35.5q0 57 -0.5 113t-0.5 113q16 99 60.5 180t112.5 138.5t157 89.5t196 32q46 0 100 -6q23 -2 40 -16t17 -35v-136q0 -21 -15.5 -35.5t-35.5 -14.5q-30 0 -59 1t-59 1q-47 0 -93 -8t-86 -33t-71 -72t-47 -126h736q115 0 176.5 -61
t61.5 -201l-2 -403q0 -21 -14.5 -36t-35.5 -15h-1177q-20 0 -35 15t-15 36v136q0 20 15 35t35 15h991z" />
    <glyph glyph-name="arabickaffinal" unicode="&#x643;" horiz-adv-x="1435" arabic-form="final" 
d="M1441 147h-1337q-20 0 -34.5 15t-14.5 36v136q0 20 14.5 35t34.5 15h992v243h-902q-21 0 -36 14.5t-15 35.5v226q16 99 60 180t112 138.5t157.5 89.5t196.5 32q46 0 100 -6q23 -2 40 -16t17 -35v-136q0 -21 -15.5 -35.5t-36.5 -14.5q-28 0 -58 1t-59 1q-47 0 -93 -8
t-86 -33t-71.5 -72t-47.5 -126h737q114 0 176 -61t62 -201v-217h107v-237z" />
    <glyph glyph-name="kafinitial" unicode="&#x643;" horiz-adv-x="1339" arabic-form="initial" 
d="M1041 384v243h-902q-21 0 -36 14.5t-15 35.5v226q16 99 60 180t112.5 138.5t158 89.5t195.5 32q46 0 100 -6q23 -2 40 -16t17 -35v-136q0 -21 -15 -35.5t-36 -14.5q-27 0 -58 1t-59 1q-47 0 -93.5 -8t-86.5 -33t-71.5 -72t-47.5 -126h737q58 0 102 -14.5t74 -46
t45.5 -81.5t15.5 -120l-1 -403q0 -21 -15 -36t-36 -15h-1229v237h1044z" />
    <glyph glyph-name="kafmedial" unicode="&#x643;" horiz-adv-x="1380" arabic-form="medial" 
d="M1386 147h-1394v237h1049v243h-902q-21 0 -37 14.5t-16 35.5q0 57 0.5 113t0.5 113q15 101 58.5 182.5t112 138.5t158.5 88t198 31q45 0 99 -6q23 -2 40 -16t17 -35v-136q0 -21 -15.5 -35.5t-35.5 -14.5q-28 0 -58 1t-59 1q-47 0 -93.5 -8t-86.5 -33t-71 -72t-47 -126
h737q58 0 102 -14.5t74 -46t45.5 -81.5t15.5 -120v-217h108v-237z" />
    <glyph glyph-name="lamisolated" unicode="&#x644;" horiz-adv-x="1182" arabic-form="isolated" 
d="M1112 191q-4 -110 -48.5 -207.5t-118.5 -170.5t-172 -115t-209 -39q-144 2 -242 54t-158 138t-86 200t-24 240v199q0 21 14.5 36t35.5 15h135q21 0 36.5 -15.5t15.5 -36.5v-195q0 -43 3 -89t14 -90t31 -83.5t53.5 -69.5t82 -47t116.5 -17q91 1 147 31t86.5 76.5t40.5 103
t10 110.5v23q0 13 -1 21v1028q0 21 15 36t36 15h136q21 0 36 -15t15 -36v-1100z" />
    <glyph glyph-name="lamfinal" unicode="&#x644;" horiz-adv-x="1219" arabic-form="final" 
d="M1108 147q-18 -104 -68 -193t-123 -154.5t-163.5 -103t-190.5 -37.5q-140 5 -237.5 58t-159 139t-89.5 198t-27 237v30q0 20 1.5 58t1.5 111q0 21 14.5 36t34.5 15h136q21 0 36.5 -15t15.5 -36v-197q0 -43 3 -89t13.5 -90t30.5 -83.5t53 -69t82 -46.5t117 -17
q91 1 147 31t86.5 76.5t40.5 103t10 110.5v44v1028q0 21 14.5 36t35.5 15h137q20 0 35 -15t15 -36l-2 -907h113v-237h-113z" />
    <glyph glyph-name="laminitial" unicode="&#x644;" horiz-adv-x="403" arabic-form="initial" 
d="M96 384v907q0 21 15 36t36 15h136q21 0 35 -15t14 -36v-881q0 -70 -15.5 -119.5t-45.5 -81.5t-74 -47t-101 -15h-103v237h103z" />
    <glyph glyph-name="lammedial" unicode="&#x644;" horiz-adv-x="433" arabic-form="medial" 
d="M97 384v907q0 21 15 36t36 15h136q20 0 35.5 -15t15.5 -36v-907h101v-237h-442v237h103z" />
    <glyph glyph-name="meemisolated" unicode="&#x645;" horiz-adv-x="1158" arabic-form="isolated" 
d="M864 384v403h-242v-403h242zM49 -106q-2 14 -1.5 25.5t0.5 23.5q0 61 18 129t57.5 130.5t104 114t157.5 80.5v364q0 139 61 200.5t176 61.5h242q114 0 175 -61.5t62 -200.5v-351q0 -70 -15.5 -119.5t-46 -81.5t-74.5 -47t-101 -15h-258q-8 1 -19 1h-20q-283 0 -283 -282
v-19t1 -19v-135q0 -21 -14.5 -35t-35.5 -14h-136q-21 0 -35.5 14t-14.5 35v201z" />
    <glyph glyph-name="meemfinal" unicode="&#x645;" horiz-adv-x="1213" arabic-form="final" 
d="M866 384v403h-242v-403h242zM1102 384h116v-237h-610q-7 1 -19 1h-19q-284 0 -284 -283v-19q0 -10 2 -18v-135q0 -21 -15.5 -35t-35.5 -14h-136q-21 0 -36 14t-15 35v201q-1 12 -0.5 24t0.5 23q0 61 18 129.5t57.5 131.5t104 114.5t157.5 80.5v364q0 139 61 200.5
t175 61.5h243q115 0 175.5 -61.5t60.5 -200.5v-377z" />
    <glyph glyph-name="meeminitial" unicode="&#x645;" horiz-adv-x="876" arabic-form="initial" 
d="M580 384v403h-242v-403h242zM-3 384h104v377q0 139 61 200.5t176 61.5h242q115 0 176 -61.5t61 -200.5v-351q0 -70 -15.5 -119.5t-45.5 -81.5t-74 -47t-101 -15h-584v237z" />
    <glyph glyph-name="meemmedial" unicode="&#x645;" horiz-adv-x="921" arabic-form="medial" 
d="M581 384l-1 403h-242v-403h243zM818 384h106v-237h-927v237h105v377q0 139 61 200.5t175 61.5h243q114 0 175.5 -61.5t61.5 -200.5v-377z" />
    <glyph glyph-name="noonisolated" unicode="&#x646;" horiz-adv-x="1178" arabic-form="isolated" 
d="M1112 190v1q-1 -73 -21.5 -141t-56.5 -127t-86 -107.5t-110.5 -83.5t-129.5 -54t-143 -19q-138 5 -235.5 58t-159 139t-89 198t-25.5 237v199q0 21 14 36t36 15h137q21 0 35 -15.5t15 -36.5v-196q-1 -43 2.5 -89t14 -90t30.5 -83.5t53.5 -69t82.5 -46.5t117 -17
q91 1 147 31t86.5 76.5t40.5 103t10 110.5v23q0 13 -1 21v707q0 20 15.5 35.5t35.5 15.5h136q21 0 36.5 -15.5t14.5 -35.5zM659 1156q0 -25 -9.5 -46.5t-25.5 -37.5t-37.5 -25.5t-45.5 -9.5t-45.5 9.5t-37.5 25.5t-25.5 37.5t-9.5 46.5q0 24 9.5 46t25.5 38t37.5 25.5
t45.5 9.5t45.5 -9.5t37.5 -25.5t25.5 -38t9.5 -46z" />
    <glyph glyph-name="noonfinal" unicode="&#x646;" horiz-adv-x="1208" arabic-form="final" 
d="M1107 147q-18 -104 -68.5 -193t-123 -154.5t-163.5 -103t-191 -37.5q-139 5 -236.5 58t-159 139t-89 198t-26.5 237v30v169q0 21 15 36t37 15h135q20 0 35.5 -15t15.5 -36v-197q-1 -43 2.5 -89t13.5 -90t30 -83.5t53.5 -69t82.5 -46.5t118 -17q92 1 148 31t86.5 76.5
t40.5 103t10 110.5v23q0 13 -1 21v707q0 20 14 35.5t35 15.5h137q20 0 35.5 -15.5t14.5 -35.5v-586h104v-237h-105zM679 1156q0 -25 -9.5 -46.5t-25.5 -37.5t-37.5 -25.5t-45.5 -9.5t-45.5 9.5t-37.5 25.5t-25.5 37.5t-9.5 46.5q0 24 9.5 46t25.5 38t37.5 25.5t45.5 9.5
t45.5 -9.5t37.5 -25.5t25.5 -38t9.5 -46z" />
    <glyph glyph-name="nooninitial" unicode="&#x646;" horiz-adv-x="423" arabic-form="initial" 
d="M0 384h113v586q0 20 15 35.5t36 15.5h136q21 0 36 -15.5t15 -35.5v-560q0 -140 -61.5 -201.5t-176.5 -61.5h-113v237zM350 1306q0 -24 -9.5 -46t-25.5 -38t-37.5 -25.5t-46.5 -9.5q-24 0 -45.5 9.5t-37.5 25.5t-25.5 38t-9.5 46t9.5 46t25.5 38t37.5 25.5t45.5 9.5
q25 0 46.5 -9.5t37.5 -25.5t25.5 -38t9.5 -46z" />
    <glyph glyph-name="noonmedial" unicode="&#x646;" horiz-adv-x="458" arabic-form="medial" 
d="M351 384h111v-237h-467v237h118v586q0 20 14.5 35.5t36.5 15.5h135q22 0 37 -15.5t15 -35.5v-586zM353 1306q0 -24 -9.5 -46t-25.5 -38t-38 -25.5t-46 -9.5t-45.5 9.5t-37.5 25.5t-25.5 38t-9.5 46t9.5 46t25.5 38t37.5 25.5t45.5 9.5t46 -9.5t38 -25.5t25.5 -38t9.5 -46
z" />
    <glyph glyph-name="hehisolated" unicode="&#x647;" horiz-adv-x="840" arabic-form="isolated" 
d="M536 384v403h-242v-403h242zM293 147q-57 0 -101 15t-74 47t-45.5 81.5t-15.5 119.5v351q0 139 61 200.5t175 61.5h243q114 0 175.5 -61.5t61.5 -200.5v-351q0 -70 -15.5 -119.5t-45.5 -81.5t-74 -47t-101 -15h-244z" />
    <glyph glyph-name="hehfinal" unicode="&#x647;" horiz-adv-x="875" arabic-form="final" 
d="M532 384v403h-241v-403h241zM770 384h110v-237h-589q-57 0 -101.5 15t-74.5 47t-45.5 81.5t-15.5 119.5v351q0 139 61 200.5t176 61.5h242q115 0 175.5 -61.5t61.5 -200.5v-377z" />
    <glyph glyph-name="hehinitial" unicode="&#x647;" horiz-adv-x="1354" arabic-form="initial" 
d="M579 384v403h-241v-403h241zM816 384h243v403h-243v-403zM1059 1023q114 0 175 -61.5t61 -200.5v-351q0 -70 -15.5 -119.5t-45.5 -81.5t-74 -47t-101 -15h-1062v237h104v377q0 139 60.5 200.5t175.5 61.5h722z" />
    <glyph glyph-name="hehmedial" unicode="&#x647;" horiz-adv-x="1394" arabic-form="medial" 
d="M579 384v403h-241v-403h241zM817 384h242l-1 403h-241v-403zM1399 384v-237h-1402v237h105v377q0 139 60.5 200.5t175.5 61.5h721q114 0 175 -61.5t61 -200.5l1 -377h103z" />
    <glyph glyph-name="wawisolated" unicode="&#x648;" horiz-adv-x="846" arabic-form="isolated" 
d="M300 384h242v403h-242v-403zM146 -333q-23 2 -39.5 16t-16.5 35v135q0 21 15 36.5t36 15.5h24q12 0 26 -2q16 -1 32 -1h33q48 0 95.5 8t88 34t70.5 74t44 129h-254q-57 0 -101 15t-74 47t-45.5 81.5t-15.5 119.5v351q0 139 60.5 200.5t175.5 61.5h243q114 0 175.5 -61.5
t60.5 -200.5q0 -145 -0.5 -289t-0.5 -289q0 -126 -38 -223t-107 -163.5t-167.5 -100.5t-220.5 -34q-23 0 -47 1t-51 4h-1z" />
    <glyph glyph-name="wawfinal" unicode="&#x648;" arabic-form="final" 
d="M308 384h241v403h-241v-403zM153 -333q-22 2 -39 16t-17 35v135q0 21 15.5 36.5t36.5 15.5h24q12 0 26 -2q16 -1 33 -1h33q48 0 95.5 8t87.5 34t70 74t44 129h-254q-57 0 -101 15t-74.5 47t-46 81.5t-15.5 119.5v351q0 139 61.5 200.5t175.5 61.5h243q114 0 175 -61.5
t60 -200.5v-377h111v-237h-111q-14 -118 -57.5 -208.5t-112.5 -152t-161.5 -93t-203.5 -31.5q-22 0 -45.5 1t-51.5 4h-1z" />
    <glyph glyph-name="alefmaksuraisolated" unicode="&#x649;" horiz-adv-x="1158" arabic-form="isolated" 
d="M1037 1023q21 0 35.5 -15.5t14.5 -36.5v-135q0 -21 -14.5 -35.5t-35.5 -14.5l-226 1v-403h188q99 -3 99 -180q0 -22 -2.5 -48t-4.5 -55v1q-14 -101 -60 -183t-116 -140t-160 -89t-190 -31q-138 5 -235.5 57.5t-158.5 138t-89 197.5t-27 237q0 11 0.5 23.5t0.5 34.5v56v87
q0 21 14.5 36t35.5 15h138q20 0 35 -15t15 -36v-197q-1 -65 7 -132t38.5 -123.5t90 -95t160.5 -44.5q46 -2 92.5 13.5t85.5 48t67 79.5t39 108q-79 0 -135.5 18t-93 52t-54 83t-17.5 110v351q0 139 61 201t176 61h226z" />
    <glyph glyph-name="alefmaksurafinal" unicode="&#x649;" horiz-adv-x="1193" arabic-form="final" 
d="M55 321q0 20 0.5 58t0.5 111q0 21 14.5 36t35.5 15h137q21 0 35.5 -15t14.5 -36q0 -50 0.5 -98.5t0.5 -97.5q-1 -43 2 -88t13.5 -87.5t30.5 -80.5t53 -68t81.5 -49t115.5 -23q46 -2 92 13.5t85 48t67 79.5t39 108h-236q-21 0 -36 15t-15 36v136q0 20 15 35t36 15h564
v-237h-104q-14 -110 -61.5 -200t-118.5 -154t-161 -99t-190 -35q-139 5 -236.5 58t-158.5 139t-89 198t-27 237v30z" />
    <glyph glyph-name="yehisolated" unicode="&#x64a;" horiz-adv-x="1148" arabic-form="isolated" 
d="M1033 1023q21 0 35 -15.5t14 -36.5v-135q0 -21 -14 -35.5t-35 -14.5l-227 1v-403h188q99 -3 99 -180q0 -22 -2 -48t-4 -55v1q-14 -101 -60 -183t-116.5 -140t-160 -89t-189.5 -31q-139 5 -236.5 57.5t-158.5 138t-89 197.5t-27 237v201q0 21 15.5 36t36.5 15h136
q21 0 36.5 -15t15.5 -36v-197q-2 -65 6.5 -132t39 -123.5t89.5 -95t160 -44.5q46 -2 92 13.5t85 48t68 79.5t40 108q-79 0 -136 18t-93.5 52t-53.5 83t-17 110v351q0 139 60 201t176 61h227zM545 -591q0 -25 -9.5 -46.5t-25.5 -38t-37.5 -26t-46.5 -9.5q-24 0 -45.5 9.5
t-37.5 26t-25.5 38t-9.5 46.5q0 24 9.5 45.5t25.5 37.5t37.5 25.5t45.5 9.5q25 0 46.5 -9.5t37.5 -25.5t25.5 -37.5t9.5 -45.5zM830 -591q0 -25 -9.5 -46.5t-25.5 -38t-37.5 -26t-45.5 -9.5q-25 0 -46.5 9.5t-37.5 26t-25.5 38t-9.5 46.5q0 24 9.5 45.5t25.5 37.5t37.5 25.5
t46.5 9.5q24 0 45.5 -9.5t37.5 -25.5t25.5 -37.5t9.5 -45.5z" />
    <glyph glyph-name="yehfinal" unicode="&#x64a;" horiz-adv-x="1188" arabic-form="final" 
d="M50 321v169q0 21 15.5 36t36.5 15h136q20 0 35.5 -15t15.5 -36q0 -50 0.5 -98.5t0.5 -98.5q-1 -43 2 -88t13.5 -87.5t30.5 -80.5t52.5 -67.5t81 -48.5t115.5 -23q46 -2 92 13.5t85 48t67 79.5t38 108h-235q-21 0 -36 15t-15 36v136q0 20 15 35t36 15h563v-237h-103
q-14 -110 -61.5 -200t-118 -154t-160.5 -99t-190 -35q-139 5 -236.5 58t-159 139t-89.5 198t-27 237v30zM549 -591q0 -25 -9 -46.5t-25 -38t-37.5 -26t-45.5 -9.5q-25 0 -46.5 9.5t-38 26t-26 38t-9.5 46.5q0 24 9.5 45.5t26 37.5t38 25.5t46.5 9.5q24 0 45.5 -9.5
t37.5 -25.5t25 -37.5t9 -45.5zM835 -591q0 -25 -9.5 -46.5t-25.5 -38t-38 -26t-46 -9.5t-45.5 9.5t-37.5 26t-25 38t-9 46.5q0 24 9 45.5t25 37.5t37.5 25.5t45.5 9.5t46 -9.5t38 -25.5t25.5 -37.5t9.5 -45.5z" />
    <glyph glyph-name="yehinitial" unicode="&#x64a;" horiz-adv-x="715" arabic-form="initial" 
d="M-5 384h419v586q0 20 14.5 35.5t35.5 15.5h136q21 0 36 -15.5t15 -35.5v-560q0 -70 -15.5 -119.5t-45.5 -81.5t-74.5 -47t-101.5 -15h-419v237zM318 -134q0 -25 -9.5 -46.5t-25.5 -38t-37.5 -26t-45.5 -9.5t-45.5 9.5t-37.5 26t-25.5 38t-9.5 46.5q0 24 9.5 45.5
t25.5 37.5t37.5 25.5t45.5 9.5t45.5 -9.5t37.5 -25.5t25.5 -37.5t9.5 -45.5zM604 -134q0 -25 -9.5 -46.5t-25.5 -38t-37.5 -26t-46.5 -9.5q-24 0 -45.5 9.5t-37.5 26t-25.5 38t-9.5 46.5q0 24 9.5 45.5t25.5 37.5t37.5 25.5t45.5 9.5q25 0 46.5 -9.5t37.5 -25.5t25.5 -37.5
t9.5 -45.5z" />
    <glyph glyph-name="yehmedial" unicode="&#x64a;" horiz-adv-x="669" arabic-form="medial" 
d="M318 -134q0 -25 -9.5 -46.5t-25.5 -38t-37.5 -26t-45.5 -9.5t-45.5 9.5t-37.5 26t-25.5 38t-9.5 46.5q0 24 9.5 45.5t25.5 37.5t37.5 25.5t45.5 9.5t45.5 -9.5t37.5 -25.5t25.5 -37.5t9.5 -45.5zM604 -134q0 -25 -9.5 -46.5t-25.5 -38t-37.5 -26t-46.5 -9.5
q-24 0 -45.5 9.5t-37.5 26t-25.5 38t-9.5 46.5q0 24 9.5 45.5t25.5 37.5t37.5 25.5t45.5 9.5q25 0 46.5 -9.5t37.5 -25.5t25.5 -37.5t9.5 -45.5zM448 384h229v-237h-684v237h217v586q0 20 15 35.5t37 15.5h135q21 0 36 -15.5t15 -35.5v-586z" />
    <glyph glyph-name=".null" horiz-adv-x="0" 
 />
    <glyph glyph-name="nonmarkingreturn" horiz-adv-x="682" 
 />
    <glyph glyph-name="space" unicode=" " horiz-adv-x="435" 
 />
    <glyph glyph-name="exclam" unicode="!" horiz-adv-x="585" 
d="M423 275q0 -28 -10.5 -53t-29.5 -43.5t-44 -29.5t-53 -11t-52.5 11t-43 29.5t-29 43.5t-10.5 53t10.5 53t29 43.5t43 29t52.5 10.5t53 -10.5t44 -29t29.5 -43.5t10.5 -53zM149 1270q1 29 21.5 48.5t49.5 19.5h131q29 0 49.5 -19.5t21.5 -48.5l-47 -650q0 -30 -20.5 -51
t-50.5 -21h-38q-29 0 -49.5 21t-20.5 51z" />
    <glyph glyph-name="quotedbl" unicode="&#x22;" horiz-adv-x="622" 
d="M496 1540q1 -60 3 -114t3.5 -106.5t3 -106t3.5 -113.5q-2 -20 -23 -32t-48 -17q-11 56 -20.5 106.5t-19.5 100t-19.5 100.5t-20.5 107q0 31 23 53t56 22h59zM245 1540q2 -60 3.5 -114t3 -106.5t3 -106t3.5 -113.5q0 -20 -21.5 -32t-48.5 -17q-11 56 -21 106.5t-19.5 100
t-19.5 100.5t-21 107q1 31 24 53t55 22h59z" />
    <glyph glyph-name="numbersign" unicode="#" horiz-adv-x="1370" 
d="M843 896h-226l-81 -229h227zM804 1418l-141 -395h223l142 395h143l-139 -395h262l-45 -127h-263l-81 -227h280l-44 -128h-281l-141 -394h-143l140 394h-224l-141 -394h-144l138 394h-268l46 128h269l80 227h-287l45 127h289l140 395h145z" />
    <glyph glyph-name="dollar" unicode="$" horiz-adv-x="1020" 
d="M559 263q116 11 178.5 71.5t62.5 161.5q0 90 -56.5 144.5t-184.5 84.5v-462zM464 913v412q-100 0 -159.5 -55.5t-59.5 -149.5q0 -87 53 -138t166 -69zM464 -44v169q-204 15 -306.5 118.5t-102.5 293.5v21h162v-15q0 -123 64.5 -194.5t182.5 -78.5v479
q-191 32 -286.5 121.5t-95.5 236.5q0 158 102.5 256t279.5 107v129h95v-129q183 -15 280 -105t99 -245h-164q-11 97 -64.5 147.5t-150.5 56.5v-426q230 -50 321.5 -136t91.5 -246q0 -166 -106.5 -267t-306.5 -122v-171h-95z" />
    <glyph glyph-name="percent" unicode="%" horiz-adv-x="829" 
d="M133 1258q22 0 42 -8.5t35 -23t23.5 -34.5t8.5 -43t-8.5 -43t-23.5 -35t-35 -23.5t-42 -8.5t-42 8.5t-35 23.5t-24 35t-9 43t9 43t24 34.5t35 23t42 8.5zM654 302q22 0 42 -8.5t35 -23.5t24 -35t9 -42q0 -23 -9 -42.5t-24 -34.5t-35 -23.5t-42 -8.5q-23 0 -42.5 8.5
t-34.5 23.5t-23.5 34.5t-8.5 42.5q0 22 8.5 42t23.5 35t34.5 23.5t42.5 8.5zM679 1413q-54 -182 -105 -351t-101 -336t-101 -336t-106 -350q-43 -23 -83.5 -45t-82.5 -44q54 181 105 350.5t101.5 337t101.5 336.5t105 350z" />
    <glyph glyph-name="ampersand" unicode="&#x26;" horiz-adv-x="1294" 
d="M575 1006q98 61 144.5 124.5t46.5 136.5t-45 118t-119 45q-82 0 -128 -44t-46 -121q0 -56 35 -118.5t112 -140.5zM510 832q-127 -73 -182.5 -143.5t-55.5 -159.5q0 -108 72.5 -178.5t184.5 -70.5q83 0 160 40.5t146 119.5zM418 945q-79 85 -116 161t-37 153
q0 135 92 221.5t237 86.5q152 0 240.5 -79t88.5 -213q0 -110 -62 -198t-195 -167l257 -314q24 44 37.5 100t19.5 129h161q0 -102 -26.5 -191.5t-78.5 -170.5l258 -310h-230l-135 166q-83 -99 -189.5 -149t-233.5 -50q-182 0 -296.5 112t-114.5 286q0 131 75 231t248 196z
" />
    <glyph glyph-name="quotesingle" unicode="'" horiz-adv-x="385" 
d="M245 1540q2 -60 3.5 -114t3 -106.5t3 -106t3.5 -113.5q0 -20 -21.5 -32t-48.5 -17q-11 56 -21 106.5t-19.5 100t-19.5 100.5t-21 107q1 31 24 53t55 22h59z" />
    <glyph glyph-name="parenleft" unicode="(" horiz-adv-x="533" 
d="M467 1589q-57 -121 -95.5 -252.5t-58 -268.5t-19.5 -277q0 -139 19 -276t57.5 -268.5t96.5 -252.5h-100q-141 209 -209.5 406.5t-67 392.5t71.5 392t206 404h99z" />
    <glyph glyph-name="parenright" unicode=")" horiz-adv-x="533" 
d="M179 1589q136 -207 206 -404t71.5 -392t-67 -392.5t-209.5 -406.5h-100q58 121 96.5 252.5t57.5 268.5t19 276q0 140 -19.5 277t-58 268.5t-95.5 252.5h99z" />
    <glyph glyph-name="asterisk" unicode="*" 
d="M444 976l-152 -219l-121 81l171 213l-247 68l44 138l239 -82v257h134v-257l236 82l48 -138l-251 -68l173 -211l-119 -88z" />
    <glyph glyph-name="plus" unicode="+" horiz-adv-x="1484" 
d="M804 1212v-470h459v-121h-459v-471h-124v471h-459v121h459v470h124z" />
    <glyph glyph-name="comma" unicode="," horiz-adv-x="488" 
d="M155 150v192h178v-208q0 -98 -46.5 -162.5t-131.5 -85.5v89q42 9 65 47.5t23 100.5v27h-88z" />
    <glyph glyph-name="hyphenminus" unicode="-" horiz-adv-x="884" 
d="M119 477l57 197l590 -2l-57 -195h-590z" />
    <glyph glyph-name="period" unicode="." horiz-adv-x="497" 
d="M254 342q22 0 42 -8.5t35 -23t24 -34.5t9 -43t-9 -42.5t-24 -34.5t-35 -23.5t-42 -8.5q-23 0 -42.5 8.5t-34.5 23.5t-23.5 34.5t-8.5 42.5t8.5 43t23.5 34.5t34.5 23t42.5 8.5z" />
    <glyph glyph-name="slash" unicode="/" horiz-adv-x="658" 
d="M619 1413q-54 -182 -105.5 -351t-102 -336t-101.5 -336t-106 -350q-43 -23 -83.5 -45t-82.5 -44q55 181 106 350.5t101.5 337t102 336.5t105.5 350z" />
    <glyph glyph-name="zero" unicode="0" horiz-adv-x="1019" 
d="M66 717q0 154 30 274t93 208q59 88 139 130.5t181 42.5q203 0 320 -171q123 -176 123 -484q0 -152 -31.5 -274.5t-91.5 -210.5q-59 -82 -140.5 -126.5t-179.5 -44.5q-202 0 -320 173q-63 88 -93 209t-30 274zM314 717q0 -242 48.5 -356t146.5 -114t147 115.5t49 354.5
q0 238 -49 355t-147 117t-146.5 -115t-48.5 -357z" />
    <glyph glyph-name="one" unicode="1" horiz-adv-x="1019" 
d="M478 85v1031l-240 -166l-68 162l286 239h257v-1266h-235z" />
    <glyph glyph-name="two" unicode="2" horiz-adv-x="1019" 
d="M927 85h-827l10 189q42 46 97 98t112 108t112.5 115t99.5 118.5t71.5 119t29.5 117.5q2 63 -18.5 107t-56.5 71t-84 36.5t-100 4t-105 -26t-100 -54.5l-75 169q94 61 188 89t197 28q75 0 139 -21t114.5 -58t86 -87.5t53 -108.5t16 -122t-24.5 -127q-30 -81 -87.5 -159
t-127.5 -149.5t-143 -134.5t-134 -114h557v-208z" />
    <glyph glyph-name="three" unicode="3" horiz-adv-x="1019" 
d="M435 61q-107 0 -187.5 18t-144.5 56l48 150q56 -27 108 -39t106 -12q99 -2 164 27.5t94 75.5t23 99.5t-49 100.5t-122.5 79t-196.5 34l-8 154q48 6 106.5 22.5t110.5 44.5t87.5 68.5t37.5 94.5q1 47 -18 80.5t-51 54.5t-74 30t-87.5 8t-90.5 -11.5t-83 -29.5l-60 151
q35 18 83.5 30.5t103.5 19t113.5 6t112.5 -10t100.5 -28t77.5 -48.5q66 -65 89 -138.5t4.5 -145t-77.5 -134.5t-157 -106q279 -110 279 -344q0 -81 -28.5 -145.5t-88.5 -112.5q-117 -99 -325 -99z" />
    <glyph glyph-name="four" unicode="4" horiz-adv-x="1019" 
d="M587 85v296h-547v214q157 195 310 386t310 386h148v-771h126v-215h-126v-296h-221zM588 596l4 439l-361 -439h357z" />
    <glyph glyph-name="five" unicode="5" horiz-adv-x="1019" 
d="M197 260q41 -14 81.5 -20t82.5 -6q89 0 151 20t100 53.5t55 76.5t17 88q0 56 -18.5 94.5t-51.5 63t-78.5 38t-100 20t-116 7t-127.5 0.5l-2 656h652v-198h-453v-249q126 0 224.5 -28.5t167 -83.5t103.5 -135.5t34 -184.5q-2 -101 -43 -178t-109.5 -128.5t-157 -78
t-184.5 -26.5q-81 0 -148.5 10t-124.5 31z" />
    <glyph glyph-name="six" unicode="6" horiz-adv-x="1019" 
d="M539 265q48 0 85.5 20.5t62 51.5t36.5 67t9 67q-5 46 -26 84t-54 65.5t-74 44.5t-84.5 21t-87 -6.5t-80.5 -37.5q-18 -68 -12 -135.5t34 -121t76 -87t115 -33.5zM95 520q0 114 37 232t105 229t163.5 209.5t213.5 173.5q7 -8 11 -13.5t8 -10.5t8 -10.5t10 -12.5v1
q18 -23 35 -45.5t36 -45.5q-240 -157 -328 -364q55 23 116 26.5t121 -11t114.5 -47t96 -82.5t66 -117t24.5 -149q0 -92 -31 -169.5t-86.5 -133t-132 -86.5t-168.5 -31q-101 0 -179.5 33.5t-131.5 94.5t-80.5 144.5t-27.5 184.5z" />
    <glyph glyph-name="seven" unicode="7" horiz-adv-x="1019" 
d="M255 131l388 1027h-552v193h795l-8 -193l-421 -1104z" />
    <glyph glyph-name="eight" unicode="8" horiz-adv-x="1019" 
d="M509 1372q90 0 162.5 -35t121 -91t71 -125t13 -137t-54 -129t-129.5 -99q125 -55 187.5 -138.5t62.5 -189.5q0 -83 -30.5 -150t-86.5 -118v1q-59 -48 -138 -74t-179 -26q-101 0 -180.5 26t-138.5 74v-1q-55 51 -85 119t-30 149q0 53 16 100.5t45.5 88t69.5 72.5t88 53
q-76 45 -117.5 109.5t-52 134.5t9.5 139.5t69.5 124.5t126 88.5t179.5 33.5zM502 628q-64 0 -107 -28.5t-65.5 -71t-24 -92t17.5 -92.5t59 -72.5t101 -31.5q50 -2 91 7.5t70 32.5t45 62.5t16 99.5q0 8 -2.5 25t-10 38t-21.5 42.5t-36.5 39.5t-55 29.5t-77.5 11.5zM328 1020
q0 -36 22.5 -71.5t53.5 -62.5t63.5 -41t53.5 -7q31 11 64 33t56 54t29 74.5t-18 94.5q-20 32 -52 52.5t-68 28t-72 2t-65.5 -24.5t-48 -52t-18.5 -80z" />
    <glyph glyph-name="nine" unicode="9" horiz-adv-x="1019" 
d="M487 1163q-48 0 -85.5 -20.5t-62 -51.5t-36 -67.5t-8.5 -67.5q4 -46 25.5 -83.5t54 -65.5t73.5 -45t85 -20.5t87 7t80 37.5q18 67 12 134.5t-33.5 121.5t-76 87.5t-115.5 33.5zM932 908q0 -114 -37 -232t-105 -229.5t-164 -210t-214 -172.5q-13 16 -18.5 24t-17.5 23v-1
q-19 23 -35.5 45t-36.5 45q121 79 202.5 170t125.5 194q-55 -23 -116 -26.5t-120.5 11.5t-114 47.5t-96 82.5t-66 116.5t-24.5 148.5q0 93 31 170t86 133t131.5 87t168.5 31q102 0 180 -33.5t131.5 -94.5t81 -145t27.5 -184z" />
    <glyph glyph-name="colon" unicode=":" horiz-adv-x="505" 
d="M250 438q22 0 42 -8.5t35 -23t24 -34.5t9 -43t-9 -42.5t-24 -34.5t-35 -23.5t-42 -8.5q-23 0 -42.5 8.5t-34.5 23.5t-23.5 34.5t-8.5 42.5t8.5 43t23.5 34.5t34.5 23t42.5 8.5zM250 917q22 0 42 -8.5t35 -23t24 -34.5t9 -43t-9 -42.5t-24 -34.5t-35 -23.5t-42 -8.5
q-23 0 -42.5 8.5t-34.5 23.5t-23.5 34.5t-8.5 42.5t8.5 43t23.5 34.5t34.5 23t42.5 8.5z" />
    <glyph glyph-name="semicolon" unicode=";" horiz-adv-x="529" 
d="M175 889v193h180v-193h-180zM175 150v192h180v-208q0 -97 -47 -161.5t-133 -86.5v89q42 9 65.5 48t23.5 100v27h-89z" />
    <glyph glyph-name="less" unicode="&#x3c;" horiz-adv-x="1484" 
d="M1255 1025l-843 -344l843 -342v-134l-1025 421v112l1025 420v-133z" />
    <glyph glyph-name="equal" unicode="=" horiz-adv-x="1484" 
d="M1263 568v-120h-1042v120h1042zM1263 915v-122h-1042v122h1042z" />
    <glyph glyph-name="greater" unicode="&#x3e;" horiz-adv-x="1484" 
d="M1255 738v-112l-1025 -421v134l844 342l-844 344v133z" />
    <glyph glyph-name="question" unicode="?" horiz-adv-x="959" 
d="M382 519q0 7 -1 20.5t-1 19.5q0 103 34.5 183t114.5 158l72 73q58 56 82 109.5t24 119.5q0 94 -61 151.5t-161 57.5q-124 0 -186.5 -75.5t-68.5 -227.5h-166v25q0 204 112.5 316t315.5 112q180 0 287.5 -98.5t107.5 -260.5q0 -89 -34.5 -165t-105.5 -142l-78 -75
q-73 -70 -97 -123t-24 -130q0 -19 0.5 -29t1.5 -18zM377 150v204h186v-204h-186z" />
    <glyph glyph-name="at" unicode="@" horiz-adv-x="1782" 
d="M1117 893l50 100h115l-128 -501q-3 -14 -4.5 -27t-1.5 -24q0 -40 22 -61t65 -21q41 0 88.5 23t92.5 66q70 66 109 162t39 203q0 225 -165.5 365t-434.5 140q-116 0 -214 -24t-184 -75q-166 -99 -257.5 -260.5t-91.5 -356.5q0 -154 54 -268t167 -200q87 -67 206 -103
t250 -36q147 0 286 42.5t255 122.5l47 -71q-128 -96 -273 -145t-304 -49q-166 0 -303 41t-244 122q-134 102 -200 238t-66 308q0 144 45.5 272.5t131.5 233.5q127 155 305.5 235t396.5 80q142 0 270 -39t220 -110q113 -87 171.5 -201t58.5 -246q0 -153 -55 -274.5
t-160 -205.5q-60 -47 -130.5 -72t-144.5 -25q-87 0 -130.5 34.5t-43.5 101.5v17q-48 -78 -112.5 -114.5t-149.5 -36.5q-133 0 -203 73.5t-70 214.5q0 205 120 343t295 138q73 0 126 -32.5t84 -97.5zM1035 563l52 206q-15 76 -60 118t-113 42q-120 0 -201.5 -113.5
t-81.5 -277.5q0 -91 42 -141t120 -50q84 0 151.5 60.5t90.5 155.5z" />
    <glyph glyph-name="A" unicode="A" horiz-adv-x="1188" 
d="M517 1449h190l467 -1297h-196l-130 386h-499l-140 -386h-192zM606 1255l-200 -569h388z" />
    <glyph glyph-name="B" unicode="B" horiz-adv-x="1188" 
d="M304 899h313q131 0 196 45q71 51 71 165q0 94 -62.5 141.5t-202.5 47.5h-315v-399zM132 1448h563q172 0 271 -96q90 -90 90 -231q0 -78 -31 -141q-44 -85 -139 -131q100 -40 146 -86q85 -85 85 -229q0 -165 -110 -270q-120 -114 -325 -114h-550v1298zM304 301h369
q134 0 202.5 62t68.5 174q0 123 -96 178q-75 41 -203 41h-341v-455z" />
    <glyph glyph-name="C" unicode="C" horiz-adv-x="1286" 
d="M1212 1044h-184q-16 70 -34 105t-57 72q-96 90 -264 90q-197 0 -307.5 -135t-110.5 -380q0 -234 107 -369.5t296 -135.5q151 0 248 89t122 253h184q-25 -173 -111 -291q-157 -215 -438 -215q-277 0 -437 176.5t-160 482.5q0 364 205 544q91 78 182 112t215 34
q232 0 379 -116t165 -316z" />
    <glyph glyph-name="D" unicode="D" horiz-adv-x="1286" 
d="M157 1449h438q165 0 247.5 -18t155.5 -73q226 -171 226 -543q0 -220 -84 -386.5t-229 -232.5q-54 -23 -123 -33.5t-177 -10.5h-454v1297zM337 1287v-972h262q181 0 265 58q173 119 173 445q0 162 -55 275t-157 160q-70 34 -232 34h-256z" />
    <glyph glyph-name="E" unicode="E" horiz-adv-x="1188" 
d="M157 1449h935v-162h-755v-382h698v-163h-698v-427h764v-163h-944v1297z" />
    <glyph glyph-name="F" unicode="F" horiz-adv-x="1188" 
d="M157 1449h935v-162h-755v-382h698v-163h-698v-427l-1 -163h-179v1297z" />
    <glyph glyph-name="G" unicode="G" horiz-adv-x="1386" 
d="M1219 1048h-184q-20 68 -38.5 103.5t-54.5 71.5q-90 88 -262 88q-202 0 -314.5 -135t-112.5 -380q0 -236 113 -370.5t313 -134.5q207 0 315 150q41 54 59 109.5t18 151.5h-405v148h567v-690h-114l-43 158q-89 -102 -184.5 -146.5t-226.5 -44.5q-273 0 -436 180.5
t-163 483.5q0 314 167.5 499.5t450.5 185.5q271 0 410 -158q52 -58 78.5 -116t46.5 -154z" />
    <glyph glyph-name="H" unicode="H" horiz-adv-x="1286" 
d="M157 1449h180v-531h615v531h182v-1297h-182v602h-615v-602h-180v1297z" />
    <glyph glyph-name="I" unicode="I" horiz-adv-x="483" 
d="M157 1449h180v-1297h-180v1297z" />
    <glyph glyph-name="J" unicode="J" 
d="M27 585h178q0 -104 7 -147.5t32 -76.5q48 -70 148 -70q89 0 140 66q24 30 32.5 74t8.5 131v889h182v-889q0 -201 -63 -293q-49 -68 -128 -105t-176 -37q-96 0 -173.5 35.5t-124.5 97.5q-39 55 -51 119.5t-12 205.5z" />
    <glyph glyph-name="K" unicode="K" horiz-adv-x="1188" 
d="M157 1451h180v-631l613 631h240l-524 -529l522 -770h-215l-429 650l-207 -198v-452h-180v1299z" />
    <glyph glyph-name="L" unicode="L" horiz-adv-x="990" 
d="M157 1449h180v-1134h656v-163h-836v1297z" />
    <glyph glyph-name="M" unicode="M" horiz-adv-x="1466" 
d="M116 152v1296h219l406 -1077l394 1077h219v-1296h-159v1039l-379 -1039h-146l-396 1039v-1039h-158z" />
    <glyph glyph-name="N" unicode="N" horiz-adv-x="1286" 
d="M157 1449h201l594 -1019v1019h182v-1297h-204l-593 1028v-1028h-180v1297z" />
    <glyph glyph-name="O" unicode="O" horiz-adv-x="1386" 
d="M66 788q0 317 169.5 502.5t463.5 185.5q287 0 456 -178.5t169 -482.5q0 -337 -210 -537q-164 -151 -424 -151q-285 0 -454.5 179t-169.5 482zM255 793q0 -233 118.5 -367.5t325.5 -134.5q206 0 322 137t116 385q0 235 -116 366.5t-322 131.5q-213 0 -328.5 -135
t-115.5 -383z" />
    <glyph glyph-name="P" unicode="P" horiz-adv-x="1122" 
d="M311 854h293q152 0 212.5 49.5t60.5 169.5q0 115 -60 165.5t-200 50.5h-306v-435zM137 150v1298h472q115 0 175 -11.5t107 -38.5q78 -42 120 -127t42 -198q0 -109 -42 -192t-122 -132q-46 -28 -108 -40t-205 -12h-265v-547h-174z" />
    <glyph glyph-name="Q" unicode="Q" horiz-adv-x="1356" 
d="M887 324l-146 116l89 107l177 -138q63 64 95.5 164.5t32.5 226.5q0 243 -117 379t-325 136q-209 0 -327 -136t-118 -379t118 -379.5t327 -136.5q55 0 103 9.5t91 30.5zM1033 208q-78 -41 -162 -61t-178 -20q-296 0 -464 177t-168 492t168 492t464 177q294 0 461.5 -177.5
t167.5 -491.5q0 -154 -42.5 -277t-130.5 -222l160 -128l-88 -108z" />
    <glyph glyph-name="R" unicode="R" horiz-adv-x="1286" 
d="M157 1449h540q121 0 184 -8.5t113 -35.5q169 -90 169 -313q0 -114 -43.5 -182t-139.5 -114q96 -33 129 -93t33 -202v-150q0 -106 50 -187l9 -12h-214q-16 51 -23 97.5t-7 87.5v162q0 110 -52 159q-28 28 -72 37t-147 9h-349v-552h-180v1297zM337 1287v-419h340
q96 0 135.5 6.5t73.5 25.5q90 49 90 177q0 66 -26.5 114.5t-78 72t-179.5 23.5h-355z" />
    <glyph glyph-name="S" unicode="S" horiz-adv-x="1188" 
d="M80 585h187v-37q0 -70 14.5 -106.5t53.5 -68.5q93 -82 274 -82q144 0 231 56t87 150q0 54 -31.5 107t-118.5 84l-400 100q-247 90 -247 299q-4 88 26.5 155.5t87.5 121.5q123 112 349 112q254 0 381 -134q49 -51 69.5 -102t20.5 -140l3 -43h-188q0 60 -7.5 90.5
t-24.5 58.5q-33 49 -102.5 77t-154.5 28q-121 0 -198 -55t-73 -153q0 -55 29.5 -87.5t109.5 -60.5l415 -106q248 -88 239 -334q0 -80 -32.5 -149.5t-97 -125.5t-157 -84.5t-223.5 -28.5q-257 0 -389.5 106t-132.5 313v39z" />
    <glyph glyph-name="T" unicode="T" horiz-adv-x="1088" 
d="M29 1449h1038v-162h-431v-1135h-180v1135h-427v162z" />
    <glyph glyph-name="U" unicode="U" horiz-adv-x="1286" 
d="M139 1451h182v-809q0 -86 12 -138.5t45 -93.5q40 -55 112.5 -87t157.5 -32q172 0 260 119q32 44 46.5 95t14.5 131v815h182v-816q0 -107 -19.5 -178.5t-70.5 -141.5q-140 -188 -418 -188q-288 0 -424 187q-30 45 -47 89.5t-25 106.5t-8 112v829z" />
    <glyph glyph-name="V" unicode="V" horiz-adv-x="1088" 
d="M456 150l-456 1298h180l369 -1087l358 1087h181l-450 -1298h-182z" />
    <glyph glyph-name="W" unicode="W" horiz-adv-x="1682" 
d="M14 1449h193l196 -775l48 -260q30 142 39.5 182t21.5 78l231 775h185l230 -775q16 -46 34 -130l30 -130q11 67 22.5 133t27.5 127l204 775h194l-355 -1297h-181l-301 1052l-295 -1052h-189z" />
    <glyph glyph-name="X" unicode="X" horiz-adv-x="1078" 
d="M0 150l440 665l-417 633h214l305 -480l310 480h202l-416 -630l440 -668h-214l-330 525l-322 -525h-212z" />
    <glyph glyph-name="Y" unicode="Y" horiz-adv-x="1188" 
d="M2 1449h226l376 -615l370 615h216l-498 -786v-511h-184v511z" />
    <glyph glyph-name="Z" unicode="Z" horiz-adv-x="1088" 
d="M43 310l783 977h-726v162h951v-157l-787 -977h787v-163h-1008v158z" />
    <glyph glyph-name="bracketleft" unicode="[" horiz-adv-x="631" 
d="M216 -207v1639h347v-122h-191v-1395h191v-122h-347z" />
    <glyph glyph-name="backslash" unicode="\" horiz-adv-x="536" 
d="M428 -15l-430 1480h107l433 -1480h-110z" />
    <glyph glyph-name="bracketright" unicode="]" horiz-adv-x="631" 
d="M415 1432v-1639h-347v122h190v1395h-190v122h347z" />
    <glyph glyph-name="asciicircum" unicode="^" horiz-adv-x="1782" 
d="M971 1418l444 -484h-157l-367 365l-369 -365h-157l444 484h162z" />
    <glyph glyph-name="underscore" unicode="_" 
d="M891 -146v-124h-891v124h891z" />
    <glyph glyph-name="grave" unicode="`" 
d="M570 1209h-105l-248 303h175z" />
    <glyph glyph-name="a" unicode="a" horiz-adv-x="990" 
d="M119 806q0 70 12 107t42 80q96 133 326 133q232 0 317 -114q46 -58 46 -185v-453q0 -98 58 -98l47 4v-125q-37 -12 -57.5 -15.5t-43.5 -3.5q-133 0 -152 144q-138 -153 -326 -153q-140 0 -224 76.5t-84 206.5q0 180 158 253q106 50 371 80l95 13v46q0 45 -5.5 69.5
t-21.5 44.5q-51 64 -178 64q-132 0 -181 -73q-17 -21 -23 -42.5t-6 -58.5h-170zM702 628q-63 -9 -116.5 -17.5t-131.5 -25.5q-110 -25 -154.5 -61.5t-44.5 -104.5t45 -106.5t125 -38.5q115 0 196 65.5t81 155.5v133z" />
    <glyph glyph-name="b" unicode="b" horiz-adv-x="1059" 
d="M272 628q0 -175 72.5 -270.5t206.5 -95.5q130 0 206 93t76 253q0 180 -73.5 277t-207.5 97q-140 0 -210 -88.5t-70 -265.5zM123 150v1298h155v-485q54 80 131 120.5t175 40.5q188 0 301.5 -137.5t113.5 -367.5q0 -227 -112.5 -362.5t-300.5 -135.5q-101 0 -175 36
t-133 112v-119h-155z" />
    <glyph glyph-name="c" unicode="c" 
d="M729 490h167q-17 -133 -73 -214q-57 -75 -137 -113t-180 -38q-210 0 -325 127.5t-115 358.5q0 246 114 380.5t323 134.5q167 0 270.5 -93.5t122.5 -260.5h-167q-45 206 -226 206q-125 0 -194 -90t-69 -252q0 -175 68 -269t197 -94q168 0 224 217z" />
    <glyph glyph-name="d" unicode="d" horiz-adv-x="990" 
d="M713 1005v446h164v-1298h-156v121q-70 -85 -130 -116t-147 -31q-172 0 -275 131.5t-103 354.5q0 230 107 372.5t281 142.5q78 0 134.5 -26.5t124.5 -96.5zM483 274q116 0 178 91t62 263q0 168 -62 259t-178 91q-118 0 -180.5 -90t-62.5 -260q0 -172 62.5 -263t180.5 -91z
" />
    <glyph glyph-name="e" unicode="e" horiz-adv-x="990" 
d="M927 574h-689q0 -146 70 -223t197 -77q195 0 238 191h171q-37 -160 -145 -249t-270 -89q-201 0 -317 133.5t-116 367.5q0 258 150 389q122 107 296 107q215 0 333 -154q44 -63 63.5 -138t19.5 -183zM763 722q0 120 -70.5 188t-184.5 68q-228 0 -264 -256h519z" />
    <glyph glyph-name="f" unicode="f" horiz-adv-x="471" 
d="M153 150v807h-153v125h153v137q0 116 52.5 174t158.5 58q16 0 41.5 -3t73.5 -10v-140q-25 4 -42 6t-27 2q-55 0 -77 -30.5t-22 -115.5v-78h168v-125h-168v-807h-158z" />
    <glyph glyph-name="g" unicode="g" horiz-adv-x="990" 
d="M713 975v127h162v-806q0 -121 -9 -191.5t-30 -125.5q-90 -217 -371 -217q-169 0 -257.5 70t-105.5 221h163q20 -78 63.5 -110.5t132.5 -32.5q173 0 214 130q15 46 22 96.5t7 127.5q-61 -73 -123 -105t-146 -32q-173 0 -271 128t-98 354q0 240 99.5 378.5t274.5 138.5
q173 0 273 -151zM240 628q0 -160 64.5 -257t173.5 -97q107 0 170 95.5t63 258.5q0 160 -63 255t-170 95q-109 0 -173.5 -94.5t-64.5 -255.5z" />
    <glyph glyph-name="h" unicode="h" horiz-adv-x="992" 
d="M116 1449h164v-449q65 66 132 96t154 30q182 0 259 -116q27 -39 38.5 -95t11.5 -139v-624h-164v586q0 96 -18 145q-39 95 -162 95q-128 0 -200 -101q-30 -39 -40.5 -85.5t-10.5 -135.5v-504h-164v1297z" />
    <glyph glyph-name="i" unicode="i" horiz-adv-x="395" 
d="M116 1449h164v-185h-164v185zM116 1102h164v-950h-164v950z" />
    <glyph glyph-name="j" unicode="j" horiz-adv-x="395" 
d="M-36 -78q45 -12 66 -12q52 0 69 31t17 125v1036h164v-1061q0 -112 -29 -175q-54 -104 -190 -104h-56q-28 5 -41 7v153zM116 1449h164v-185h-164v185z" />
    <glyph glyph-name="k" unicode="k" 
d="M117 1449h165v-734l388 387h217l-365 -352l371 -598h-198l-283 484l-130 -122v-362h-165v1297z" />
    <glyph glyph-name="l" unicode="l" horiz-adv-x="395" 
d="M116 1458h164v-1306h-164v1306z" />
    <glyph glyph-name="m" unicode="m" horiz-adv-x="1529" 
d="M1283 150v588q0 145 -39 198t-136 53q-116 0 -180.5 -72t-64.5 -202v-565h-163v588q0 145 -39.5 198t-135.5 53q-115 0 -180 -73t-65 -201v-565h-161v955h153v-135q54 81 127 120.5t172 39.5q89 0 152 -36.5t109 -113.5q62 77 136 113.5t171 36.5q93 0 161.5 -33.5
t105.5 -97.5q20 -36 29 -87t9 -161v-28v-573h-161z" />
    <glyph glyph-name="n" unicode="n" horiz-adv-x="990" 
d="M116 1102h164v-124q75 85 138 116.5t155 31.5q90 0 155.5 -34t107.5 -99q17 -32 27 -65t10 -78l2 -93v-605h-164v574q0 133 -32 179q-48 73 -155 73q-145 0 -211 -121q-14 -23 -22.5 -52t-8.5 -65l-2 -90v-498h-164v950z" />
    <glyph glyph-name="o" unicode="o" horiz-adv-x="990" 
d="M66 628q0 235 114 366.5t317 131.5t317 -131.5t114 -366.5q0 -234 -114 -367.5t-317 -133.5q-201 0 -316 133t-115 368zM240 628q0 -167 68 -260.5t189 -93.5q123 0 189.5 93.5t66.5 265.5q0 163 -67 254t-189 91q-123 0 -190 -91.5t-67 -258.5z" />
    <glyph glyph-name="p" unicode="p" horiz-adv-x="1059" 
d="M772 629q0 160 -75.5 251t-204.5 91q-130 0 -202.5 -93t-72.5 -261q0 -172 70.5 -265t198.5 -93q137 0 211.5 96t74.5 274zM223 -222h-152v1304h152v-126q55 80 129 118t173 38q187 0 298 -134t111 -359q0 -228 -111 -363t-298 -135q-103 0 -180 39t-122 113v-495z" />
    <glyph glyph-name="q" unicode="q" horiz-adv-x="1059" 
d="M233 629q0 -178 74.5 -274t211.5 -96q128 0 198 93t70 265q0 168 -72 261t-202 93q-129 0 -204.5 -91t-75.5 -251zM782 273q-45 -74 -122 -113t-181 -39q-186 0 -297 135t-111 363q0 225 111 359t297 134q100 0 173.5 -38t129.5 -118v126h152v-1304h-152v495z" />
    <glyph glyph-name="r" unicode="r" horiz-adv-x="592" 
d="M117 1102h165v-158q92 182 231 182h27.5t42.5 -7v-175l-52 5q-135 0 -201 -97q-26 -37 -36 -87t-10 -141v-472h-167v950z" />
    <glyph glyph-name="s" unicode="s" 
d="M65 463h173q0 -55 7 -81.5t30 -49.5q57 -58 173 -58q93 0 149 37.5t56 100.5q0 30 -19.5 54t-73.5 48l-299 93q-165 75 -165 243q0 123 97.5 199.5t256.5 76.5q212 0 306 -135q25 -39 34.5 -71t9.5 -95h-167q0 66 -30 97q-58 58 -160 58q-77 0 -128.5 -33.5t-51.5 -82.5
q0 -77 82 -109l278 -86q32 -14 66 -29q12 -5 26 -14q112 -68 112 -192t-92 -211q-102 -96 -289 -96q-185 0 -283 85.5t-98 250.5z" />
    <glyph glyph-name="t" unicode="t" horiz-adv-x="525" 
d="M26 1102h125v233h163v-233h158v-138h-158v-576q0 -68 21 -92.5t83 -24.5l54 2v-139l-27 -1l-95 -6q-148 0 -183 107q-16 42 -16 166v564h-125v138z" />
    <glyph glyph-name="u" unicode="u" horiz-adv-x="990" 
d="M116 1102h164v-603q0 -65 7 -100t24 -62q44 -63 152 -63q122 0 196 102q31 43 41.5 94t10.5 149v483h164v-947h-152v146q-87 -174 -301 -174q-167 0 -247 107q-31 42 -45 102t-14 152v614z" />
    <glyph glyph-name="v" unicode="v" horiz-adv-x="857" 
d="M355 150l-353 955h172l267 -765l261 765h172l-349 -955h-170z" />
    <glyph glyph-name="w" unicode="w" horiz-adv-x="1286" 
d="M14 1102h180l139 -554l39 -186q11 60 19 97.5t19 88.5l144 554h182l141 -547q7 -27 15 -64t24 -120q7 43 16 85q3 20 25 99l146 547h172l-281 -950h-168l-183 731l-185 -731h-167z" />
    <glyph glyph-name="x" unicode="x" horiz-adv-x="869" 
d="M0 150l333 492l-317 463h188l235 -343l230 343h185l-321 -462l342 -493h-194l-250 369l-243 -369h-188z" />
    <glyph glyph-name="y" unicode="y" 
d="M197 1102l255 -756l250 756h178l-383 -1057q-30 -89 -58.5 -142.5t-60.5 -85.5q-57 -58 -135 -58l-66 6q-33 0 -41 2q-19 9 -31 11v153l18 -7q20 -7 40.5 -10.5t33.5 -3.5q61 0 91.5 41t75.5 182l-350 969h183z" />
    <glyph glyph-name="z" unicode="z" 
d="M66 282l534 672h-491v148h705v-131l-536 -671h550v-148h-762v130z" />
    <glyph glyph-name="braceleft" unicode="{" 
d="M753 1304h-35q-105 0 -140.5 -38.5t-35.5 -160.5v-210q0 -139 -38.5 -198.5t-136.5 -85.5q98 -24 136.5 -83.5t38.5 -199.5v-210q0 -123 36 -161t141 -38h34v-129h-37q-94 0 -147 10t-90 32q-47 30 -67 85t-20 183v214q0 129 -47 182t-161 53q-7 0 -19.5 -0.5t-18.5 -0.5
v129q7 0 20 -1t19 -1q113 0 160 53t47 181v214q0 128 20 182.5t67 84.5q40 24 95 34.5t147 10.5h32v-131z" />
    <glyph glyph-name="bar" unicode="|" 
d="M512 1512v-1782h-131v1782h131z" />
    <glyph glyph-name="braceright" unicode="}" 
d="M500 1123v-214q0 -128 47 -181t160 -53q6 0 19 1t20 1v-129q-6 0 -19 0.5t-18 0.5q-115 0 -162 -52.5t-47 -182.5v-214q0 -128 -19.5 -183t-67.5 -85q-36 -22 -89 -32t-147 -10h-38v129h34q105 0 141.5 39t36.5 162v208q0 140 38.5 199t135.5 84q-97 26 -135.5 85.5
t-38.5 198.5v210q0 122 -36.5 160.5t-141.5 38.5h-34v131h32q93 0 149 -11t93 -34q48 -30 67.5 -84.5t19.5 -182.5z" />
    <glyph glyph-name="asciitilde" unicode="~" horiz-adv-x="1484" 
d="M1331 684q-90 -62 -173 -92t-165 -30q-81 0 -223 50q-19 7 -30 10l-13 5q-153 52 -237 52q-73 0 -152.5 -32t-182.5 -105v135q92 63 175.5 94t161.5 31q53 0 110 -11.5t143 -41.5q14 -5 41 -15q138 -50 208 -50q77 0 156.5 32.5t180.5 103.5v-136z" />
    <glyph glyph-name="delete" horiz-adv-x="1392" 
d="M1322 262h-318v510h68v-450h250v-60zM940 262h-381v510h368v-60h-301v-156h282v-60h-282v-174h314v-60zM498 520q0 -110 -49 -177q-40 -56 -107 -72q-36 -9 -83 -9h-183v510h175q60 0 91 -7q97 -23 136 -123q20 -54 20 -122zM428 521q0 146 -90 181q-27 10 -87 10h-108
v-390h109q89 0 125 36q51 51 51 163z" />
    <glyph glyph-name="copyright" unicode="&#xa9;" horiz-adv-x="1484" 
d="M916 939q-11 67 -57 103t-121 36q-92 0 -144 -78.5t-52 -217.5q0 -136 54 -212t150 -76q72 0 119.5 40.5t59.5 112.5h126q-8 -113 -93.5 -183.5t-216.5 -70.5q-158 0 -248 104.5t-90 290.5q0 174 94.5 280.5t248.5 106.5q124 0 206 -65.5t92 -170.5h-128zM1299 782
q0 114 -41.5 215t-118.5 180q-81 80 -182 121.5t-214 41.5q-112 0 -211.5 -41t-178.5 -119q-81 -81 -124.5 -184t-43.5 -214q0 -109 43 -210t123 -182q80 -79 180.5 -121t211.5 -42q109 0 210.5 42.5t185.5 123.5q78 76 119 176t41 213zM741 1424q132 0 248.5 -47.5
t207.5 -139.5q91 -90 139 -208t48 -247t-47.5 -244.5t-137.5 -203.5q-96 -94 -214 -143.5t-244 -49.5t-242 49t-208 142q-93 91 -141 207t-48 243q0 128 48.5 245t141.5 211q91 91 205.5 138.5t243.5 47.5z" />
    <glyph glyph-name="guillemotleft" unicode="&#xab;" horiz-adv-x="880" 
d="M763 22h-72q-82 97 -164 192.5t-164 192.5q84 97 164.5 189.5t164.5 189.5h64l-217 -378zM461 22h-68q-82 97 -163 192.5t-164 192.5q84 97 164.5 189.5t165.5 189.5h65l-219 -378z" />
    <glyph glyph-name="registered" unicode="&#xae;" horiz-adv-x="1484" 
d="M734 1070h-112v-241h116q98 0 140.5 27t42.5 88q0 66 -44 96t-143 30zM759 1158q151 0 227 -50t76 -149q0 -77 -43.5 -128.5t-122.5 -67.5l163 -331h-154l-148 310h-135v-310h-137v726h274zM1299 777q0 117 -40.5 218.5t-117.5 179.5q-80 81 -181.5 123t-216.5 42
q-113 0 -213 -41t-175 -117q-82 -83 -126 -186.5t-44 -213.5q0 -108 42.5 -208.5t121.5 -180.5q78 -80 179.5 -123t209.5 -43q113 0 214.5 41.5t184.5 121.5q78 77 120 176.5t42 210.5zM741 1424q132 0 249.5 -49t208.5 -142q89 -90 137 -206.5t48 -244.5q0 -131 -48 -246
t-139 -204q-95 -92 -212.5 -141.5t-243.5 -49.5q-128 0 -244 49.5t-208 143.5q-92 92 -139.5 207t-47.5 241q0 128 50 246.5t144 213.5q88 89 201.5 135.5t243.5 46.5z" />
    <glyph glyph-name="dagger" unicode="&#xb0;" horiz-adv-x="1024" 
d="M509 1094l456 -457l-456 -456l-457 456zM128 637l381 -380l380 380l-380 381zM509 855l217 -218l-217 -217l-217 217z" />
    <glyph glyph-name="daggerdbl" unicode="&#xb1;" horiz-adv-x="901" 
d="M450 1043l201 -146l201 -145l-77 -237l-76 -236h-497l-77 236l-77 237l201 145zM592 430l141 103l-54 167l-54 166h-350l-54 -166l-54 -167l142 -103l141 -102zM528 727l79 -56l-31 -92l-29 -92h-193l-60 184l78 56l78 57z" />
    <glyph glyph-name="paragraph" unicode="&#xb6;" 
d="M830 1379h-106v-1229h-80v1229h-173v-1229h-82v690q-155 6 -242 87q-86 81 -86 211q0 65 24.5 120t66.5 97q47 40 109 61.5t137 21.5h432v-59z" />
    <glyph glyph-name="nonbreakingspace" unicode="&#xb7;" horiz-adv-x="1082" 
d="M549 98l-198 219l198 199l201 -199zM1025 581l-214 -205l-198 205l198 198zM549 1056l196 -215l-196 -198l-198 198zM74 581l212 198l198 -198l-198 -198z" />
    <glyph glyph-name="periodcentered" unicode="&#xba;" horiz-adv-x="983" 
d="M253 1047h454l114 -197l113 -196l-113 -197l-114 -197h-454l-114 197l-113 197l113 196zM298 968l-182 -314l91 -158l91 -157h364l90 157l91 158l-91 157l-90 157h-364zM361 859h238l59 -102l59 -103l-118 -206h-238l-118 206l59 103z" />
    <glyph glyph-name="guillemotright" unicode="&#xbb;" horiz-adv-x="880" 
d="M335 408q-54 94 -108 189t-109 189h65q81 -95 163.5 -189.5t165.5 -189.5q-84 -99 -165 -193t-163 -192h-74zM632 408q-54 94 -109.5 189t-109.5 189h65q83 -95 165.5 -189.5t164.5 -189.5q-83 -99 -163 -193t-164 -192h-68z" />
    <glyph glyph-name="questiondown" unicode="&#xbf;" horiz-adv-x="774" 
d="M77 979h675v-675h-675v675z" />
    <glyph glyph-name="multiply" unicode="&#xd7;" horiz-adv-x="1484" 
d="M748 767l408 408l85 -86l-408 -408l408 -408l-85 -84l-408 406l-408 -406l-85 84l408 408l-408 408l85 86z" />
    <glyph glyph-name="agrave" unicode="&#xe0;" horiz-adv-x="990" 
d="M119 806q0 70 12 107t42 80q96 133 326 133q232 0 317 -114q46 -58 46 -185v-453q0 -98 58 -98l47 4v-125q-37 -12 -57.5 -15.5t-43.5 -3.5q-133 0 -152 144q-138 -153 -326 -153q-140 0 -224 76.5t-84 206.5q0 180 158 253q106 50 371 80l95 13v46q0 45 -5.5 69.5
t-21.5 44.5q-51 64 -178 64q-132 0 -181 -73q-17 -21 -23 -42.5t-6 -58.5h-170zM702 628q-63 -9 -116.5 -17.5t-131.5 -25.5q-110 -25 -154.5 -61.5t-44.5 -104.5t45 -106.5t125 -38.5q115 0 196 65.5t81 155.5v133zM583 1224h-86q-60 73 -119 145t-119 144h154z" />
    <glyph glyph-name="aacute" unicode="&#xe1;" horiz-adv-x="990" 
d="M119 806q0 70 12 107t42 80q96 133 326 133q232 0 317 -114q46 -58 46 -185v-453q0 -98 58 -98l47 4v-125q-37 -12 -57.5 -15.5t-43.5 -3.5q-133 0 -152 144q-138 -153 -326 -153q-140 0 -224 76.5t-84 206.5q0 180 158 253q106 50 371 80l95 13v46q0 45 -5.5 69.5
t-21.5 44.5q-51 64 -178 64q-132 0 -181 -73q-17 -21 -23 -42.5t-6 -58.5h-170zM702 628q-63 -9 -116.5 -17.5t-131.5 -25.5q-110 -25 -154.5 -61.5t-44.5 -104.5t45 -106.5t125 -38.5q115 0 196 65.5t81 155.5v133zM556 1513h154q-60 -72 -119 -144t-119 -145h-86z" />
    <glyph glyph-name="ccedilla" unicode="&#xe7;" horiz-adv-x="935" 
d="M738 772q-7 96 -69.5 147.5t-169.5 51.5q-128 0 -197 -91t-69 -261q0 -171 66 -263t189 -92q109 0 174.5 56.5t82.5 164.5h149q-7 -158 -110.5 -256.5t-271.5 -107.5v-68h22q89 0 137 -35.5t48 -100.5q0 -77 -52 -115t-155 -38q-45 0 -99.5 8t-114.5 25v81
q68 -16 123.5 -24.5t88.5 -8.5q44 0 68 17t24 48q0 34 -26 51.5t-79 17.5q-15 0 -27 -0.5t-23 -0.5v143q-176 17 -276.5 148.5t-100.5 343.5q0 232 115 365.5t314 133.5q175 0 281 -92.5t109 -247.5h-151z" />
    <glyph glyph-name="egrave" unicode="&#xe8;" horiz-adv-x="990" 
d="M927 574h-689q0 -146 70 -223t197 -77q195 0 238 191h171q-37 -160 -145 -249t-270 -89q-201 0 -317 133.5t-116 367.5q0 258 150 389q122 107 296 107q215 0 333 -154q44 -63 63.5 -138t19.5 -183zM763 722q0 120 -70.5 188t-184.5 68q-228 0 -264 -256h519zM578 1224
h-86q-60 73 -119 145t-119 144h154z" />
    <glyph glyph-name="eacute" unicode="&#xe9;" horiz-adv-x="990" 
d="M927 574h-689q0 -146 70 -223t197 -77q195 0 238 191h171q-37 -160 -145 -249t-270 -89q-201 0 -317 133.5t-116 367.5q0 258 150 389q122 107 296 107q215 0 333 -154q44 -63 63.5 -138t19.5 -183zM763 722q0 120 -70.5 188t-184.5 68q-228 0 -264 -256h519zM556 1513
h154q-60 -72 -119 -144t-119 -145h-86z" />
    <glyph glyph-name="ecircumflex" unicode="&#xea;" horiz-adv-x="990" 
d="M927 574h-689q0 -146 70 -223t197 -77q195 0 238 191h171q-37 -160 -145 -249t-270 -89q-201 0 -317 133.5t-116 367.5q0 258 150 389q122 107 296 107q215 0 333 -154q44 -63 63.5 -138t19.5 -183zM763 722q0 120 -70.5 188t-184.5 68q-228 0 -264 -256h519zM244 1224
q43 75 82.5 144.5t82.5 144.5h161q42 -74 82.5 -144.5t82.5 -144.5h-89l-157 206q-38 -50 -79 -103.5t-79 -102.5h-87z" />
    <glyph glyph-name="ocircumflex" unicode="&#xf4;" horiz-adv-x="990" 
d="M66 628q0 235 114 366.5t317 131.5t317 -131.5t114 -366.5q0 -234 -114 -367.5t-317 -133.5q-201 0 -316 133t-115 368zM240 628q0 -167 68 -260.5t189 -93.5q123 0 189.5 93.5t66.5 265.5q0 163 -67 254t-189 91q-123 0 -190 -91.5t-67 -258.5zM244 1224
q43 75 82.5 144.5t82.5 144.5h161q42 -74 82.5 -144.5t82.5 -144.5h-89l-157 206q-38 -50 -79 -103.5t-79 -102.5h-87z" />
    <glyph glyph-name="divide" unicode="&#xf7;" horiz-adv-x="1484" 
d="M743 469q44 0 76.5 -32t32.5 -76q0 -46 -32 -77.5t-77 -31.5q-46 0 -77.5 31t-31.5 78q0 44 32.5 76t76.5 32zM1263 742v-121h-1042v121h1042zM743 1112q44 0 76.5 -32.5t32.5 -77.5t-32 -77t-77 -32t-77 31.5t-32 77.5q0 45 32.5 77.5t76.5 32.5z" />
    <glyph glyph-name="oe" unicode="&#x153;" horiz-adv-x="1656" 
d="M237 617q0 -170 68.5 -263.5t193.5 -93.5q121 0 192.5 101.5t71.5 276.5q0 155 -69.5 245t-187.5 90q-128 0 -198.5 -93t-70.5 -263zM920 701h509v5q0 124 -67 195.5t-184 71.5q-111 0 -181 -74t-77 -198zM828 308q-52 -94 -134.5 -141t-198.5 -47q-199 0 -311.5 128
t-112.5 354q0 244 113.5 377t320.5 133q115 0 199 -44t137 -132q64 87 148.5 131.5t188.5 44.5q196 0 307 -124.5t111 -345.5q0 -20 -3 -65v-5h-675q2 -145 73.5 -227.5t195.5 -82.5q94 0 156 49.5t80 139.5h156q-26 -153 -135 -242t-270 -89q-120 0 -208.5 48t-137.5 140z
" />
    <glyph glyph-name="arabiccomma" unicode="&#x60c;" horiz-adv-x="471" 
d="M318 156q-60 -14 -110 6.5t-84 79.5q-23 37 -30 74.5t-2.5 76t18.5 77.5t34 80q36 71 90.5 122.5t117.5 78.5q-101 -162 -101 -265q0 -61 30.5 -100.5t96.5 -58.5z" />
    <glyph glyph-name="arabicsemicolon" unicode="&#x61b;" horiz-adv-x="565" 
d="M419 275q0 -28 -10.5 -53t-29 -43.5t-43.5 -29.5t-53 -11t-52.5 11t-43 29.5t-29 43.5t-10.5 53t10.5 53t29 43.5t43 29t52.5 10.5t53 -10.5t43.5 -29t29 -43.5t10.5 -53zM325 525q-49 -13 -90.5 7.5t-70.5 66.5q-17 33 -22.5 64.5t-2 63.5t14.5 65t28 69q32 58 72.5 100
t93.5 66q-81 -134 -81 -221q0 -104 110 -139z" />
    <glyph glyph-name="arabicquestionmark" unicode="&#x61f;" horiz-adv-x="961" 
d="M639 275q0 -28 -10.5 -53t-29.5 -43.5t-44 -29.5t-53 -11t-52.5 11t-43 29.5t-29 43.5t-10.5 53t10.5 53t29 43.5t43 29t52.5 10.5t53 -10.5t44 -29t29.5 -43.5t10.5 -53zM708 1335q37 -9 63 -23t42.5 -30.5t23.5 -34.5t7 -36q0 -25 -10 -47.5t-25.5 -38.5t-35.5 -23
t-40 -1q-42 13 -92.5 26.5t-101.5 13.5q-30 0 -57 -6.5t-49 -22.5t-38 -42.5t-24 -65.5q5 -45 25 -82.5t47 -70t56.5 -62t54.5 -58.5t41.5 -60t16.5 -66q0 -34 -18 -58.5t-44.5 -35.5t-57 -7t-54.5 27q-42 36 -92.5 80t-95.5 101t-78.5 129.5t-41.5 164.5
q20 184 112.5 269.5t261.5 85.5q92 0 204 -26z" />
    <glyph glyph-name="hamza" unicode="&#x621;" horiz-adv-x="820" 
d="M218 384v377q0 139 61 200.5t175 61.5h254q20 0 35.5 -15t15.5 -36v-136q0 -20 -15.5 -34.5t-35.5 -14.5h-251v-403h251q20 0 35.5 -15t15.5 -35v-136q0 -21 -15.5 -36t-35.5 -15h-601q-21 0 -35.5 15t-14.5 36v136q0 20 14.5 35t35.5 15h111z" />
    <glyph glyph-name="alefwithmaddaabove" unicode="&#x622;" horiz-adv-x="387" 
d="M77 1291q0 21 15 36t36 15h136q20 0 35 -15t15 -36v-1100q0 -21 -15 -35.5t-35 -14.5h-136q-21 0 -36 14.5t-15 35.5v1100zM50 1412q-11 0 -19.5 8.5t-8.5 20.5v37q0 13 8.5 21t19.5 8h308q11 0 19 -8t8 -21v-37q0 -12 -8 -20.5t-19 -8.5h-308z" />
    <glyph glyph-name="alefwithhamzaabove" unicode="&#x623;" horiz-adv-x="387" 
d="M77 1291q0 21 15 36t36 15h136q20 0 35 -15t15 -36v-1100q0 -21 -15 -35.5t-35 -14.5h-136q-21 0 -36 14.5t-15 35.5v1100zM84 -177v77q0 62 26.5 89t77.5 27h93q15 0 26 -11t11 -26v-51q0 -15 -11 -26t-26 -11h-74v-68h74q15 0 26 -11.5t11 -26.5v-49q0 -16 -11 -27
t-26 -11h-219q-17 0 -27.5 11t-10.5 27v49q0 15 10.5 26.5t27.5 11.5h22z" />
    <glyph glyph-name="wawwithhamzaabove" unicode="&#x624;" horiz-adv-x="846" 
d="M146 -333q-23 2 -39.5 16t-16.5 35v135q0 21 15 36.5t36 15.5h24q12 0 26 -2q16 -1 32 -1h33q48 0 95.5 8t88 34t70.5 74t44 129h-254q-57 0 -101 15t-74 47t-45.5 81.5t-15.5 119.5v351q0 139 60.5 200.5t175.5 61.5h243q114 0 175.5 -61.5t60.5 -200.5
q0 -145 -0.5 -289t-0.5 -289q0 -126 -38 -223t-107 -163.5t-167.5 -100.5t-220.5 -34q-23 0 -47 1t-51 4h-1zM300 384h242v403h-242v-403zM331 1297v85q0 68 29.5 98t84.5 30h103q17 0 29 -12t12 -30v-56q0 -16 -12 -28.5t-29 -12.5h-81v-74h81q17 0 29 -12t12 -29v-55
q0 -18 -12 -30t-29 -12h-241q-17 0 -29.5 12t-12.5 30v55q0 17 12.5 29t29.5 12h24z" />
    <glyph glyph-name="alefwithhamzabelow" unicode="&#x625;" horiz-adv-x="387" 
d="M77 1291q0 21 15 36t36 15h136q20 0 35 -15t15 -36v-1100q0 -21 -15 -35.5t-35 -14.5h-136q-21 0 -36 14.5t-15 35.5v1100zM109 1573v79q0 61 26.5 87.5t77.5 26.5h93q15 0 25.5 -10.5t10.5 -26.5v-50q0 -15 -10.5 -26t-25.5 -11h-74v-69h74q15 0 25.5 -10.5t10.5 -26.5
v-50q0 -16 -10.5 -26.5t-25.5 -10.5h-220q-16 0 -26.5 10.5t-10.5 26.5v50q0 16 10.5 26.5t26.5 10.5h23z" />
    <glyph glyph-name="yehwithhamzaabove" unicode="&#x626;" horiz-adv-x="1163" 
d="M1053 1023q21 0 35 -15.5t14 -36.5v-135q0 -21 -14 -35.5t-35 -14.5l-227 1v-403h188q99 -3 99 -180q0 -22 -2 -48t-4 -55v1q-14 -101 -60 -183t-116.5 -140t-160 -89t-189.5 -31q-139 5 -236.5 57.5t-158.5 138t-89 197.5t-27 237q0 11 0.5 23.5t0.5 34.5v56v87
q0 21 15 36t36 15h137q20 0 35.5 -15t15.5 -36v-196q-1 -43 2 -88t13.5 -87.5t30 -80.5t52.5 -68t81.5 -49t115.5 -23q46 -2 92 13.5t85.5 48t68 79.5t39.5 108q-79 0 -136 18t-93.5 52t-53.5 83t-17 110v351q0 139 60.5 201t175.5 61h227zM100 793v85q0 69 29.5 98.5
t85.5 29.5h103q16 0 28 -12t12 -29v-55q0 -17 -12 -29.5t-28 -12.5h-82v-75h82q16 0 28 -12t12 -29v-55q0 -17 -12 -29t-28 -12h-242q-17 0 -29 12t-12 29v55q0 17 12 29t29 12h24z" />
    <glyph glyph-name="arabicalef" unicode="&#x627;" horiz-adv-x="387" 
d="M77 1291q0 21 15 36t36 15h136q20 0 35 -15t15 -36v-1100q0 -21 -15 -35.5t-35 -14.5h-136q-21 0 -36 14.5t-15 35.5v1100z" />
    <glyph glyph-name="beh" unicode="&#x628;" horiz-adv-x="1294" 
d="M285 384h715v586q0 20 15.5 35.5t36.5 15.5h136q21 0 36 -15.5t15 -35.5l-1 -560q0 -70 -15.5 -119.5t-45.5 -81.5t-74 -47t-101 -15h-717q-57 0 -101 15t-74 47t-45.5 81.5t-15.5 119.5v80q0 20 14.5 35t35.5 15h136q21 0 35.5 -15t14.5 -35v-106zM750 -134
q0 -25 -9.5 -46.5t-25.5 -38t-38 -26t-46 -9.5q-25 0 -46.5 9.5t-37.5 26t-25 38t-9 46.5q0 24 9 45.5t25 37.5t37.5 25.5t46.5 9.5q24 0 46 -9.5t38 -25.5t25.5 -37.5t9.5 -45.5z" />
    <glyph glyph-name="tehmarbuta" unicode="&#x629;" horiz-adv-x="840" 
d="M293 147q-57 0 -101 15t-74 47t-45.5 81.5t-15.5 119.5v351q0 139 61 200.5t175 61.5h243q114 0 175.5 -61.5t61.5 -200.5v-351q0 -70 -15.5 -119.5t-45.5 -81.5t-74 -47t-101 -15h-244zM536 384v403h-242v-403h242zM397 1306q0 -24 -9.5 -46t-25.5 -38t-37.5 -25.5
t-46.5 -9.5q-24 0 -45.5 9.5t-37.5 25.5t-25.5 38t-9.5 46t9.5 46t25.5 38t37.5 25.5t45.5 9.5q25 0 46.5 -9.5t37.5 -25.5t25.5 -38t9.5 -46zM685 1306q0 -24 -9.5 -46t-26 -38t-38 -25.5t-46.5 -9.5q-24 0 -45.5 9.5t-37 25.5t-25 38t-9.5 46t9.5 46t25 38t37 25.5
t45.5 9.5q25 0 46.5 -9.5t38 -25.5t26 -38t9.5 -46z" />
    <glyph glyph-name="teh" unicode="&#x62a;" horiz-adv-x="1294" 
d="M285 384h715v586q0 20 15.5 35.5t36.5 15.5h136q21 0 36 -15.5t15 -35.5l-1 -560q0 -70 -15.5 -119.5t-45.5 -81.5t-74 -47t-101 -15h-717q-57 0 -101 15t-74 47t-45.5 81.5t-15.5 119.5v80q0 20 14.5 35t35.5 15h136q21 0 35.5 -15t14.5 -35v-106zM846 1075
q0 -24 -9.5 -46t-26 -38t-38 -25.5t-46.5 -9.5q-24 0 -45.5 9.5t-37 25.5t-25 38t-9.5 46t9.5 46t25 38t37 25.5t45.5 9.5q25 0 46.5 -9.5t38 -25.5t26 -38t9.5 -46zM558 1075q0 -24 -9.5 -46t-25.5 -38t-37.5 -25.5t-46.5 -9.5q-24 0 -45.5 9.5t-37.5 25.5t-25.5 38
t-9.5 46t9.5 46t25.5 38t37.5 25.5t45.5 9.5q25 0 46.5 -9.5t37.5 -25.5t25.5 -38t9.5 -46z" />
    <glyph glyph-name="theh" unicode="&#x62b;" horiz-adv-x="1294" 
d="M285 384h715v586q0 20 15.5 35.5t36.5 15.5h136q21 0 36 -15.5t15 -35.5l-1 -560q0 -70 -15.5 -119.5t-45.5 -81.5t-74 -47t-101 -15h-717q-57 0 -101 15t-74 47t-45.5 81.5t-15.5 119.5v80q0 20 14.5 35t35.5 15h136q21 0 35.5 -15t14.5 -35v-106zM886 1160
q0 -24 -9.5 -45.5t-25.5 -37.5t-37.5 -25.5t-46.5 -9.5q-24 0 -45.5 9.5t-37.5 25.5t-25.5 37.5t-9.5 45.5t9.5 46t25.5 38t37.5 25.5t45.5 9.5q25 0 46.5 -9.5t37.5 -25.5t25.5 -38t9.5 -46zM599 1160q0 -24 -9.5 -45.5t-26 -37.5t-38 -25.5t-46.5 -9.5q-24 0 -45.5 9.5
t-37.5 25.5t-25.5 37.5t-9.5 45.5t9.5 46t25.5 38t37.5 25.5t45.5 9.5q25 0 46.5 -9.5t38 -25.5t26 -38t9.5 -46zM745 1422q0 -24 -9.5 -45.5t-25.5 -37.5t-37.5 -25.5t-46.5 -9.5q-24 0 -45.5 9.5t-37.5 25.5t-25.5 37.5t-9.5 45.5t9.5 46t25.5 38t37.5 25.5t45.5 9.5
q25 0 46.5 -9.5t37.5 -25.5t25.5 -38t9.5 -46z" />
    <glyph glyph-name="jeem" unicode="&#x62c;" horiz-adv-x="931" 
d="M449 486q22 2 42.5 2.5t40.5 0.5h117v104q-11 63 -39.5 100.5t-67.5 57.5t-86.5 26t-95.5 6h-32t-33 -1q-14 -1 -26 -1h-25q-20 0 -34.5 14.5t-14.5 35.5v137q0 20 16.5 34t39.5 16q26 4 50 4.5t47 0.5q112 0 203.5 -28.5t159.5 -84.5t109.5 -138t53.5 -189v5l3 -287
q2 -20 -13.5 -34.5t-36.5 -14.5h-190q-70 0 -109 -0.5t-56 -2t-29 -4.5h1q-33 -6 -62.5 -18.5t-53 -34t-40.5 -53t-24 -76.5v-60q11 -62 39 -100t67 -58t86 -26.5t96 -6.5h31q17 0 32 1t27 1h26q20 0 35 -14.5t15 -35.5v-137q0 -20 -16.5 -33.5t-39.5 -15.5q-26 -4 -50 -5.5
t-47 -1.5q-102 0 -187.5 24t-151.5 69q-46 32 -80.5 72.5t-58 87t-35 97.5t-11.5 102q0 83 28.5 163.5t87.5 146.5q54 63 128.5 101.5t163.5 52.5v-1zM609 28q0 -25 -9.5 -46.5t-25.5 -38t-38 -26t-46 -9.5t-45.5 9.5t-37.5 26t-25.5 38t-9.5 46.5q0 24 9.5 46t25.5 38
t37.5 25.5t45.5 9.5t46 -9.5t38 -25.5t25.5 -38t9.5 -46z" />
    <glyph glyph-name="hah" unicode="&#x62d;" horiz-adv-x="931" 
d="M449 486q22 2 42.5 2.5t40.5 0.5h117v104q-11 63 -39.5 100.5t-67.5 57.5t-86.5 26t-95.5 6h-32t-33 -1q-14 -1 -26 -1h-25q-20 0 -34.5 14.5t-14.5 35.5v137q0 20 16.5 34t39.5 16q26 4 50 4.5t47 0.5q112 0 203.5 -28.5t159.5 -84.5t109.5 -138t53.5 -189v5l3 -287
q2 -20 -13.5 -34.5t-36.5 -14.5h-190q-70 0 -109 -0.5t-56 -2t-29 -4.5h1q-33 -6 -62.5 -18.5t-53 -34t-40.5 -53t-24 -76.5v-60q11 -62 39 -100t67 -58t86 -26.5t96 -6.5h31q17 0 32 1t27 1h26q20 0 35 -14.5t15 -35.5v-137q0 -20 -16.5 -33.5t-39.5 -15.5q-26 -4 -50 -5.5
t-47 -1.5q-102 0 -187.5 24t-151.5 69q-46 32 -80.5 72.5t-58 87t-35 97.5t-11.5 102q0 83 28.5 163.5t87.5 146.5q54 63 128.5 101.5t163.5 52.5v-1z" />
    <glyph glyph-name="khah" unicode="&#x62e;" horiz-adv-x="931" 
d="M449 486q22 2 42.5 2.5t40.5 0.5h117v104q-11 63 -39.5 100.5t-67.5 57.5t-86.5 26t-95.5 6h-32t-33 -1q-14 -1 -26 -1h-25q-20 0 -34.5 14.5t-14.5 35.5v137q0 20 16.5 34t39.5 16q26 4 50 4.5t47 0.5q112 0 203.5 -28.5t159.5 -84.5t109.5 -138t53.5 -189v5l3 -287
q2 -20 -13.5 -34.5t-36.5 -14.5h-190q-70 0 -109 -0.5t-56 -2t-29 -4.5h1q-33 -6 -62.5 -18.5t-53 -34t-40.5 -53t-24 -76.5v-60q11 -62 39 -100t67 -58t86 -26.5t96 -6.5h31q17 0 32 1t27 1h26q20 0 35 -14.5t15 -35.5v-137q0 -20 -16.5 -33.5t-39.5 -15.5q-26 -4 -50 -5.5
t-47 -1.5q-102 0 -187.5 24t-151.5 69q-46 32 -80.5 72.5t-58 87t-35 97.5t-11.5 102q0 83 28.5 163.5t87.5 146.5q54 63 128.5 101.5t163.5 52.5v-1zM574 1306q0 -24 -9.5 -46t-25.5 -38t-38 -25.5t-46 -9.5t-45.5 9.5t-37 25.5t-25 38t-9.5 46t9.5 46t25 38t37 25.5
t45.5 9.5t46 -9.5t38 -25.5t25.5 -38t9.5 -46z" />
    <glyph glyph-name="dal" unicode="&#x62f;" horiz-adv-x="831" 
d="M539 384v403h-356q-22 0 -36.5 14.5t-14.5 34.5v136q0 21 14.5 36t36.5 15h356q115 0 176 -61.5t61 -200.5v-351q0 -140 -61 -201.5t-176 -61.5h-438q-22 0 -36.5 15t-14.5 36v136q0 20 14.5 35t36.5 15h438z" />
    <glyph glyph-name="thal" unicode="&#x630;" horiz-adv-x="831" 
d="M539 384v403h-356q-22 0 -36.5 14.5t-14.5 34.5v136q0 21 14.5 36t36.5 15h356q115 0 176 -61.5t61 -200.5v-351q0 -140 -61 -201.5t-176 -61.5h-438q-22 0 -36.5 15t-14.5 36v136q0 20 14.5 35t36.5 15h438zM508 1306q0 -24 -9.5 -46t-25.5 -38t-38 -25.5t-46 -9.5
t-45.5 9.5t-37.5 25.5t-25.5 38t-9.5 46t9.5 46t25.5 38t37.5 25.5t45.5 9.5t46 -9.5t38 -25.5t25.5 -38t9.5 -46z" />
    <glyph glyph-name="reh" unicode="&#x631;" horiz-adv-x="624" 
d="M101 -95q41 3 78.5 13t68 31t52.5 56t31 88v886q0 20 13.5 32t33.5 12h155q17 0 27 -12t10 -32l-3 -796q0 -109 -29 -196.5t-82.5 -152t-129.5 -106t-169 -57.5h-1q0 -1 -2 -1q-15 -2 -30 -3.5t-29 -1.5h-12q-6 0 -14 2q-23 2 -39.5 16t-16.5 35v135q0 21 15 36.5
t36 15.5h37z" />
    <glyph glyph-name="zain" unicode="&#x632;" horiz-adv-x="624" 
d="M101 -95q41 3 78.5 13t68 31t52.5 56t31 88v886q0 20 13.5 32t33.5 12h155q17 0 27 -12t10 -32l-3 -796q0 -109 -29 -196.5t-82.5 -152t-129.5 -106t-169 -57.5h-1q0 -1 -2 -1q-15 -2 -30 -3.5t-29 -1.5h-12q-6 0 -14 2q-23 2 -39.5 16t-16.5 35v135q0 21 15 36.5
t36 15.5h37zM573 1306q0 -24 -9.5 -46t-25.5 -38t-38 -25.5t-46 -9.5t-45 9.5t-37 25.5t-25.5 38t-9.5 46t9.5 46t25.5 38t37 25.5t45 9.5t46 -9.5t38 -25.5t25.5 -38t9.5 -46z" />
    <glyph glyph-name="seen" unicode="&#x633;" horiz-adv-x="2120" 
d="M1584 384h242v586q0 20 15.5 35.5t35.5 15.5h136q21 0 36.5 -15.5t15.5 -35.5v-560q0 -70 -16 -119.5t-46.5 -81.5t-75 -47t-101.5 -15h-726q-5 -103 -50.5 -192t-120 -154.5t-171 -103.5t-203.5 -38q-139 5 -237 58t-159.5 139t-89 198t-25.5 237v30q0 20 0.5 58
t0.5 111q0 21 14.5 36t35.5 15h136q21 0 36 -15t15 -36v-197q0 -43 3 -89t13.5 -90t30.5 -83.5t53.5 -69t82.5 -46.5t117 -17q91 1 147 31t86.5 76.5t40.5 103t10 110.5l-1 751q0 20 14.5 35.5t35.5 15.5h138q20 0 35 -15.5t14 -35.5v-586h244v586q0 20 15 35.5t36 15.5h136
q21 0 36 -15.5t15 -35.5v-586z" />
    <glyph glyph-name="sheen" unicode="&#x634;" horiz-adv-x="2120" 
d="M1584 384h242v586q0 20 15.5 35.5t35.5 15.5h136q21 0 36.5 -15.5t15.5 -35.5v-560q0 -70 -16 -119.5t-46.5 -81.5t-75 -47t-101.5 -15h-726q-5 -103 -50.5 -192t-120 -154.5t-171 -103.5t-203.5 -38q-139 5 -237 58t-159.5 139t-89 198t-25.5 237v30q0 20 0.5 58
t0.5 111q0 21 14.5 36t35.5 15h136q21 0 36 -15t15 -36v-197q0 -43 3 -89t13.5 -90t30.5 -83.5t53.5 -69t82.5 -46.5t117 -17q91 1 147 31t86.5 76.5t40.5 103t10 110.5l-1 751q0 20 14.5 35.5t35.5 15.5h138q20 0 35 -15.5t14 -35.5v-586h244v586q0 20 15 35.5t36 15.5h136
q21 0 36 -15.5t15 -35.5v-586zM1717 1306q0 -24 -9.5 -46t-25.5 -38t-38 -25.5t-46 -9.5t-45.5 9.5t-37.5 25.5t-25.5 38t-9.5 46t9.5 46t25.5 38t37.5 25.5t45.5 9.5t46 -9.5t38 -25.5t25.5 -38t9.5 -46zM1429 1306q0 -24 -9.5 -46t-25.5 -38t-38 -25.5t-46 -9.5t-45 9.5
t-37 25.5t-25.5 38t-9.5 46t9.5 46t25.5 38t37 25.5t45 9.5t46 -9.5t38 -25.5t25.5 -38t9.5 -46zM1576 1568q0 -24 -9.5 -46t-25.5 -38t-38 -25.5t-46 -9.5t-45.5 9.5t-37.5 25.5t-25.5 38t-9.5 46t9.5 45.5t25.5 37.5t37.5 25.5t45.5 9.5t46 -9.5t38 -25.5t25.5 -37.5
t9.5 -45.5z" />
    <glyph glyph-name="sad" unicode="&#x635;" horiz-adv-x="2099" 
d="M1822 863q114 0 175 -61t61 -201v-191q0 -70 -15.5 -119.5t-45.5 -81.5t-74 -47t-101 -15h-722q-9 -108 -56 -199t-120.5 -156.5t-168.5 -100.5t-201 -32q-139 5 -237 57.5t-159.5 138t-89 197.5t-26.5 237q0 11 0.5 23.5t0.5 34.5v56v87q0 21 14.5 36t35.5 15h137
q21 0 36 -15t15 -36v-196q-1 -43 2.5 -89t14 -90t30.5 -83.5t53.5 -69.5t82 -47t116.5 -17q92 1 148.5 31t87 76.5t40.5 103t10 110.5l-3 382q0 140 61.5 201t176.5 61h721zM1822 384l-1 243h-720v-243h721z" />
    <glyph glyph-name="dad" unicode="&#x636;" horiz-adv-x="2099" 
d="M1822 863q114 0 175 -61t61 -201v-191q0 -70 -15.5 -119.5t-45.5 -81.5t-74 -47t-101 -15h-722q-9 -108 -56 -199t-120.5 -156.5t-168.5 -100.5t-201 -32q-139 5 -237 57.5t-159.5 138t-89 197.5t-26.5 237q0 11 0.5 23.5t0.5 34.5v56v87q0 21 14.5 36t35.5 15h137
q21 0 36 -15t15 -36v-196q-1 -43 2.5 -89t14 -90t30.5 -83.5t53.5 -69.5t82 -47t116.5 -17q92 1 148.5 31t87 76.5t40.5 103t10 110.5l-3 382q0 140 61.5 201t176.5 61h721zM1822 384l-1 243h-720v-243h721zM1559 1140q0 -24 -9.5 -45.5t-25.5 -37.5t-38 -25.5t-46 -9.5
t-45.5 9.5t-37.5 25.5t-25.5 37.5t-9.5 45.5t9.5 46t25.5 38t37.5 25.5t45.5 9.5t46 -9.5t38 -25.5t25.5 -38t9.5 -46z" />
    <glyph glyph-name="tah" unicode="&#x637;" horiz-adv-x="1490" 
d="M242 1291q0 21 14.5 36t34.5 15h136q21 0 36 -15t15 -36v-428h720q58 0 102 -14.5t74 -46t45.5 -81.5t15.5 -120v-191q1 -140 -60.5 -201.5t-176.5 -61.5h-1101q-20 0 -35 15t-15 36v136q0 20 15 35t35 15h145v907zM1198 384v243h-720v-243h720z" />
    <glyph glyph-name="zah" unicode="&#x638;" horiz-adv-x="1490" 
d="M242 1291q0 21 14.5 36t34.5 15h136q21 0 36 -15t15 -36v-428h720q58 0 102 -14.5t74 -46t45.5 -81.5t15.5 -120v-191q1 -140 -60.5 -201.5t-176.5 -61.5h-1101q-20 0 -35 15t-15 36v136q0 20 15 35t35 15h145v907zM1198 384v243h-720v-243h720zM972 1140
q0 -24 -9.5 -45.5t-25.5 -37.5t-37.5 -25.5t-46.5 -9.5q-24 0 -45.5 9.5t-37.5 25.5t-25.5 37.5t-9.5 45.5t9.5 46t25.5 38t37.5 25.5t45.5 9.5q25 0 46.5 -9.5t37.5 -25.5t25.5 -38t9.5 -46z" />
    <glyph glyph-name="ain" unicode="&#x639;" horiz-adv-x="977" 
d="M185 761q0 139 61 200.5t175 61.5h439q20 0 35.5 -15t15.5 -36v-136q0 -20 -15.5 -34.5t-35.5 -14.5h-438v-308q52 6 85 8t54 2h298q21 0 36 -14.5t15 -35.5v-136q0 -21 -15 -35.5t-36 -14.5l-266 -1h-20q-24 0 -49.5 -0.5t-50.5 -6.5h1q-32 -7 -61 -19.5t-52.5 -34
t-40.5 -53t-25 -75.5v-60q11 -62 39 -100t67 -58t85.5 -26.5t95.5 -6.5h32t32 1t27 1h26q20 0 35.5 -14.5t15.5 -35.5v-137q0 -20 -17 -32t-40 -17q-126 -27 -236.5 -8.5t-195.5 70t-139.5 130t-69 172t16 195t116.5 199.5v425z" />
    <glyph glyph-name="ghain" unicode="&#x63a;" horiz-adv-x="977" 
d="M185 761q0 139 61 200.5t175 61.5h439q20 0 35.5 -15t15.5 -36v-136q0 -20 -15.5 -34.5t-35.5 -14.5h-438v-308q52 6 85 8t54 2h298q21 0 36 -14.5t15 -35.5v-136q0 -21 -15 -35.5t-36 -14.5l-266 -1h-20q-24 0 -49.5 -0.5t-50.5 -6.5h1q-32 -7 -61 -19.5t-52.5 -34
t-40.5 -53t-25 -75.5v-60q11 -62 39 -100t67 -58t85.5 -26.5t95.5 -6.5h32t32 1t27 1h26q20 0 35.5 -14.5t15.5 -35.5v-137q0 -20 -17 -32t-40 -17q-126 -27 -236.5 -8.5t-195.5 70t-139.5 130t-69 172t16 195t116.5 199.5v425zM685 1306q0 -24 -9.5 -46t-26 -38t-38 -25.5
t-46.5 -9.5q-24 0 -45.5 9.5t-37 25.5t-25 38t-9.5 46t9.5 46t25 38t37 25.5t45.5 9.5q25 0 46.5 -9.5t38 -25.5t26 -38t9.5 -46z" />
    <glyph glyph-name="tatweel" unicode="&#x640;" horiz-adv-x="488" 
d="M-3 384h495v-237h-495v237z" />
    <glyph glyph-name="feh" unicode="&#x641;" horiz-adv-x="1284" 
d="M282 384h235v377q0 139 60.5 200.5t175.5 61.5h242q115 0 176 -61.5t61 -200.5v-351q0 -70 -15.5 -119.5t-45.5 -81.5t-74 -47t-101 -15h-715q-57 0 -101 15t-74.5 47t-46 81.5t-15.5 119.5v80q0 20 14.5 35t35.5 15h136q22 0 37 -15t15 -35v-106zM753 384h242v403h-242
v-403zM995 1306q0 -24 -9.5 -46t-25.5 -38t-38 -25.5t-46 -9.5t-45.5 9.5t-37 25.5t-25 38t-9.5 46t9.5 46t25 38t37 25.5t45.5 9.5t46 -9.5t38 -25.5t25.5 -38t9.5 -46z" />
    <glyph glyph-name="qaf" unicode="&#x642;" horiz-adv-x="1311" 
d="M1248 191q-1 -73 -26 -141t-67.5 -127t-100.5 -107.5t-125 -83.5t-140.5 -54t-147.5 -19q-138 5 -244.5 58t-178 139t-108 198t-34.5 237v199q0 21 14 36t36 15h137q21 0 35 -15.5t15 -36.5v-196q-1 -43 6.5 -89t24.5 -90t44.5 -83.5t67 -69t92.5 -46.5t121 -17
q76 1 134 22.5t98.5 56t65 79t35.5 91.5h-234q-57 0 -101 15t-74 47t-45.5 81.5t-15.5 119.5v351q0 139 61 200.5t175 61.5h243q114 0 175.5 -61.5t61.5 -200.5v-570zM1009 384v225h2v178h-242v-403h240zM858 1306q0 -24 -9.5 -46t-25.5 -38t-38 -25.5t-46 -9.5t-45 9.5
t-37 25.5t-25.5 38t-9.5 46t9.5 46t25.5 38t37 25.5t45 9.5t46 -9.5t38 -25.5t25.5 -38t9.5 -46zM1146 1306q0 -24 -9.5 -46t-25.5 -38t-38 -25.5t-46 -9.5t-45.5 9.5t-37.5 25.5t-25.5 38t-9.5 46t9.5 46t25.5 38t37.5 25.5t45.5 9.5t46 -9.5t38 -25.5t25.5 -38t9.5 -46z
" />
    <glyph glyph-name="arabickaf" unicode="&#x643;" horiz-adv-x="1379" 
d="M1087 384v243h-902q-20 0 -35 14.5t-15 35.5q0 57 -0.5 113t-0.5 113q16 99 60.5 180t112.5 138.5t157 89.5t196 32q46 0 100 -6q23 -2 40 -16t17 -35v-136q0 -21 -15.5 -35.5t-35.5 -14.5q-30 0 -59 1t-59 1q-47 0 -93 -8t-86 -33t-71 -72t-47 -126h736q115 0 176.5 -61
t61.5 -201l-2 -403q0 -21 -14.5 -36t-35.5 -15h-1177q-20 0 -35 15t-15 36v136q0 20 15 35t35 15h991z" />
    <glyph glyph-name="lam" unicode="&#x644;" horiz-adv-x="1182" 
d="M1112 191q-4 -110 -48.5 -207.5t-118.5 -170.5t-172 -115t-209 -39q-144 2 -242 54t-158 138t-86 200t-24 240v199q0 21 14.5 36t35.5 15h135q21 0 36.5 -15.5t15.5 -36.5v-195q0 -43 3 -89t14 -90t31 -83.5t53.5 -69.5t82 -47t116.5 -17q91 1 147 31t86.5 76.5t40.5 103
t10 110.5v23q0 13 -1 21v1028q0 21 15 36t36 15h136q21 0 36 -15t15 -36v-1100z" />
    <glyph glyph-name="meem" unicode="&#x645;" horiz-adv-x="1158" 
d="M49 -106q-2 14 -1.5 25.5t0.5 23.5q0 61 18 129t57.5 130.5t104 114t157.5 80.5v364q0 139 61 200.5t176 61.5h242q114 0 175 -61.5t62 -200.5v-351q0 -70 -15.5 -119.5t-46 -81.5t-74.5 -47t-101 -15h-258q-8 1 -19 1h-20q-283 0 -283 -282v-19t1 -19v-135
q0 -21 -14.5 -35t-35.5 -14h-136q-21 0 -35.5 14t-14.5 35v201zM864 384v403h-242v-403h242z" />
    <glyph glyph-name="noon" unicode="&#x646;" horiz-adv-x="1178" 
d="M1112 191q-1 -73 -21.5 -141t-56.5 -127t-86 -107.5t-110.5 -83.5t-129.5 -54t-143 -19q-138 5 -235.5 58t-159 139t-89 198t-25.5 237v199q0 21 14 36t36 15h137q21 0 35 -15.5t15 -36.5v-196q-1 -43 2.5 -89t14 -90t30.5 -83.5t53.5 -69t82.5 -46.5t117 -17
q91 1 147 31t86.5 76.5t40.5 103t10 110.5v23q0 13 -1 21v707q0 20 15.5 35.5t35.5 15.5h136q21 0 36.5 -15.5t14.5 -35.5zM659 1156q0 -25 -9.5 -46.5t-25.5 -37.5t-37.5 -25.5t-45.5 -9.5t-45.5 9.5t-37.5 25.5t-25.5 37.5t-9.5 46.5q0 24 9.5 46t25.5 38t37.5 25.5
t45.5 9.5t45.5 -9.5t37.5 -25.5t25.5 -38t9.5 -46z" />
    <glyph glyph-name="heh" unicode="&#x647;" horiz-adv-x="840" 
d="M293 147q-57 0 -101 15t-74 47t-45.5 81.5t-15.5 119.5v351q0 139 61 200.5t175 61.5h243q114 0 175.5 -61.5t61.5 -200.5v-351q0 -70 -15.5 -119.5t-45.5 -81.5t-74 -47t-101 -15h-244zM536 384v403h-242v-403h242z" />
    <glyph glyph-name="waw" unicode="&#x648;" horiz-adv-x="846" 
d="M146 -333q-23 2 -39.5 16t-16.5 35v135q0 21 15 36.5t36 15.5h24q12 0 26 -2q16 -1 32 -1h33q48 0 95.5 8t88 34t70.5 74t44 129h-254q-57 0 -101 15t-74 47t-45.5 81.5t-15.5 119.5v351q0 139 60.5 200.5t175.5 61.5h243q114 0 175.5 -61.5t60.5 -200.5
q0 -145 -0.5 -289t-0.5 -289q0 -126 -38 -223t-107 -163.5t-167.5 -100.5t-220.5 -34q-23 0 -47 1t-51 4h-1zM300 384h242v403h-242v-403z" />
    <glyph glyph-name="alefmaksura" unicode="&#x649;" horiz-adv-x="1158" 
d="M1037 1023q21 0 35.5 -15.5t14.5 -36.5v-135q0 -21 -14.5 -35.5t-35.5 -14.5l-226 1v-403h188q99 -3 99 -180q0 -22 -2.5 -48t-4.5 -55v1q-14 -101 -60 -183t-116 -140t-160 -89t-190 -31q-138 5 -235.5 57.5t-158.5 138t-89 197.5t-27 237q0 11 0.5 23.5t0.5 34.5v56v87
q0 21 14.5 36t35.5 15h138q20 0 35 -15t15 -36v-197q-1 -65 7 -132t38.5 -123.5t90 -95t160.5 -44.5q46 -2 92.5 13.5t85.5 48t67 79.5t39 108q-79 0 -135.5 18t-93 52t-54 83t-17.5 110v351q0 139 61 201t176 61h226z" />
    <glyph glyph-name="yeh" unicode="&#x64a;" horiz-adv-x="1148" 
d="M1033 1023q21 0 35 -15.5t14 -36.5v-135q0 -21 -14 -35.5t-35 -14.5l-227 1v-403h188q99 -3 99 -180q0 -22 -2 -48t-4 -55v1q-14 -101 -60 -183t-116.5 -140t-160 -89t-189.5 -31q-139 5 -236.5 57.5t-158.5 138t-89 197.5t-27 237v201q0 21 15.5 36t36.5 15h136
q21 0 36.5 -15t15.5 -36v-197q-2 -65 6.5 -132t39 -123.5t89.5 -95t160 -44.5q46 -2 92 13.5t85 48t68 79.5t40 108q-79 0 -136 18t-93.5 52t-53.5 83t-17 110v351q0 139 60 201t176 61h227zM830 -591q0 -25 -9.5 -46.5t-25.5 -38t-37.5 -26t-45.5 -9.5q-25 0 -46.5 9.5
t-37.5 26t-25.5 38t-9.5 46.5q0 24 9.5 45.5t25.5 37.5t37.5 25.5t46.5 9.5q24 0 45.5 -9.5t37.5 -25.5t25.5 -37.5t9.5 -45.5zM545 -591q0 -25 -9.5 -46.5t-25.5 -38t-37.5 -26t-46.5 -9.5q-24 0 -45.5 9.5t-37.5 26t-25.5 38t-9.5 46.5q0 24 9.5 45.5t25.5 37.5t37.5 25.5
t45.5 9.5q25 0 46.5 -9.5t37.5 -25.5t25.5 -37.5t9.5 -45.5z" />
    <glyph glyph-name="fathatan" unicode="&#x64b;" horiz-adv-x="408" 
d="M389 1675l-340 -193l17 91l340 193zM403 1842l-340 -193l17 91l340 193z" />
    <glyph glyph-name="dammatan" unicode="&#x64c;" horiz-adv-x="469" 
d="M409 1632q-6 -14 -19.5 -33.5t-32 -40t-40.5 -39.5t-45.5 -31t-47.5 -15t-46 8t-24 31.5t3 42t10.5 42t-2 32t-34.5 10.5t-86 -20q19 27 44.5 43.5t50.5 22t47 -1t34 -24.5t10.5 -48t-23.5 -72q46 20 85.5 44t71.5 62q-41 10 -60.5 31.5t-22 47.5t8 53t30 49.5t44 36
t49.5 12.5q21 -2 28 -24.5t6.5 -51t-6 -55.5t-8.5 -37l38 -12l-17 -76zM388 1793q-10 10 -23 10q-14 1 -22.5 -8.5t-8.5 -21.5q-2 -11 3 -19t14 -14t20.5 -11.5t24.5 -11.5q2 19 2 35q0 14 -2.5 26.5t-7.5 16.5v-2z" />
    <glyph glyph-name="kasratan" unicode="&#x64d;" horiz-adv-x="408" 
d="M405 -148l-340 -193l17 91l340 193zM378 -316l-340 -193l17 91l340 193z" />
    <glyph glyph-name="fatha" unicode="&#x64e;" horiz-adv-x="408" 
d="M389 1675l-340 -193l17 91l340 193z" />
    <glyph glyph-name="damma" unicode="&#x64f;" horiz-adv-x="414" 
d="M366 1664q-11 -23 -37.5 -52.5t-62.5 -55t-78.5 -42.5t-85.5 -15q-29 2 -47.5 3t-28.5 2t-12.5 1.5t-0.5 1.5q61 25 105.5 43t79 36t62.5 39.5t56 54.5q-47 11 -69 34t-25.5 51t9 57.5t34 53.5t49.5 38.5t56 13.5q16 -1 25 -12.5t12.5 -29t2.5 -39t-3.5 -41.5t-6.5 -36.5
t-7 -24.5l44 -13l-19 -80zM341 1841q-5 6 -12 8t-12 2q-17 2 -27 -8.5t-11 -24.5q-2 -25 20 -37t51 -23q2 20 2 38q0 15 -2 28.5t-9 18.5v-2z" />
    <glyph glyph-name="kasra" unicode="&#x650;" horiz-adv-x="408" 
d="M395 -148l-340 -193l17 91l340 193z" />
    <glyph glyph-name="shadda" unicode="&#x651;" horiz-adv-x="425" 
d="M398 1823q11 -17 17.5 -36t11.5 -38q6 -33 3 -67t-15 -62t-33 -45.5t-51 -17.5q-25 0 -37.5 9t-27.5 23q-6 -10 -15 -23t-22 -25t-31 -21t-40 -11q-35 -3 -56 10t-31 35t-11.5 49.5t2 53.5t10.5 47.5t14 31.5q0 -3 5 1t11.5 9t11.5 8.5t5 0.5q-8 -20 -13.5 -46.5t-3 -50
t14 -39.5t37.5 -15q29 0 44.5 16t23.5 37.5t12.5 44.5t12.5 38q1 -3 5 0t9 7.5t9.5 8t5.5 0.5q-8 -29 -2.5 -54t19.5 -40t35.5 -18t46.5 14q6 9 5.5 22t-4.5 26.5t-11 27t-14 23.5q13 18 24.5 34t22.5 32z" />
    <glyph glyph-name="sukun" unicode="&#x652;" horiz-adv-x="328" 
d="M347 1696q5 -34 -10 -71.5t-41 -87.5v1q0 1 1 2l-3 -5q-24 -14 -61.5 -26.5t-74 -15t-65 11t-34.5 51.5q-5 33 3.5 75.5t27 81.5t46 67t59.5 33q28 4 54 -6.5t46.5 -28.5t34.5 -40.5t17 -41.5zM283 1628q-3 14 -13.5 30t-25 29.5t-31.5 22t-35 5.5q-30 -5 -44 -27
t-11 -45q3 -22 21 -32.5t42 -11t50 6.5t46 21zM296 1537q0 -1 -1 -1zM295 1536q0 -1 -1 -1z" />
    <glyph glyph-name="arabicindicdigitzero" unicode="&#x660;" horiz-adv-x="1149" 
d="M739 733q-24 -80 -44.5 -150.5t-42.5 -148.5q-35 20 -64.5 37.5t-57.5 34.5t-57 34t-62 37q23 81 43.5 153.5t43.5 151.5z" />
    <glyph glyph-name="arabicindicdigitone" unicode="&#x661;" horiz-adv-x="1149" 
d="M760 372q0 -310 -46 -310q-2 0 -6.5 24.5t-12 65.5t-17 95t-22 113t-27 120t-31.5 115q-69 209 -209 445q0 11 4.5 37t12 58.5t17 67.5t19.5 64t19 47.5t16 18.5q11 0 42 -55q117 -203 179.5 -430.5t61.5 -475.5z" />
    <glyph glyph-name="arabicindicdigittwo" unicode="&#x662;" horiz-adv-x="1149" 
d="M909 1243q0 -378 -245 -420l-35 -23q26 -77 47 -174t30 -197.5t3 -195t-34 -165.5q-26 9 -33.5 36t-15.5 81q-21 109 -48.5 215.5t-61.5 206t-74 190t-85 166.5l-117 167l108 190q25 -33 51.5 -68t58 -62.5t69.5 -44.5t86 -15q47 0 81 5.5t62.5 22.5t55.5 48.5t60 84.5
q19 31 40 31q-2 0 -2.5 -23.5t-0.5 -55.5z" />
    <glyph glyph-name="arabicindicdigitthree" unicode="&#x663;" horiz-adv-x="1149" 
d="M1048 1220q0 -64 -16 -127t-43 -113.5t-64 -81.5t-79 -31q-18 0 -52 10t-67 22q-39 14 -82 33q-45 -38 -96 -72t-110 -63q66 -279 66 -508q0 -227 -48 -227q-12 0 -20.5 19.5t-14.5 52t-11 76t-10 91.5q-5 44 -18 101.5t-32 121t-42 128.5t-47 124.5t-47.5 110
t-43.5 83.5q-14 18 -26.5 37t-22 34t-15.5 25t-6 11q0 4 13.5 27t32 51.5t38 57.5t32.5 46q40 -41 76.5 -77.5t68.5 -64t60 -43.5t52 -16q38 0 80 36.5t88 106.5q35 54 57 85.5t31 28.5q6 -17 11 -37.5t9.5 -38.5t7.5 -31.5t5 -17.5q33 -65 129 -65q55 0 96 94q29 59 43 59
q17 0 17 -58z" />
    <glyph glyph-name="arabicindicdigitfour" unicode="&#x664;" horiz-adv-x="1149" 
d="M477 448q75 -46 168.5 -77t201.5 -62q-7 -40 -81 -236q-29 -2 -73.5 4t-95 19.5t-101.5 34t-92 46t-66.5 56.5t-25.5 65q0 67 74 177q6 10 139 185q-20 28 -49.5 50.5t-61.5 45t-62 46.5t-51 54q-6 47 8.5 100t44 105.5t70 102t86 89.5t92 67.5t88.5 36.5
q-5 -29 -8.5 -53.5t-7.5 -47.5t-7.5 -46.5t-7.5 -50.5q-32 -7 -65 -18.5t-59 -26t-42.5 -31t-16.5 -34.5q0 -23 33.5 -49.5t98.5 -56.5q64 -30 98 -45.5t34 -35.5q0 -39 -27 -85t-81 -102q-67 -68 -105.5 -125t-49.5 -102z" />
    <glyph glyph-name="arabicindicdigitfive" unicode="&#x665;" horiz-adv-x="1149" 
d="M608 1182q26 0 60 -22t69.5 -57t69.5 -79t59.5 -87.5t40 -83t10.5 -64.5q0 -138 -26 -237.5t-78.5 -163.5t-133 -94.5t-189.5 -30.5q-255 0 -255 259q0 39 14 103.5t39 138t59.5 148t76 134.5t88.5 98t96 38zM481 928q-21 -20 -42.5 -53.5t-39 -72t-29 -75.5t-11.5 -62
q0 -48 26.5 -80t68.5 -50t93.5 -22t101.5 4t93 27t68 48l4 35q-163 299 -333 301z" />
    <glyph glyph-name="arabicindicdigitsix" unicode="&#x666;" horiz-adv-x="1149" 
d="M791 1185q-1 -22 -7 -65.5t-13 -91t-13 -91t-6 -65.5q0 -309 195 -546q1 -10 -2 -33t-8.5 -51.5t-13 -59t-15 -56t-15 -42t-13.5 -16.5q-26 0 -59 50.5t-70 138.5q-34 85 -53 154t-19 109q0 68 0.5 118.5t1.5 87.5t2 63t3 45.5t4 35.5t5 33q-49 -7 -104.5 -11.5
t-110.5 -3.5t-106 9t-89.5 27.5t-61.5 51.5t-23 81q0 20 9.5 66.5t29.5 117.5q83 -41 149 -62t128 -26.5t127.5 3.5t147.5 29z" />
    <glyph glyph-name="arabicindicdigitseven" unicode="&#x667;" horiz-adv-x="1149" 
d="M1030 1059q-121 -177 -216 -387t-160 -433q-22 -78 -39.5 -124.5t-25.5 -46.5q-4 0 -15 25t-26 64.5t-32 88t-33 96t-30 88t-22 64.5q-37 97 -86.5 189.5t-112.5 181.5l1 -2l-14 17.5t-23.5 27.5t-27.5 31t-26 30t-19 23t-6 11q2 13 14 43.5t28 65.5t33 69t29 54
q40 -39 77.5 -98.5t73 -131t68.5 -150.5t64 -156.5t59.5 -149t54.5 -128.5q28 66 55 140.5t54.5 152t57 154.5t63.5 148t74 133.5t88 110.5z" />
    <glyph glyph-name="arabicindicdigiteight" unicode="&#x668;" horiz-adv-x="1149" 
d="M567 1243q5 0 14 -17.5t21 -47.5t26.5 -71.5t31.5 -89.5q19 -54 41 -113t46.5 -119t53 -119t61.5 -112l155 -254q-6 -25 -18 -62.5t-25 -73t-25 -60.5t-18 -25q-79 0 -377 774q-54 -120 -98.5 -236.5t-90.5 -220.5t-98 -191.5t-122 -148.5q-11 37 -15 95t-6 130
q66 64 123 157.5t110 217.5q19 49 55 157t87 275q48 155 68 155z" />
    <glyph glyph-name="arabicindicdigitnine" unicode="&#x669;" horiz-adv-x="1149" 
d="M939 298q-4 -18 -13 -53t-20.5 -74.5t-24 -77.5t-22.5 -62q-47 54 -78 118t-54 139t-42.5 160t-43.5 180q-214 0 -319 52t-105 165q0 129 110 313q118 202 226 202q45 0 78.5 -25t59 -85t44 -161t32.5 -253q13 -129 27.5 -211.5t28.5 -118.5zM497 1118q-38 0 -70.5 -36.5
t-57.5 -111.5q72 -49 126.5 -70t100.5 -21q-1 47 -6.5 90.5t-16.5 76.5t-29.5 52.5t-46.5 19.5z" />
    <glyph glyph-name="arabicpercentsign" unicode="&#x66a;" horiz-adv-x="829" 
d="M133 1258q22 0 42 -8.5t35 -23t23.5 -34.5t8.5 -43t-8.5 -43t-23.5 -35t-35 -23.5t-42 -8.5t-42 8.5t-35 23.5t-24 35t-9 43t9 43t24 34.5t35 23t42 8.5zM654 302q22 0 42 -8.5t35 -23.5t24 -35t9 -42q0 -23 -9 -42.5t-24 -34.5t-35 -23.5t-42 -8.5q-23 0 -42.5 8.5
t-34.5 23.5t-23.5 34.5t-8.5 42.5q0 22 8.5 42t23.5 35t34.5 23.5t42.5 8.5zM679 1413q-54 -182 -105 -351t-101 -336t-101 -336t-106 -350q-43 -23 -83.5 -45t-82.5 -44q54 181 105 350.5t101.5 337t101.5 336.5t105 350z" />
    <glyph glyph-name="arabicfivepointedstar" unicode="&#x66d;" horiz-adv-x="815" 
d="M374 1445h68l17 -213l163 139l49 -49l-140 -162l214 -18v-68l-214 -17l140 -163l-49 -48l-163 139l-17 -214h-68l-17 214l-164 -139l-47 48l139 163l-214 17v68l214 18l-139 162l47 49l164 -139z" />
    <glyph glyph-name="bullet-def" unicode="&#x6f9;" horiz-adv-x="1033" 
d="M93 1109h934v-934h-934v934zM223 304h675v675h-675v-675z" />
    <glyph glyph-name="zeronojoin" unicode="&#x200c;" horiz-adv-x="45" 
d="M35 -80h-25v1631h25v-1631z" />
    <glyph glyph-name="zerojoin" unicode="&#x200d;" horiz-adv-x="45" 
d="M148 1427l-16 -16l-97 96v-1587h-25v1586l-96 -95l-16 16l109 109l-109 108l16 16l109 -108l109 108l16 -16l-109 -108z" />
    <glyph glyph-name="lefttoright" unicode="&#x200e;" horiz-adv-x="45" 
d="M291 1537q-32 -33 -62.5 -63.5l-62.5 -62.5l-17 17l97 97h-213v-1605h-25v1631h234l-93 93l17 17z" />
    <glyph glyph-name="righttoleft" unicode="&#x200f;" horiz-adv-x="45" 
d="M37 -80h-25v1605h-213l97 -97l-17 -17q-32 32 -62.5 63t-62.5 63l125 124l17 -17l-93 -93h234v-1631z" />
    <glyph glyph-name="endash" unicode="&#x2013;" 
d="M0 574v95h891v-95h-891z" />
    <glyph glyph-name="quotedash" unicode="&#x2014;" horiz-adv-x="1782" 
d="M0 669h1782v-95h-1782v95z" />
    <glyph glyph-name="quoteleft" unicode="&#x2018;" horiz-adv-x="385" 
d="M245 1540q2 -60 3.5 -114t3 -106.5t3 -106t3.5 -113.5q0 -20 -21.5 -32t-48.5 -17q-11 56 -21 106.5t-19.5 100t-19.5 100.5t-21 107q1 31 24 53t55 22h59z" />
    <glyph glyph-name="quoteright" unicode="&#x2019;" horiz-adv-x="385" 
d="M199 1540q33 0 56 -22t23 -53q-11 -56 -21 -107t-19.5 -100.5t-19.5 -100t-21 -106.5q-27 5 -48 17t-22 32q2 60 3.5 113.5t3 106t3 106.5t3.5 114h59z" />
    <glyph glyph-name="quotesinglbase" unicode="&#x201a;" horiz-adv-x="447" 
d="M137 150v177h173v-206q0 -93 -44.5 -151.5t-128.5 -76.5v82q40 5 63.5 42t23.5 96v37h-87z" />
    <glyph glyph-name="quotedblleft" unicode="&#x201c;" horiz-adv-x="622" 
d="M496 1540q1 -60 3 -114t3.5 -106.5t3 -106t3.5 -113.5q-2 -20 -23 -32t-48 -17q-11 56 -20.5 106.5t-19.5 100t-19.5 100.5t-20.5 107q0 31 23 53t56 22h59zM245 1540q2 -60 3.5 -114t3 -106.5t3 -106t3.5 -113.5q0 -20 -21.5 -32t-48.5 -17q-11 56 -21 106.5t-19.5 100
t-19.5 100.5t-21 107q1 31 24 53t55 22h59z" />
    <glyph glyph-name="quotedblright" unicode="&#x201d;" horiz-adv-x="622" 
d="M203 1540q32 0 55 -22t24 -53q-11 -56 -21 -107t-19.5 -100.5t-19 -100t-20.5 -106.5q-28 5 -49 17t-23 32q2 60 3.5 113.5t3.5 106t3.5 106.5t3.5 114h59zM453 1540q33 0 56 -22t23 -53q-11 -56 -21 -107t-19.5 -100.5t-19 -100t-20.5 -106.5q-28 5 -49 17t-22 32
q2 60 3.5 113.5t3 106t3 106.5t3.5 114h59z" />
    <glyph glyph-name="bullet" unicode="&#x2022;" horiz-adv-x="613" 
d="M303 820q127 0 215 -88t88 -217q0 -127 -88 -214.5t-215 -87.5q-128 0 -216 87.5t-88 214.5q0 129 88 217t216 88v0z" />
    <glyph glyph-name="trademark" unicode="&#x2122;" horiz-adv-x="1484" 
d="M838 1418l131 -334l123 334h130v-468h-85v387l-144 -387h-49l-151 387v-387h-86v468h131zM604 1418v-69h-150v-399h-94v399h-149v69h393z" />
    <glyph glyph-name="fathalow" unicode="&#xe820;" horiz-adv-x="408" 
d="M401 1225l-340 -193l17 91l340 193z" />
    <glyph glyph-name="dammalow" unicode="&#xe821;" horiz-adv-x="414" 
d="M346 1204q-11 -23 -37.5 -52.5t-62.5 -55t-78.5 -42.5t-85.5 -15q-29 2 -47.5 3t-28.5 2t-12.5 1.5t-0.5 1.5q61 25 105.5 43t79 36t62.5 39.5t56 54.5q-47 11 -69 34t-25.5 51t9 57.5t34 53.5t49.5 38.5t56 13.5q16 -1 25 -12.5t12.5 -29t2.5 -39t-3.5 -41.5t-6.5 -36.5
t-7 -24.5l44 -13l-19 -80zM321 1381q-5 6 -12 8t-12 2q-17 2 -27 -8.5t-11 -24.5q-2 -25 20 -37t51 -23q2 20 2 38q0 15 -2 28.5t-9 18.5v-2z" />
    <glyph glyph-name="sukunlow" unicode="&#xe822;" horiz-adv-x="328" 
d="M344 1249q5 -34 -10 -71.5t-41 -87.5v1q0 1 1 2l-3 -5q-24 -14 -61.5 -26.5t-74 -15t-65 11t-34.5 51.5q-5 33 3.5 75.5t27 81.5t46 67t59.5 33q28 4 54 -6.5t46.5 -28.5t34.5 -40.5t17 -41.5zM280 1181q-3 14 -13.5 30t-25 29.5t-31.5 22t-35 5.5q-30 -5 -44 -27
t-11 -45q3 -22 21 -32.5t42 -11t50 6.5t46 21zM293 1090q0 -1 -1 -1zM292 1089q0 -1 -1 -1z" />
    <glyph glyph-name="fathatanlow" unicode="&#xe823;" horiz-adv-x="408" 
d="M391 1222l-340 -193l17 91l340 193zM405 1389l-340 -193l17 91l340 193z" />
    <glyph glyph-name="dammatanlow" unicode="&#xe824;" horiz-adv-x="469" 
d="M408 1207q-6 -14 -19.5 -33.5t-32 -40t-40.5 -39.5t-45.5 -31t-47.5 -15t-46 8t-24 31.5t3 42t10.5 42t-2 32t-34.5 10.5t-86 -20q19 27 44.5 43.5t50.5 22t47 -1t34 -24.5t10.5 -48t-23.5 -72q46 20 85.5 44t71.5 62q-41 10 -60.5 31.5t-22 47.5t8 53t30 49.5t44 36
t49.5 12.5q21 -2 28 -24.5t6.5 -51t-6 -55.5t-8.5 -37l38 -12l-17 -76zM387 1368q-10 10 -23 10q-14 1 -22.5 -8.5t-8.5 -21.5q-2 -11 3 -19t14 -14t20.5 -11.5t24.5 -11.5q2 19 2 35q0 14 -2.5 26.5t-7.5 16.5v-2z" />
    <glyph glyph-name="shaddalow" unicode="&#xe825;" horiz-adv-x="425" 
d="M396 1364q11 -17 17.5 -36t11.5 -38q6 -33 3 -67t-15 -62t-33 -45.5t-51 -17.5q-25 0 -37.5 9t-27.5 23q-6 -10 -15 -23t-22 -25t-31 -21t-40 -11q-35 -3 -56 10t-31 35t-11.5 49.5t2 53.5t10.5 47.5t14 31.5q0 -3 5 1t11.5 9t11.5 8.5t5 0.5q-8 -20 -13.5 -46.5t-3 -50
t14 -39.5t37.5 -15q29 0 44.5 16t23.5 37.5t12.5 44.5t12.5 38q1 -3 5 0t9 7.5t9.5 8t5.5 0.5q-8 -29 -2.5 -54t19.5 -40t35.5 -18t46.5 14q6 9 5.5 22t-4.5 26.5t-11 27t-14 23.5q13 18 24.5 34t22.5 32z" />
    <glyph glyph-name="kasralow" unicode="&#xe826;" horiz-adv-x="408" 
d="M395 -148l-340 -193l17 91l340 193z" />
    <glyph glyph-name="kasratanlow" unicode="&#xe827;" horiz-adv-x="408" 
d="M405 -148l-340 -193l17 91l340 193zM378 -316l-340 -193l17 91l340 193z" />
    <glyph glyph-name="shaddawithfathaisolatedlow" unicode="&#xe828;" horiz-adv-x="425" 
d="M397 1372q5 -8 5.5 -12.5t-0.5 -8.5t-1.5 -8.5t3.5 -13.5q12 -32 14.5 -66t-5 -63.5t-25.5 -50.5t-47 -26q-25 -4 -39 3t-31 18q-4 -11 -10.5 -25.5t-18 -28.5t-27 -25.5t-37.5 -16.5q-34 -9 -56 -3.5t-35 20t-17.5 35t-4.5 40.5q0 21 4.5 39.5t9.5 29.5q0 -3 4.5 1.5
t9.5 10.5t10 10.5t5 1.5q-5 -21 -7 -40t2 -32.5t17 -19t38 -0.5q28 5 41 23t17.5 40.5t5.5 46t6 39.5q1 -3 4.5 1t7.5 9t8 9.5t6 1.5q-3 -30 6.5 -54t26 -36.5t38 -11.5t42.5 21q4 10 2 23t-8.5 25.5t-15.5 24.5t-18 21q5 10 14.5 15.5t20 10t20 9.5t15.5 13zM400 1452
l-340 -193l17 91l340 193z" />
    <glyph glyph-name="shaddawithdammaisolatedlow" unicode="&#xe829;" horiz-adv-x="425" 
d="M381 1402q13 -15 22.5 -33t17.5 -36q11 -32 13 -66t-6 -63.5t-26.5 -50t-47.5 -24.5q-25 -4 -38.5 3t-30.5 19q-4 -11 -11 -25t-18.5 -28t-27.5 -25.5t-38 -16.5q-34 -8 -56.5 1.5t-36 29.5t-19 47.5t-6 54t3.5 48.5t9 33q0 -3 5 1.5t10.5 10.5t10 10t4.5 1
q-5 -21 -6.5 -47.5t4 -49.5t19.5 -37.5t40 -9.5q28 5 41 23t18 40.5t6.5 45.5t6.5 39q1 -3 4.5 1t8 9t8 9.5t5.5 1.5q-3 -30 6 -54t25.5 -37t38 -12.5t43.5 20.5q4 10 2 23t-8.5 26t-15 25t-17.5 21q11 20 19.5 37.5t17.5 34.5zM356 1471q-11 -18 -37 -41t-61.5 -43.5
t-76.5 -34t-83 -11.5q-57 4 -75 4q-17 0 -12 2q60 20 103 34t77 28t61.5 31t54.5 43q-46 8 -67.5 26.5t-25 40.5t8.5 45t33 42t48.5 30.5t55.5 10.5q23 -1 31 -20t7.5 -43.5t-6.5 -47.5t-10 -33l43 -10l-19 -63zM331 1610q-5 5 -11.5 6.5t-11.5 1.5q-17 1 -26.5 -7
t-10.5 -19q-2 -20 19 -29.5t50 -17.5q2 16 2 30q0 11 -2 22t-9 14v-1z" />
    <glyph glyph-name="shaddawithfathatanisolatedlow" unicode="&#xe82a;" horiz-adv-x="425" 
d="M412 1701q0 -47 -8 -65t-41 -37l-289 -166q0 45 12 65t54 44zM412 1550q0 -47 -8 -64.5t-41 -36.5l-289 -166q0 45 12 65q12 17 54 42zM425 1277q0 -76 -29.5 -121t-75.5 -45q-21 0 -64 21q-38 -87 -108 -87q-78 0 -78 109q0 29 22 101l23 4q0 -111 39 -111q29 0 57.5 48
t32.5 114l19 6q24 -98 61 -98q24 0 44 42.5t20 104.5l22 11q15 -51 15 -99z" />
    <glyph glyph-name="shaddawithdammatanisolatedlow" unicode="&#xe82b;" horiz-adv-x="468" 
d="M393 1404q13 -15 22.5 -33t17.5 -36q11 -32 13 -66t-6 -63.5t-26.5 -50t-47.5 -24.5q-25 -4 -38.5 3t-30.5 19q-4 -11 -11 -25t-18.5 -28t-27.5 -25.5t-38 -16.5q-34 -8 -56.5 1.5t-36 29.5t-19 47.5t-6 54t3.5 48.5t9 33q0 -3 5 1.5t10.5 10.5t10 10t4.5 1
q-5 -21 -6.5 -47.5t4 -49.5t19.5 -37.5t40 -9.5q28 5 41 23t18 40.5t6.5 45.5t6.5 39q1 -3 4.5 1t8 9t8 9.5t5.5 1.5q-3 -30 6 -54t25.5 -37t38 -12.5t43.5 20.5q4 10 2 23t-8.5 26t-15 25t-17.5 21q11 20 19.5 37.5t17.5 34.5zM422 1486q-7 -12 -21 -28.5t-33 -34t-42 -33
t-48 -26t-50 -13t-48 6.5q-23 10 -25 27t3 36t11 36t-2 26.5t-36 9t-91 -17.5q20 23 46.5 37.5t53 18.5t49.5 -1.5t35.5 -20.5t11 -40.5t-24.5 -61.5q48 17 89.5 38t75.5 53q-43 9 -63 27t-23.5 40t8 45t31.5 41.5t46 30t52 10.5q22 -2 29.5 -21t7 -43t-6 -46.5t-9.5 -31.5
l40 -10l-18 -65zM400 1623q-5 5 -12 6.5t-12 1.5q-14 1 -23.5 -7t-9.5 -18q-2 -10 3.5 -16.5t14.5 -11.5t21.5 -9.5t25.5 -9.5q2 17 2 30q0 11 -2 21.5t-8 14.5v-2z" />
    <glyph glyph-name="shaddawithkasraisolatedlow" unicode="&#xe82c;" horiz-adv-x="425" 
d="M375 1606q12 -15 21.5 -33.5t16.5 -36.5q10 -32 11 -66t-7.5 -63t-27.5 -49t-48 -24q-25 -3 -38.5 4t-30.5 20q-4 -11 -11.5 -25t-19 -27.5t-28 -24.5t-38.5 -16q-34 -7 -56.5 3t-35 31t-17.5 48t-4.5 53.5t4.5 49t10 32.5q0 -3 4.5 1.5l10.5 10.5t10.5 10t4.5 1
q-6 -21 -8 -48t3 -50t18.5 -37.5t39.5 -10.5q29 4 42.5 21t19 39.5t7 46t7.5 39.5q1 -3 5 0.5t8.5 9t8 9.5t5.5 1q-4 -29 4 -53.5t24 -38t37 -13.5q22 0 45 20q5 10 3 22.5t-8 25.5t-14.5 25.5t-16.5 21.5q11 20 20 37t19 34zM412 1224l-340 -193l17 91l340 193z" />
    <glyph glyph-name="shaddawithkasratanisolatedlow" unicode="&#xe82d;" horiz-adv-x="425" 
d="M374 1619q12 -15 21.5 -33.5t16.5 -36.5q10 -32 11 -66t-7.5 -63t-27.5 -49t-48 -24q-25 -3 -38.5 4t-30.5 20q-4 -11 -11.5 -25t-19 -27.5t-28 -24.5t-38.5 -16q-34 -7 -56.5 3t-35 31t-17.5 48t-4.5 53.5t5 49t9.5 32.5q0 -3 4.5 1.5l10.5 10.5t10.5 10t4.5 1
q-6 -21 -8 -48t3 -50t18.5 -37.5t39.5 -10.5q29 4 42.5 21t19 39.5t7 46t7.5 39.5q1 -3 5 0.5t8.5 9t8 9.5t5.5 1q-4 -29 4 -53.5t24 -38t37 -13.5q22 0 45 20q5 10 3 22.5t-8 25.5t-14.5 25.5t-16.5 21.5q11 20 20 37t19 34zM395 1253l-350 -141l33 75l350 141zM385 1148
l-350 -141l33 75l350 141z" />
    <glyph glyph-name="fathaonhamza" unicode="&#xe832;" horiz-adv-x="408" 
d="M394 1426q-97 -51 -192 -101.5t-192 -102.5q5 23 8 38.5t7 38.5q99 52 191.5 101.5t191.5 102.5z" />
    <glyph glyph-name="fathatanonhamza" unicode="&#xe833;" horiz-adv-x="408" 
d="M389 1171q-97 -51 -192 -101.5t-192 -102.5q5 23 8 38.5t7 38.5q99 52 191.5 101.5t191.5 102.5z" />
    <glyph glyph-name="sukunonhamza" unicode="&#xe834;" horiz-adv-x="566" 
d="M268 1588q6 -33 -11 -74t-44 -93q-14 -8 -32.5 -16t-39.5 -15t-43 -11t-42 -4q-32 0 -57.5 14t-30.5 48q-5 35 4 80.5t28.5 86.5t48 71.5t62.5 35.5q28 4 55 -6.5t48.5 -29.5t36 -42.5t17.5 -44.5zM218 1512q-4 17 -17 37.5t-31 38t-39 27.5t-42 7q-19 -3 -33 -12.5
t-23 -22t-12 -27.5t-1 -29q5 -30 29.5 -43.5t56.5 -13.5z" />
    <glyph glyph-name="dammaonhamza" unicode="&#xe835;" horiz-adv-x="420" 
d="M365 1288q11 -17 17.5 -36t11.5 -38q6 -33 3 -67t-15 -62t-33 -45.5t-51 -17.5q-25 0 -37.5 9t-27.5 23q-6 -10 -15 -23t-22 -25t-31 -21t-40 -11q-35 -3 -56 10t-31 35t-11.5 49.5t2 53.5t10.5 47.5t14 31.5q0 -3 5 1t11.5 9t11.5 8.5t5 0.5q-8 -20 -13.5 -46.5t-3 -50
t14 -39.5t37.5 -15q29 0 44.5 16t23.5 37.5t12.5 44.5t12.5 38q1 -3 5 0t9 7.5t9.5 8t5.5 0.5q-8 -29 -2.5 -54t19.5 -40t35.5 -18t46.5 14q6 9 5.5 22t-4.5 26.5t-11 27t-14 23.5q13 18 24.5 34t22.5 32z" />
    <glyph glyph-name="dammatanonhamza" unicode="&#xe836;" horiz-adv-x="381" 
d="M297 1715q11 -17 17.5 -36t11.5 -38q6 -33 3 -67t-15 -62t-33 -45.5t-51 -17.5q-25 0 -37.5 9t-27.5 23q-6 -10 -15 -23t-22 -25t-31 -21t-40 -11q-35 -3 -56 10t-31 35t-11.5 49.5t2 53.5t10.5 47.5t14 31.5q0 -3 5 1t11.5 9t11.5 8.5t5 0.5q-8 -20 -13.5 -46.5t-3 -50
t14 -39.5t37.5 -15q29 0 44.5 16t23.5 37.5t12.5 44.5t12.5 38q1 -3 5 0t9 7.5t9.5 8t5.5 0.5q-8 -29 -2.5 -54t19.5 -40t35.5 -18t46.5 14q6 9 5.5 22t-4.5 26.5t-11 27t-14 23.5q13 18 24.5 34t22.5 32z" />
    <glyph glyph-name="ornateleftparenthesis" unicode="&#xfd3e;" horiz-adv-x="652" 
d="M478 -24h-304v1696h304v-130h-174v-1436h174v-130z" />
    <glyph glyph-name="ornaterightparenthesis" unicode="&#xfd3f;" horiz-adv-x="652" 
d="M473 -24h-304v130h174v1436h-174v130h304v-1696z" />
    <glyph glyph-name="zerowidthnobreakspace" unicode="&#xfeff;" horiz-adv-x="744" 
 />
    </font>
</defs>
</svg>
