<svg xmlns="http://www.w3.org/2000/svg" width="240.036" height="451.493" viewBox="0 0 240.036 451.493">
  <g id="Group_10" data-name="Group 10" transform="translate(-841.033 -461.006)">
    <path id="Path_20" data-name="Path 20" d="M55.881,2.038Q49.813,8.567,44.829,8.567a5,5,0,0,1-4.619-2.926,16.475,16.475,0,0,1-1.585-7.829,48.735,48.735,0,0,1,1.558-10.429,44.79,44.79,0,0,1,4.023-11.16l1.571-2.817A31.28,31.28,0,0,0,40.5-19.24q-2.059,4-4.917,11.174a94.712,94.712,0,0,1-4.321,9.779,29.957,29.957,0,0,1-2.8,4.239,7.623,7.623,0,0,1-2.384,2.126,9.49,9.49,0,0,1-3.643.488q-1,0-1-.542,0-.054.359-1.707a53.421,53.421,0,0,0,.731-5.3q.373-3.643.535-12.379A44.27,44.27,0,0,1,25.6-26.323q-2.549,2.9-5.206,13.49l-.678,2.655Q16.919.846,13.312,4.706T6.234,8.567a5.717,5.717,0,0,1-3.77-1.354A3.981,3.981,0,0,1,.838,4.1q0-1.354,1.953-3.034T5.257-.616a.775.775,0,0,1,.783.406,12.007,12.007,0,0,1,.489,2.235,4.271,4.271,0,0,0,.91,2.384,2.2,2.2,0,0,0,1.535.555q2.092,0,4.618-4.185t4.617-12.935L19-15.434a50.8,50.8,0,0,1,1.874-6.393,27.039,27.039,0,0,1,2.445-4.768q2.2-3.413,2.7-3.643a6.955,6.955,0,0,1,1.883-.379,25.752,25.752,0,0,1,2.763-.149q.542,0,.542.623a8.6,8.6,0,0,1-.17,1.219,51.827,51.827,0,0,0-.507,7.612l.054,7.26a59.28,59.28,0,0,1-1.517,15.3Q30.5-.481,33.235-7.686a92.1,92.1,0,0,1,7.205-15.332,29.006,29.006,0,0,1,3.725-4.727q2.181-2.262,3.02-2.424a26.9,26.9,0,0,1,4.849-.542q.731,0,.731.406a8.865,8.865,0,0,1-.891,2.547,71.917,71.917,0,0,0-3.931,12.9A63.682,63.682,0,0,0,46.1-1.916q0,5.444,3.332,5.444,2.709,0,6.447-4.605Zm23.009,0a33.461,33.461,0,0,1-6.176,5,11.682,11.682,0,0,1-6.041,1.612,7.865,7.865,0,0,1-5.946-2.357,8.584,8.584,0,0,1-2.262-6.2A15.564,15.564,0,0,1,62.447-10.3q3.982-4.646,8.831-4.646a5.989,5.989,0,0,1,4.036,1.3,4.278,4.278,0,0,1,1.517,3.413q0,5.607-11.919,9.1Q66,4.151,70.574,4.151a6.6,6.6,0,0,0,3.413-.962,29.6,29.6,0,0,0,4.9-4.266ZM64.7-2.973q6.935-1.95,6.935-7.205,0-2.6-1.9-2.6-1.788,0-3.413,2.722A13.689,13.689,0,0,0,64.7-2.973Zm45.9,5.011a46.446,46.446,0,0,1-5.946,5.242,6.769,6.769,0,0,1-3.616,1.368,3.424,3.424,0,0,1-3.047-1.869,10.924,10.924,0,0,1-1.151-5.472A18.573,18.573,0,0,1,92,6.779a8.406,8.406,0,0,1-4.727,1.869,5.139,5.139,0,0,1-4.063-2.181,7.885,7.885,0,0,1-1.761-5.106,16.925,16.925,0,0,1,4.4-11.2Q90.251-15,95.316-15a4.939,4.939,0,0,1,2.208.406,6.979,6.979,0,0,1,1.747,1.382l3.874-16.2a35.051,35.051,0,0,1,6.4-1.111q.542,0,.542.434,0,.3-1.353,5.609-5.413,21.238-5.413,25.624a2.843,2.843,0,0,0,.433,1.652,1.324,1.324,0,0,0,1.136.623q1.731,0,5.705-4.5ZM91.009,3.474q2.655,0,4.957-4.5a18.594,18.594,0,0,0,2.3-8.424,4.118,4.118,0,0,0-.718-2.546,2.251,2.251,0,0,0-1.883-.948q-2.519,0-4.876,4.7A19.265,19.265,0,0,0,88.436.25a3.68,3.68,0,0,0,.691,2.357A2.278,2.278,0,0,0,91.009,3.474Zm35.659-1.436Q120.33,8.7,117.187,8.7a3.468,3.468,0,0,1-2.926-1.774,7.822,7.822,0,0,1-1.192-4.456q0-5.77,3.9-15.982l6.88-1.436h.325l-2.709,8.479a28.846,28.846,0,0,0-1.679,7.5,2.456,2.456,0,0,0,.393,1.449,1.173,1.173,0,0,0,.989.555,3.626,3.626,0,0,0,2.126-.772,26.118,26.118,0,0,0,3.372-3.345Zm31.7,0a57.013,57.013,0,0,1-6.2,5.363,6.489,6.489,0,0,1-3.576,1.246q-4.28,0-4.036-7.558a27.956,27.956,0,0,1-5,5.716,7.471,7.471,0,0,1-4.727,1.842,4.922,4.922,0,0,1-4.05-2.235A8.919,8.919,0,0,1,129.117.928a14.711,14.711,0,0,1,2.235-7.747,18.368,18.368,0,0,1,5.729-5.959,11.759,11.759,0,0,1,6.176-2.275A4.791,4.791,0,0,1,148-11.939L153.534-15h1.52l-2.389,7.937q-1.846,5.987-1.846,8.208,0,2.329,1.652,2.329A3.7,3.7,0,0,0,154.8,2.35q1.273-1.124,3.574-3.427Zm-19.829,1.49q2.709,0,5.106-4.619a18.693,18.693,0,0,0,2.4-8.519,3.721,3.721,0,0,0-.677-2.37,2.2,2.2,0,0,0-1.815-.853q-2.709,0-5.133,4.605A18.415,18.415,0,0,0,136,.25a3.708,3.708,0,0,0,.718,2.37A2.233,2.233,0,0,0,138.544,3.528Z" transform="translate(853.195 903.798)" fill="#f2f2f2"/>
    <g id="SD_Logo_Final" data-name="SD Logo Final" transform="translate(310.273 461.506)">
      <path id="Path_86" data-name="Path 86" d="M277.1,106.833c1.107-1.621,2.254-3.243,3.44-4.9,14.156,11.665,28.273,39.543,34.916,57.3" transform="translate(346.953 99.486)" fill="none" stroke="#f2f2f2" stroke-linecap="round" stroke-linejoin="round" stroke-width="2"/>
      <path id="Path_87" data-name="Path 87" d="M334.228,114.28c-8.264,11.863-17.2,23.726-26.217,36.3A167.666,167.666,0,0,0,292.55,122.9" transform="translate(392.596 135.971)" fill="none" stroke="#f2f2f2" stroke-linecap="round" stroke-linejoin="round" stroke-width="2"/>
      <path id="Path_88" data-name="Path 88" d="M284.09,64.1a36.94,36.94,0,0,0,.751,3.954c.514,3.084,1.147,6.01,1.7,8.541.356,1.424.672,2.728.989,3.954" transform="translate(367.603 -12.274)" fill="none" stroke="#f2f2f2" stroke-linecap="round" stroke-linejoin="round" stroke-width="2"/>
      <path id="Path_89" data-name="Path 89" d="M384.479,221.253a124.95,124.95,0,0,0,13.682-52.592c.87-52.117-34.007-106.765-106.488-104.709a58.693,58.693,0,0,0-7.592.475.791.791,0,0,1,0,.277" transform="translate(367.573 -12.877)" fill="none" stroke="#f2f2f2" stroke-linecap="round" stroke-linejoin="round" stroke-width="2"/>
      <path id="Path_90" data-name="Path 90" d="M292.474,68.28c.277.87.514,1.7.712,2.412a125.9,125.9,0,0,0,8.106,19.415c31.634,1.9,71.374,26.929,59.71,78.492a140.178,140.178,0,0,1-17.952,41.48c-1.068,1.74-2.175,3.44-3.322,5.18-14.156-11.626-28.234-39.543-34.837-57.179-5.457-7.078-11.072-14.512-16.331-22.342a55.361,55.361,0,0,0-6.09,19.1" transform="translate(362.817 0.075)" fill="none" stroke="#f2f2f2" stroke-linecap="round" stroke-linejoin="round" stroke-width="2"/>
      <path id="Path_91" data-name="Path 91" d="M302.149,75.75c-26.335,15.422-34.639,48.2-29.578,65.641" transform="translate(329.416 22.144)" fill="none" stroke="#f2f2f2" stroke-linecap="round" stroke-linejoin="round" stroke-width="2"/>
      <path id="Path_92" data-name="Path 92" d="M272.339,206.555a179.047,179.047,0,0,1-8.66-24.833c-11.863-45,15.343-99.845,66.748-116.532" transform="translate(299.161 -9.053)" fill="none" stroke="#f2f2f2" stroke-linecap="round" stroke-linejoin="round" stroke-width="2"/>
      <path id="Path_93" data-name="Path 93" d="M278.36,67.009a6.4,6.4,0,0,1,.554-1.819h0" transform="translate(350.675 -9.053)" fill="none" stroke="#f2f2f2" stroke-linecap="round" stroke-linejoin="round" stroke-width="2"/>
      <path id="Path_94" data-name="Path 94" d="M278.23,67.983a8.03,8.03,0,0,1,.4-1.938v-.4" transform="translate(350.291 -7.694)" fill="none" stroke="#f2f2f2" stroke-linecap="round" stroke-linejoin="round" stroke-width="2"/>
      <path id="Path_95" data-name="Path 95" d="M277.87,74.326c0-1.344.2-2.768.356-4.31a10.075,10.075,0,0,1,.475-2.966" transform="translate(349.227 -3.559)" fill="none" stroke="#f2f2f2" stroke-linecap="round" stroke-linejoin="round" stroke-width="2"/>
      <path id="Path_96" data-name="Path 96" d="M278.673,66.24c-.237,1.068-.435,2.175-.593,3.2" transform="translate(349.848 -5.951)" fill="none" stroke="#f2f2f2" stroke-linecap="round" stroke-linejoin="round" stroke-width="2"/>
      <path id="Path_97" data-name="Path 97" d="M277.86,70.68V72.7a107,107,0,0,0,2.412,11.349" transform="translate(349.198 7.165)" fill="none" stroke="#f2f2f2" stroke-linecap="round" stroke-linejoin="round" stroke-width="2"/>
      <path id="Path_98" data-name="Path 98" d="M280.507,80.743h0c-.751-2.214-1.384-4.429-2.017-6.683" transform="translate(351.059 17.151)" fill="none" stroke="#f2f2f2" stroke-linecap="round" stroke-linejoin="round" stroke-width="2"/>
      <path id="Path_99" data-name="Path 99" d="M277.86,75.968V68.89" transform="translate(349.198 1.877)" fill="none" stroke="#f2f2f2" stroke-linecap="round" stroke-linejoin="round" stroke-width="2"/>
      <path id="Path_100" data-name="Path 100" d="M335.3,193.344c-14.591-28.313-41.836-53.3-63.743-80.034" transform="translate(330.586 133.106)" fill="none" stroke="#f2f2f2" stroke-linecap="round" stroke-linejoin="round" stroke-width="2"/>
      <path id="Path_101" data-name="Path 101" d="M277.1,103.17c4.706,7.276,9.293,13.919,13.326,19.455,5.417,7.434,9.728,12.812,11.349,14.789h0l.435.633c3.954,5.655,8.581,11.467,13.207,17.517" transform="translate(346.953 103.15)" fill="none" stroke="#f2f2f2" stroke-linecap="round" stroke-linejoin="round" stroke-width="2"/>
      <path id="Path_102" data-name="Path 102" d="M310.484,159.932A158.444,158.444,0,0,0,290.91,122.05" transform="translate(387.751 158.926)" fill="none" stroke="#f2f2f2" stroke-linecap="round" stroke-linejoin="round" stroke-width="2"/>
      <path id="Path_103" data-name="Path 103" d="M299.26,147.586c.712,13.8-3.519,27.68-7.909,40.887a76.761,76.761,0,0,1-3.322,7.078,303.3,303.3,0,0,0,28.827-45.276q1.424-3.005,2.61-6.169l.435-1.147" transform="translate(379.243 220.7)" fill="none" stroke="#f2f2f2" stroke-linecap="round" stroke-linejoin="round" stroke-width="2"/>
      <path id="Path_104" data-name="Path 104" d="M353.33,168.6c-21.59-26.177-45.435-50.733-59.71-78.492a129.725,129.725,0,0,1-7.909-19.415c-.2-.712-.474-1.542-.712-2.412" transform="translate(370.291 0.075)" fill="none" stroke="#f2f2f2" stroke-linecap="round" stroke-linejoin="round" stroke-width="2"/>
      <path id="Path_105" data-name="Path 105" d="M279,75.75h0a159.44,159.44,0,0,0,19.771,37.921c5.259,7.909,10.874,15.263,16.291,22.342,4.627,6.01,9.134,11.863,13.168,17.4l.435.633h0c1.621,1.977,5.931,7.315,11.388,14.789,3.954,5.417,8.541,11.863,13.128,19.178" transform="translate(352.566 22.144)" fill="none" stroke="#f2f2f2" stroke-linecap="round" stroke-linejoin="round" stroke-width="2"/>
      <path id="Path_106" data-name="Path 106" d="M284.09,64.1a36.94,36.94,0,0,0,.751,3.954c.514,3.124,1.147,6.05,1.7,8.581l.989,3.954" transform="translate(367.603 -12.274)" fill="none" stroke="#f2f2f2" stroke-linecap="round" stroke-linejoin="round" stroke-width="2"/>
      <path id="Path_107" data-name="Path 107" d="M278.673,66.24c-.237,1.068-.435,2.175-.593,3.2" transform="translate(349.848 -5.951)" fill="none" stroke="#f2f2f2" stroke-linecap="round" stroke-linejoin="round" stroke-width="2"/>
      <path id="Path_108" data-name="Path 108" d="M277.87,74.326a34.887,34.887,0,0,1,.4-4.31,16.286,16.286,0,0,1,.435-2.966" transform="translate(349.227 -3.559)" fill="none" stroke="#f2f2f2" stroke-linecap="round" stroke-linejoin="round" stroke-width="2"/>
      <path id="Path_109" data-name="Path 109" d="M280.507,80.743c-.751-2.214-1.384-4.429-2.017-6.683" transform="translate(351.059 17.151)" fill="none" stroke="#f2f2f2" stroke-linecap="round" stroke-linejoin="round" stroke-width="2"/>
      <path id="Path_110" data-name="Path 110" d="M277.86,75.968V68.89" transform="translate(349.198 1.877)" fill="none" stroke="#f2f2f2" stroke-linecap="round" stroke-linejoin="round" stroke-width="2"/>
      <path id="Path_111" data-name="Path 111" d="M300.457,102.446v-1.661C299.31,86.432,303.7,72,308.168,58.238a69.079,69.079,0,0,1,3.282-7.118A301.951,301.951,0,0,0,282.662,96.4c-.949,2.056-1.858,3.954-2.649,6.208-.514,1.344-1.028,2.728-1.463,3.954h0" transform="translate(351.236 -50.62)" fill="none" stroke="#f2f2f2" stroke-linecap="round" stroke-linejoin="round" stroke-width="2"/>
      <path id="Path_112" data-name="Path 112" d="M278.23,67.983a8.03,8.03,0,0,1,.4-1.938v-.4" transform="translate(350.291 -7.694)" fill="none" stroke="#f2f2f2" stroke-linecap="round" stroke-linejoin="round" stroke-width="2"/>
      <path id="Path_113" data-name="Path 113" d="M278.914,65.19c-.2.593-.4,1.226-.554,1.819" transform="translate(350.675 -9.053)" fill="none" stroke="#f2f2f2" stroke-linecap="round" stroke-linejoin="round" stroke-width="2"/>
      <path id="Path_114" data-name="Path 114" d="M277.86,70.68V72.7a107,107,0,0,0,2.412,11.349" transform="translate(349.198 7.165)" fill="none" stroke="#f2f2f2" stroke-linecap="round" stroke-linejoin="round" stroke-width="2"/>
      <path id="Path_115" data-name="Path 115" d="M290.91,138.712a57.929,57.929,0,0,0,6.485-22.3" transform="translate(387.751 142.264)" fill="none" stroke="#f2f2f2" stroke-linecap="round" stroke-linejoin="round" stroke-width="2"/>
      <path id="Path_116" data-name="Path 116" d="M298.206,99.84a394.563,394.563,0,0,1-44.446,40.808c21.827,32.5,31.278,56.507,39.266,71.454,17.755,33.414,46.7,64.929,98.5,63.506a84.846,84.846,0,0,0,9.016-.633" transform="translate(278 93.312)" fill="none" stroke="#f2f2f2" stroke-linecap="round" stroke-linejoin="round" stroke-width="2"/>
      <path id="Path_117" data-name="Path 117" d="M348.909,103.69a147.965,147.965,0,0,1,15.026,35.588c11.863,44.96-16.173,102.139-67.816,119.577" transform="translate(403.143 104.686)" fill="none" stroke="#f2f2f2" stroke-linecap="round" stroke-linejoin="round" stroke-width="2"/>
      <path id="Path_118" data-name="Path 118" d="M273.278,113.31c-12.93,50.812,31.436,77.583,63.743,80.034" transform="translate(328.867 133.106)" fill="none" stroke="#f2f2f2" stroke-linecap="round" stroke-linejoin="round" stroke-width="2"/>
      <path id="Path_119" data-name="Path 119" d="M327.808,108.634c-4.9-7.909-9.767-15.817-14.354-24.714-15.422,16.489-29.064,34.6-46.384,54.015" transform="translate(317.321 46.28)" fill="none" stroke="#f2f2f2" stroke-linecap="round" stroke-linejoin="round" stroke-width="2"/>
      <path id="Path_120" data-name="Path 120" d="M324.449,114.28a10.3,10.3,0,0,1,.4.989c6.287,16.845-1.582,51.406-28.985,67.618" transform="translate(402.375 135.971)" fill="none" stroke="#f2f2f2" stroke-linecap="round" stroke-linejoin="round" stroke-width="2"/>
      <path id="Path_121" data-name="Path 121" d="M282.43,90.17l1.226,1.977c18.348,28.708,35.035,52.078,38.633,88.615,0,1.186.2,2.373.277,3.559a57.291,57.291,0,0,1,0,9.609" transform="translate(362.699 64.744)" fill="none" stroke="#f2f2f2" stroke-linecap="round" stroke-linejoin="round" stroke-width="2"/>
      <path id="Path_122" data-name="Path 122" d="M303.09,145.566a315.576,315.576,0,0,0,25.228-41.876" transform="translate(423.734 104.686)" fill="none" stroke="#f2f2f2" stroke-linecap="round" stroke-linejoin="round" stroke-width="2"/>
      <path id="Path_123" data-name="Path 123" d="M271.56,144.625c3.045-11.863,13.168-27.205,23.172-41.915" transform="translate(330.586 101.791)" fill="none" stroke="#f2f2f2" stroke-linecap="round" stroke-linejoin="round" stroke-width="2"/>
      <path id="Path_124" data-name="Path 124" d="M287.68,139.222a53.222,53.222,0,0,0,17.122-1.3,57.055,57.055,0,0,0,15.224-6.287" transform="translate(378.209 187.228)" fill="none" stroke="#f2f2f2" stroke-linecap="round" stroke-linejoin="round" stroke-width="2"/>
      <path id="Path_125" data-name="Path 125" d="M286.8,116.42c5.417,7.039,12.337,16.45,17.6,24.279" transform="translate(375.609 142.294)" fill="none" stroke="#f2f2f2" stroke-linecap="round" stroke-linejoin="round" stroke-width="2"/>
      <path id="Path_126" data-name="Path 126" d="M290.87,147.587a103.05,103.05,0,0,0,20.76-4.627" transform="translate(387.633 220.7)" fill="none" stroke="#f2f2f2" stroke-linecap="round" stroke-linejoin="round" stroke-width="2"/>
      <path id="Path_127" data-name="Path 127" d="M265,106.517c2.847-3.005,5.576-5.971,8.225-8.937" transform="translate(311.206 86.635)" fill="none" stroke="#f2f2f2" stroke-linecap="round" stroke-linejoin="round" stroke-width="2"/>
      <path id="Path_128" data-name="Path 128" d="M265,106.517c2.728-2.689,5.457-5.734,8.225-8.937" transform="translate(311.206 86.635)" fill="none" stroke="#f2f2f2" stroke-linecap="round" stroke-linejoin="round" stroke-width="2"/>
      <path id="Path_129" data-name="Path 129" d="M297.48,138.239A153.778,153.778,0,0,0,316.9,93.16" transform="translate(407.161 73.577)" fill="none" stroke="#f2f2f2" stroke-linecap="round" stroke-linejoin="round" stroke-width="2"/>
    </g>
  </g>
</svg>
