<svg xmlns="http://www.w3.org/2000/svg" xmlns:xlink="http://www.w3.org/1999/xlink" viewBox="0 0 266.3 336.25"><defs><style>.cls-1{fill:url(#linear-gradient);}.cls-2{fill:url(#linear-gradient-2);}.cls-3{fill:url(#linear-gradient-3);}.cls-4{fill:url(#linear-gradient-4);}.cls-5{fill:none;}.cls-6{fill:#dfdfdf;}.cls-7{fill:url(#linear-gradient-5);}.cls-8{fill:#030303;}.cls-9{fill:url(#linear-gradient-6);}.cls-10{fill:url(#linear-gradient-7);}.cls-11{fill:url(#linear-gradient-8);}.cls-12{fill:url(#linear-gradient-9);}</style><linearGradient id="linear-gradient" x1="256.77" y1="268.31" x2="266.3" y2="268.31" gradientUnits="userSpaceOnUse"><stop offset="0" stop-color="gray"/><stop offset="0.28" stop-color="#bababa"/><stop offset="0.37" stop-color="#cecece"/><stop offset="0.5" stop-color="#e9e9e9"/><stop offset="0.61" stop-color="#f9f9f9"/><stop offset="0.7" stop-color="#fff"/><stop offset="0.83" stop-color="#fcfcfc"/><stop offset="0.93" stop-color="#f2f2f2"/><stop offset="1" stop-color="#e5e5e5"/></linearGradient><linearGradient id="linear-gradient-2" x1="256.77" y1="173.3" x2="266.3" y2="173.3" xlink:href="#linear-gradient"/><linearGradient id="linear-gradient-3" x1="258.59" y1="75.3" x2="264.47" y2="75.3" xlink:href="#linear-gradient"/><linearGradient id="linear-gradient-4" x1="261.53" y1="80.67" x2="261.53" y2="80.29" gradientUnits="userSpaceOnUse"><stop offset="0" stop-color="gray"/><stop offset="0.03" stop-color="#898989"/><stop offset="0.12" stop-color="#9f9f9f"/><stop offset="0.22" stop-color="#aeaeae"/><stop offset="0.33" stop-color="#b7b7b7"/><stop offset="0.49" stop-color="#bababa"/><stop offset="0.67" stop-color="#b7b7b7"/><stop offset="0.8" stop-color="#aeaeae"/><stop offset="0.92" stop-color="#9e9e9e"/><stop offset="1" stop-color="#8d8d8d"/></linearGradient><linearGradient id="linear-gradient-5" x1="-2443.46" y1="2453.43" x2="-2170.79" y2="2726.1" gradientTransform="matrix(0, 1, 1, 0, -2461.38, 2475.25)" gradientUnits="userSpaceOnUse"><stop offset="0" stop-color="#f2f3f4"/><stop offset="0.36" stop-color="#edeeef"/><stop offset="0.78" stop-color="#dfe0e0"/><stop offset="1" stop-color="#d5d6d6"/></linearGradient><linearGradient id="linear-gradient-6" x1="-2475.12" y1="2589.78" x2="-2461.54" y2="2589.78" gradientTransform="matrix(0, 1, 1, 0, -2461.38, 2475.25)" gradientUnits="userSpaceOnUse"><stop offset="0" stop-color="#f1f1f1"/><stop offset="0.06" stop-color="#ddd"/><stop offset="0.15" stop-color="#c7c7c7"/><stop offset="0.25" stop-color="#b6b6b6"/><stop offset="0.37" stop-color="#aaa"/><stop offset="0.54" stop-color="#a3a3a3"/><stop offset="1" stop-color="#a1a1a1"/></linearGradient><linearGradient id="linear-gradient-7" x1="-2152.32" y1="2589.77" x2="-2139.13" y2="2589.77" gradientTransform="matrix(0, 1, 1, 0, -2461.38, 2475.25)" gradientUnits="userSpaceOnUse"><stop offset="0" stop-color="#a1a1a1"/><stop offset="0.46" stop-color="#a3a3a3"/><stop offset="0.63" stop-color="#aaa"/><stop offset="0.75" stop-color="#b6b6b6"/><stop offset="0.85" stop-color="#c7c7c7"/><stop offset="0.94" stop-color="#ddd"/><stop offset="1" stop-color="#f1f1f1"/></linearGradient><linearGradient id="linear-gradient-8" x1="-2473.8" y1="2468.64" x2="-2140.45" y2="2468.64" gradientTransform="matrix(0, 1, 1, 0, -2461.38, 2475.25)" gradientUnits="userSpaceOnUse"><stop offset="0" stop-color="#c9c9c9"/><stop offset="0.48" stop-color="#f1f1f1"/><stop offset="0.64" stop-color="#ececec"/><stop offset="0.82" stop-color="#dedede"/><stop offset="1" stop-color="#c9c9c9"/></linearGradient><linearGradient id="linear-gradient-9" x1="-2473.8" y1="2710.9" x2="-2140.45" y2="2710.9" xlink:href="#linear-gradient-8"/></defs><title>Ipad</title><g id="Layer_2" data-name="Layer 2"><g id="object"><path class="cls-1" d="M266.3,265.93a4.77,4.77,0,0,1-9.53,0Z"/><polygon class="cls-2" points="266.3 89.64 266.3 265.93 256.77 265.93 256.77 89.64 258.52 80.67 264.54 80.67 266.3 89.64"/><path class="cls-3" d="M264.47,80.29h-5.88l1.77-9a1.19,1.19,0,0,1,2.34,0Z"/><polygon class="cls-4" points="264.54 80.67 258.52 80.67 258.59 80.29 264.47 80.29 264.54 80.67"/><path class="cls-5" d="M13.31,336.08c.35,0,.71,0,1.06,0h228c.36,0,.72,0,1.07,0l.3,0a14.66,14.66,0,0,0,1.76-.28l.33-.08.25-.07a13.26,13.26,0,0,0,2.9-1.14l.3-.16.59-.34c.08-.06.18-.11.26-.18a1.67,1.67,0,0,0,.28-.18c.26-.17.51-.36.75-.55l.31-.25.47-.41a3.38,3.38,0,0,0,.27-.26,5,5,0,0,0,.46-.46l0,0a10.17,10.17,0,0,0,.86-1l0,0A13.77,13.77,0,0,0,254.7,329c.11-.19.22-.39.32-.59a.41.41,0,0,0,0-.09c.09-.17.17-.34.25-.51s.19-.41.27-.62.16-.42.24-.63L256,326v0c.07-.21.13-.43.18-.65s.11-.44.15-.66.08-.46.11-.69.06-.4.08-.6a.34.34,0,0,1,0-.1q0-.5.06-1V14q0-.51-.06-1a.38.38,0,0,1,0-.1c0-.2,0-.4-.08-.6s-.07-.46-.11-.69-.09-.45-.15-.67-.11-.43-.18-.64v0l-.21-.63c-.08-.21-.15-.43-.24-.64s-.17-.41-.27-.61-.16-.34-.25-.51a.41.41,0,0,0,0-.09c-.1-.2-.21-.4-.32-.59a13,13,0,0,0-1.11-1.63l0,0a11.63,11.63,0,0,0-.86-1h0a5,5,0,0,0-.46-.46,2.23,2.23,0,0,0-.27-.26l-.47-.41-.31-.25a8,8,0,0,0-.75-.55l-.28-.19-.26-.17-.59-.35-.3-.15A13.28,13.28,0,0,0,246.1.62l-.25-.06-.33-.08A14.66,14.66,0,0,0,243.76.2l-.3,0c-.35,0-.71,0-1.07,0h-228c-.35,0-.71,0-1.06,0L13,.2a14.17,14.17,0,0,0-1.73.28l-.33.08-.29.08A13.63,13.63,0,0,0,7.77,1.77l-.3.15c-.39.22-.78.46-1.15.72l-.26.18a5.32,5.32,0,0,0-.47.36,13.75,13.75,0,0,0-1.16,1l-.24.24-.12.13L4,4.68c-.12.12-.23.25-.34.38l-.32.37-.12.16a.39.39,0,0,0-.08.1l-.31.41s0,0,0,0-.23.34-.34.51l0,0c-.11.17-.21.35-.31.52s-.22.39-.33.59a.41.41,0,0,1-.05.09c-.08.17-.17.34-.24.51s-.19.41-.27.61S1,9.44.94,9.66a12.7,12.7,0,0,0-.54,2q-.08.34-.12.69c0,.2-.05.4-.07.6,0,0,0,.06,0,.1a3,3,0,0,0,0,.31l0,.38c0,.22,0,.44,0,.66V321.88c0,.23,0,.45,0,.67l0,.38c0,.1,0,.21,0,.31s0,.07,0,.1c0,.2,0,.4.07.6s.07.46.12.69a13.35,13.35,0,0,0,.54,2,5.87,5.87,0,0,0,.24.63c.08.21.17.42.27.62s.16.34.24.51a.41.41,0,0,1,.05.09c.11.2.21.4.33.59s.2.34.31.51l0,.06.34.51s0,0,0,0l.31.41a.39.39,0,0,0,.08.1l.12.15c.11.13.21.26.32.38s.22.26.34.38l.11.12.12.12a2.72,2.72,0,0,0,.24.24,13.88,13.88,0,0,0,1.16,1l.47.36.26.18c.37.26.76.49,1.15.71l.3.16a13.63,13.63,0,0,0,2.86,1.13l.29.08.33.08a16.4,16.4,0,0,0,1.73.27Zm1.06-1.28A12.93,12.93,0,0,1,1.45,321.88V14.37A12.94,12.94,0,0,1,14.37,1.45h228a12.93,12.93,0,0,1,12.92,12.92V321.88a12.93,12.93,0,0,1-12.92,12.92Z"/><path class="cls-6" d="M242.39,0h-228A14.39,14.39,0,0,0,0,14.37V321.88a14.38,14.38,0,0,0,14.37,14.37h228a14.39,14.39,0,0,0,14.38-14.37V14.37A14.39,14.39,0,0,0,242.39,0Zm14.24,322.25a.49.49,0,0,1,0,.12c0,.25,0,.5,0,.75a.13.13,0,0,0,0,.06v.06a.34.34,0,0,0,0,.1c0,.2,0,.4-.08.6s-.07.46-.11.69l-.15.66c-.06.22-.11.44-.18.65v0l-.21.63c-.08.22-.15.43-.24.63s-.17.42-.27.62-.16.34-.25.51a.41.41,0,0,1,0,.09c-.1.2-.21.4-.32.59a13.77,13.77,0,0,1-1.11,1.63l0,0c-.27.34-.56.68-.86,1l0,0a2.39,2.39,0,0,1-.22.23,2.61,2.61,0,0,1-.24.23,3.38,3.38,0,0,1-.27.26l-.47.41-.31.25c-.24.19-.49.37-.75.55l-.28.18-.26.18-.59.34-.3.16a13.78,13.78,0,0,1-2.9,1.14l-.25.07-.33.08a15,15,0,0,1-1.76.28l-.3,0c-.35,0-.71,0-1.07,0h-228c-.35,0-.71,0-1.06,0l-.33,0a16.4,16.4,0,0,1-1.73-.27l-.33-.08-.29-.08a13.63,13.63,0,0,1-2.86-1.13l-.3-.16c-.39-.22-.78-.45-1.15-.71l-.26-.18-.47-.36a13.88,13.88,0,0,1-1.16-1,2.72,2.72,0,0,1-.24-.24l-.12-.12L4,331.58c-.12-.12-.23-.25-.34-.38s-.21-.25-.32-.38l-.12-.15a.39.39,0,0,1-.08-.1l-.31-.41s0,0,0,0l-.34-.51,0-.06L2.07,329c-.12-.19-.22-.39-.33-.59a.41.41,0,0,0-.05-.09l-.24-.51c-.1-.2-.19-.41-.27-.62a5.87,5.87,0,0,1-.24-.63,13.35,13.35,0,0,1-.54-2l-.12-.69c0-.2-.05-.4-.07-.6,0,0,0-.07,0-.1v-.06a2.11,2.11,0,0,1,0-.25c0-.13,0-.26,0-.38s0-.44,0-.67V14.37c0-.22,0-.44,0-.66s0-.26,0-.38a2,2,0,0,1,0-.25V13s0-.07,0-.1c0-.2.05-.41.07-.6l.12-.69a12.7,12.7,0,0,1,.54-2c.07-.22.15-.43.24-.64s.17-.41.27-.61l.24-.51a.41.41,0,0,0,.05-.09c.11-.2.21-.4.33-.59l.31-.52,0,0c.11-.17.22-.35.34-.51s0,0,0,0l.31-.41a.39.39,0,0,1,.08-.1l.12-.16.32-.37c.11-.13.22-.26.34-.38l.11-.12.12-.13.24-.24a13.75,13.75,0,0,1,1.16-1,5.32,5.32,0,0,1,.47-.36l.26-.18c.37-.26.76-.5,1.15-.72l.3-.15A13.63,13.63,0,0,1,10.63.64l.29-.08.33-.08A14.17,14.17,0,0,1,13,.2l.33,0c.35,0,.71,0,1.06,0h228c.36,0,.72,0,1.07,0l.3,0a15,15,0,0,1,1.76.28l.33.08.25.06A13.28,13.28,0,0,1,249,1.77l.3.15.59.35.26.17.28.19a8,8,0,0,1,.75.55l.31.25.47.41a2.23,2.23,0,0,1,.27.26,5,5,0,0,1,.46.46h0c.3.32.59.66.86,1l0,0a13,13,0,0,1,1.11,1.63c.11.19.22.39.32.59a.41.41,0,0,1,0,.09c.09.17.17.34.25.51s.19.41.27.61.16.42.24.64l.21.63v0c.07.21.12.43.18.64l.15.67c0,.23.08.46.11.69s.06.4.08.6a.38.38,0,0,0,0,.1v.06a.38.38,0,0,0,0,.1c0,.23,0,.46,0,.71a.49.49,0,0,1,0,.12Z"/><rect class="cls-7" x="10.91" y="10.91" width="234.96" height="314.45" rx="3.47"/><path class="cls-8" d="M14.37,334.8h228a12.93,12.93,0,0,0,12.92-12.92V14.37A12.93,12.93,0,0,0,242.39,1.45h-228A12.94,12.94,0,0,0,1.45,14.37V321.88A12.93,12.93,0,0,0,14.37,334.8Zm0-9.23a3.69,3.69,0,0,1-3.68-3.69V14.37a3.68,3.68,0,0,1,3.68-3.68h228a3.69,3.69,0,0,1,3.69,3.68V321.88a3.69,3.69,0,0,1-3.69,3.69Z"/><path class="cls-9" d="M256.62,13.71l0-.46c0-.08,0-.16,0-.23a.38.38,0,0,1,0-.1c0-.2-.05-.41-.08-.6s-.07-.46-.11-.69l-.15-.67c-.06-.21-.11-.43-.18-.64v0l-.21-.63c-.08-.22-.15-.43-.24-.64s-.17-.41-.27-.61-.16-.34-.25-.51a.41.41,0,0,0,0-.09c-.1-.2-.21-.4-.32-.59a13,13,0,0,0-1.11-1.63l0,0c-.27-.34-.56-.68-.86-1h0a5,5,0,0,0-.46-.46,2.23,2.23,0,0,0-.27-.26l-.47-.41-.31-.25c-.24-.19-.49-.38-.75-.55l-.28-.19-.26-.17-.59-.35-.3-.15A13.28,13.28,0,0,0,246.1.62l-.25-.06-.33-.08A14.66,14.66,0,0,0,243.76.2l-.3,0c-.35,0-.71,0-1.07,0h-228c-.35,0-.71,0-1.06,0L13,.2a14.17,14.17,0,0,0-1.73.28l-.33.08-.29.08A13.63,13.63,0,0,0,7.77,1.77l-.3.15c-.39.22-.78.46-1.15.72l-.26.18a5.32,5.32,0,0,0-.47.36,13.75,13.75,0,0,0-1.16,1l-.24.24-.12.13L4,4.68c-.12.12-.23.25-.34.38l-.32.37-.12.16a.39.39,0,0,0-.08.1l-.31.41s0,0,0,0-.23.34-.34.51l0,0-.31.52c-.12.19-.22.39-.33.59a.41.41,0,0,1-.05.09l-.24.51c-.1.2-.19.41-.27.61S1,9.44.94,9.66a12.7,12.7,0,0,0-.54,2l-.12.69c0,.19-.05.4-.07.6,0,0,0,.06,0,.1a3,3,0,0,0,0,.31,2,2,0,0,1,0-.25c0-.21,0-.43.08-.63s0-.2,0-.3,0-.25.07-.37a5.07,5.07,0,0,1,.13-.56c0-.2.1-.39.16-.59s.1-.32.16-.48a8.48,8.48,0,0,1,.39-1l.13-.3L1.6,8.4s0,0,0,0l.28-.5v0c.08-.12.15-.24.22-.36l.19-.29.05-.07c.11-.16.22-.32.34-.47s.22-.3.34-.44l.08-.1c.11-.14.24-.28.37-.42s.28-.3.42-.45l.4-.38.11-.1.41-.35A6,6,0,0,1,5.33,4l.4-.28.21-.15.26-.16a2.26,2.26,0,0,1,.26-.16L7,3l.33-.16c.26-.13.52-.25.79-.36l.26-.11.4-.15L9.27,2a5.44,5.44,0,0,1,.54-.15s0,0,0,0l.6-.14h0l.45-.08a11.59,11.59,0,0,1,2.14-.19H243.71c.26,0,.52,0,.77,0a2.69,2.69,0,0,1,.4,0,2.09,2.09,0,0,1,.35,0h.16l.45.07h.06l.28.05.13,0h.05a2.59,2.59,0,0,1,.4.09l.18,0,.56.16c.18.06.37.11.54.18h0l.26.1h0l.29.12h0q.39.17.78.36l.32.16.52.3.26.16.26.16.21.15.4.28c.16.12.33.25.49.39s.24.2.36.31l.05,0,.11.1,0,0,.35.34.34.35,0,0a1.07,1.07,0,0,1,.14.16l.28.33.09.11c.12.14.24.29.35.44a3.43,3.43,0,0,1,.24.33l0,0,.18.26.29.46,0,0,.18.32.1.18.18.34c.07.15.15.31.22.47l.15.34c0,.05,0,.09,0,.13s.1.25.14.37l.09.24s0,0,0,.05.1.28.14.42.09.31.13.46a.13.13,0,0,1,0,.06l0,.16c0,.14.07.29.11.44v0c0,.12.05.24.07.37s0,.2.05.3.06.42.08.63S256.61,13.5,256.62,13.71Z"/><path class="cls-6" d="M256.63,14.37c0-.22,0-.44,0-.66C256.63,13.93,256.63,14.15,256.63,14.37Z"/><path class="cls-10" d="M14.37,336.12h228c.36,0,.72,0,1.07,0l.3,0a14.66,14.66,0,0,0,1.76-.28l.33-.08.25-.07a13.26,13.26,0,0,0,2.9-1.14l.3-.16.59-.34.26-.18.28-.18c.26-.18.51-.36.75-.55l.31-.25.47-.41a3.38,3.38,0,0,0,.27-.26c.16-.15.32-.3.46-.46l0,0c.3-.31.59-.65.86-1l0,0A13.77,13.77,0,0,0,254.7,329c.11-.19.22-.39.32-.59a.41.41,0,0,0,0-.09c.09-.17.17-.34.25-.51s.18-.41.27-.62.16-.41.24-.63L256,326v0c.07-.21.12-.43.18-.65l.15-.66c0-.23.08-.46.11-.69s.06-.4.08-.6a.34.34,0,0,1,0-.1c0-.08,0-.15,0-.23a1,1,0,0,0,0,.17c0,.21-.05.42-.08.63s0,.2-.05.3,0,.25-.07.37-.09.42-.15.63-.09.35-.14.51-.09.29-.14.43-.19.53-.29.78l-.15.35-.22.46-.18.35-.1.18-.2.34c-.09.16-.19.31-.29.46l-.18.27c-.08.13-.18.25-.27.37a4.82,4.82,0,0,1-.35.44l-.09.11-.28.33a1,1,0,0,1-.14.15,3.15,3.15,0,0,1-.36.37,4.68,4.68,0,0,1-.39.38l-.11.1-.41.36c-.16.14-.33.26-.49.38l-.4.29-.21.14-.26.17-.26.16c-.17.1-.34.2-.52.29l-.32.17-.78.36-.32.12-.33.13-.54.18-.56.15-.63.15-.47.08a12.41,12.41,0,0,1-2.13.18H13.05a12.53,12.53,0,0,1-2.14-.18l-.45-.08h0l-.6-.15h0l-.54-.15-.52-.17-.4-.15-.26-.11c-.27-.11-.53-.23-.79-.36L7,333.28,6.46,333a2.26,2.26,0,0,1-.26-.16l-.26-.17-.21-.14c-.14-.09-.27-.19-.4-.29a5.85,5.85,0,0,1-.49-.38l-.41-.36-.11-.1c-.14-.12-.27-.25-.4-.38s-.29-.29-.42-.44a5,5,0,0,1-.37-.43.36.36,0,0,1-.08-.09c-.12-.14-.23-.29-.34-.44l-.34-.47-.05-.07-.19-.3-.22-.35v0c-.1-.17-.19-.34-.28-.51l0,0c-.08-.15-.16-.3-.23-.45l-.13-.3a8.63,8.63,0,0,1-.39-1c-.06-.15-.11-.31-.16-.48s-.12-.39-.16-.58a5.66,5.66,0,0,1-.13-.56c0-.12-.05-.24-.07-.37s0-.2,0-.3-.06-.42-.08-.63a2.11,2.11,0,0,1,0-.25c0,.1,0,.21,0,.31s0,.07,0,.1c0,.2.05.4.07.6l.12.69a13.35,13.35,0,0,0,.54,2,5.87,5.87,0,0,0,.24.63c.08.21.17.42.27.62l.24.51a.41.41,0,0,1,.05.09c.11.2.21.4.33.59l.31.51,0,.06.34.51s0,0,0,0l.31.41a.39.39,0,0,0,.08.1l.12.15c.11.13.21.26.32.38s.22.26.34.38l.11.12.12.12a2.72,2.72,0,0,0,.24.24,13.88,13.88,0,0,0,1.16,1l.47.36.26.18c.37.26.76.49,1.15.71l.3.16a13.63,13.63,0,0,0,2.86,1.13l.29.08.33.08a16.4,16.4,0,0,0,1.73.27l.33,0C13.66,336.11,14,336.12,14.37,336.12Z"/><path class="cls-6" d="M256.63,321.88c0,.23,0,.45,0,.67C256.63,322.33,256.63,322.11,256.63,321.88Z"/><path class="cls-11" d="M13.05,334.8h1.32A12.93,12.93,0,0,1,1.45,321.88V14.37A12.94,12.94,0,0,1,14.37,1.45H13.05a11.59,11.59,0,0,0-2.14.19l-.45.08h0l-.6.14s0,0,0,0A5.44,5.44,0,0,0,9.27,2l-.52.17-.4.15-.26.11c-.27.11-.53.23-.79.36L7,3l-.51.3a2.26,2.26,0,0,0-.26.16l-.26.16-.21.15L5.33,4l-.49.39-.41.35-.11.1-.4.38c-.14.15-.29.3-.42.45l-.37.42-.08.1c-.12.14-.23.29-.34.44s-.23.31-.34.47l-.05.07-.19.29c-.07.12-.14.24-.22.36v0l-.28.5s0,0,0,0l-.23.46-.13.3a8.48,8.48,0,0,0-.39,1c-.06.16-.11.32-.16.48s-.12.39-.16.59a5.07,5.07,0,0,0-.13.56c0,.12-.05.24-.07.37s0,.2,0,.3-.06.42-.08.63a2,2,0,0,0,0,.25l0,.38c0,.22,0,.44,0,.66V321.88c0,.23,0,.45,0,.67l0,.38a2.11,2.11,0,0,0,0,.25c0,.21,0,.42.08.63s0,.2,0,.3,0,.25.07.37a5.66,5.66,0,0,0,.13.56c0,.19.1.39.16.58s.1.33.16.48a8.63,8.63,0,0,0,.39,1l.13.3c.07.15.15.3.23.45l0,0c.09.17.18.34.28.51v0l.22.35.19.3.05.07.34.47c.11.15.22.3.34.44a.36.36,0,0,0,.08.09c.12.15.24.29.37.43s.28.3.42.44.26.26.4.38l.11.1.41.36c.16.13.32.26.49.38s.26.2.4.29l.21.14.26.17a2.26,2.26,0,0,0,.26.16l.51.29.33.17c.26.13.52.25.79.36l.26.11.4.15.52.17.54.15h0l.6.15h0l.45.08A12.53,12.53,0,0,0,13.05,334.8Z"/><path class="cls-12" d="M242.39,334.8h1.32a12.41,12.41,0,0,0,2.13-.18l.47-.08.63-.15.56-.15.54-.18.33-.13.32-.12.78-.36.32-.17c.18-.09.35-.19.52-.29l.26-.16.26-.17.21-.14.4-.29.49-.38.41-.36.11-.1a4.68,4.68,0,0,0,.39-.38c.12-.11.24-.24.36-.37a1,1,0,0,0,.14-.15l.28-.33.09-.11c.12-.14.24-.29.35-.44l.27-.37.18-.27c.1-.15.2-.3.29-.46l.2-.34.1-.18.18-.35.22-.46.15-.35c.1-.25.2-.51.29-.78s.1-.28.14-.43.1-.34.14-.51.11-.42.15-.63.05-.24.07-.37,0-.2.05-.3.06-.42.08-.63a1,1,0,0,1,0-.17l0-.46c0-.1,0-.2,0-.3V14c0-.1,0-.2,0-.3l0-.46a1.11,1.11,0,0,1,0-.17c0-.21-.05-.43-.08-.63s0-.2-.05-.3,0-.25-.07-.37v0c0-.15-.07-.3-.11-.44l0-.16a.13.13,0,0,0,0-.06c0-.15-.08-.31-.13-.46s-.09-.28-.14-.42,0,0,0-.05l-.09-.24c0-.12-.09-.25-.14-.37s0-.08,0-.13l-.15-.34c-.07-.16-.15-.32-.22-.47l-.18-.34-.1-.18-.18-.32,0,0-.29-.46L254.33,7l0,0a4,4,0,0,0-.24-.33c-.11-.15-.23-.3-.35-.44l-.09-.11-.28-.33a1.07,1.07,0,0,0-.14-.16l0,0-.34-.35-.35-.34,0,0-.11-.1-.05,0-.36-.31L251.44,4l-.4-.28-.21-.15-.26-.16-.26-.16-.52-.3-.32-.16q-.39-.19-.78-.36h0l-.29-.12h0l-.26-.1h0c-.17-.07-.36-.12-.54-.18l-.56-.16-.18,0a2.59,2.59,0,0,0-.4-.09h-.05l-.13,0-.28-.05h-.06l-.45-.07h-.16l-.35,0a2.69,2.69,0,0,0-.4,0c-.25,0-.51,0-.77,0h-1.32a12.93,12.93,0,0,1,12.92,12.92V321.88A12.93,12.93,0,0,1,242.39,334.8Z"/></g></g></svg>