<svg xmlns="http://www.w3.org/2000/svg" xmlns:xlink="http://www.w3.org/1999/xlink" viewBox="0 0 100.91 205.09"><defs><style>.cls-1{mask:url(#mask);filter:url(#luminosity-noclip-3);}.cls-2,.cls-4{mix-blend-mode:multiply;}.cls-2{fill:url(#linear-gradient);}.cls-3{mask:url(#mask-2);filter:url(#luminosity-noclip-4);}.cls-4{fill:url(#linear-gradient-2);}.cls-5{fill:#c7c7c7;}.cls-6{fill:url(#linear-gradient-3);}.cls-7{fill:url(#linear-gradient-4);}.cls-8{fill:url(#linear-gradient-5);}.cls-9{fill:url(#linear-gradient-6);}.cls-10{fill:#404040;}.cls-11{fill:url(#linear-gradient-7);}.cls-12{fill:url(#linear-gradient-8);}.cls-13{fill:url(#linear-gradient-9);}.cls-14{fill:url(#linear-gradient-10);}.cls-15{fill:url(#linear-gradient-11);}.cls-16{fill:url(#linear-gradient-12);}.cls-17{fill:url(#linear-gradient-13);}.cls-18{mask:url(#mask-3);}.cls-19{fill:url(#linear-gradient-14);}.cls-20{mask:url(#mask-4);}.cls-21{opacity:0.2;fill:url(#linear-gradient-15);}.cls-22{filter:url(#luminosity-noclip-2);}.cls-23{filter:url(#luminosity-noclip);}</style><filter id="luminosity-noclip" x="5.07" y="-8038.13" width="92.37" height="32766" filterUnits="userSpaceOnUse" color-interpolation-filters="sRGB"><feFlood flood-color="#fff" result="bg"/><feBlend in="SourceGraphic" in2="bg"/></filter><mask id="mask" x="5.07" y="-8038.13" width="92.37" height="32766" maskUnits="userSpaceOnUse"><g class="cls-23"/></mask><linearGradient id="linear-gradient" x1="51.25" y1="195.73" x2="51.25" gradientUnits="userSpaceOnUse"><stop offset="0"/><stop offset="0.29" stop-color="#020202"/><stop offset="0.43" stop-color="#0a0a0a"/><stop offset="0.53" stop-color="#171717"/><stop offset="0.62" stop-color="#292929"/><stop offset="0.7" stop-color="#414141"/><stop offset="0.77" stop-color="#5e5e5e"/><stop offset="0.84" stop-color="#818181"/><stop offset="0.9" stop-color="#aaa"/><stop offset="0.96" stop-color="#d7d7d7"/><stop offset="1" stop-color="#fff"/></linearGradient><filter id="luminosity-noclip-2" x="0" y="-8038.13" width="100.91" height="32766" filterUnits="userSpaceOnUse" color-interpolation-filters="sRGB"><feFlood flood-color="#fff" result="bg"/><feBlend in="SourceGraphic" in2="bg"/></filter><mask id="mask-2" x="0" y="-8038.13" width="100.91" height="32766" maskUnits="userSpaceOnUse"><g class="cls-22"/></mask><linearGradient id="linear-gradient-2" x1="50.45" y1="205.09" x2="50.45" y2="2.99" gradientUnits="userSpaceOnUse"><stop offset="0.2"/><stop offset="0.5" stop-color="#020202"/><stop offset="0.6" stop-color="#090909"/><stop offset="0.68" stop-color="#141414"/><stop offset="0.74" stop-color="#252525"/><stop offset="0.8" stop-color="#3b3b3b"/><stop offset="0.84" stop-color="#575757"/><stop offset="0.89" stop-color="#777"/><stop offset="0.93" stop-color="#9d9d9d"/><stop offset="0.96" stop-color="#c8c8c8"/><stop offset="0.99" stop-color="#f6f6f6"/><stop offset="1" stop-color="#fff"/></linearGradient><linearGradient id="linear-gradient-3" x1="0.38" y1="104.01" x2="1.85" y2="104.01" gradientUnits="userSpaceOnUse"><stop offset="0" stop-color="#666"/><stop offset="0.06" stop-color="#727272"/><stop offset="0.33" stop-color="#a8a8a8"/><stop offset="0.57" stop-color="#d0d0d0"/><stop offset="0.76" stop-color="#e8e8e8"/><stop offset="0.87" stop-color="#f1f1f1"/><stop offset="0.95" stop-color="#f7f7f7"/><stop offset="1" stop-color="#fff"/></linearGradient><linearGradient id="linear-gradient-4" x1="98.54" y1="104.02" x2="99.99" y2="104.02" gradientUnits="userSpaceOnUse"><stop offset="0" stop-color="#fff"/><stop offset="0.05" stop-color="#f7f7f7"/><stop offset="0.13" stop-color="#f1f1f1"/><stop offset="0.24" stop-color="#e8e8e8"/><stop offset="0.43" stop-color="#d0d0d0"/><stop offset="0.67" stop-color="#a8a8a8"/><stop offset="0.94" stop-color="#727272"/><stop offset="1" stop-color="#666"/></linearGradient><linearGradient id="linear-gradient-5" x1="50.08" y1="204.71" x2="50.08" y2="193.09" gradientUnits="userSpaceOnUse"><stop offset="0" stop-color="#f1f1f1"/><stop offset="0.12" stop-color="#e3e3e3"/><stop offset="0.34" stop-color="#bfbfbf"/><stop offset="0.63" stop-color="#848484"/><stop offset="1" stop-color="#333"/></linearGradient><linearGradient id="linear-gradient-6" x1="50.08" y1="14.47" x2="50.08" y2="-0.04" gradientUnits="userSpaceOnUse"><stop offset="0" stop-color="#333"/><stop offset="0.07" stop-color="#4c4c4c"/><stop offset="0.25" stop-color="#828282"/><stop offset="0.42" stop-color="#afafaf"/><stop offset="0.59" stop-color="#d2d2d2"/><stop offset="0.74" stop-color="#ebebeb"/><stop offset="0.89" stop-color="#fafafa"/><stop offset="1" stop-color="#fff"/></linearGradient><linearGradient id="linear-gradient-7" x1="93.96" y1="104.09" x2="97.49" y2="104.09" gradientUnits="userSpaceOnUse"><stop offset="0" stop-color="#f1f1f1"/><stop offset="0" stop-color="#f0f0f0"/><stop offset="0.14" stop-color="#b7b7b7"/><stop offset="0.27" stop-color="#888"/><stop offset="0.4" stop-color="#636363"/><stop offset="0.51" stop-color="#494949"/><stop offset="0.62" stop-color="#393939"/><stop offset="0.7" stop-color="#333"/></linearGradient><linearGradient id="linear-gradient-8" x1="4.69" y1="197" x2="95.47" y2="197" gradientUnits="userSpaceOnUse"><stop offset="0"/><stop offset="0.1" stop-color="#141414"/><stop offset="0.26" stop-color="#2c2c2c"/><stop offset="0.4" stop-color="#3b3b3b"/><stop offset="0.52" stop-color="#404040"/><stop offset="0.63" stop-color="#393939"/><stop offset="0.79" stop-color="#242424"/><stop offset="0.99" stop-color="#020202"/><stop offset="1"/></linearGradient><linearGradient id="linear-gradient-9" x1="4.69" y1="11.19" x2="97.5" y2="11.19" xlink:href="#linear-gradient-8"/><linearGradient id="linear-gradient-10" x1="2.66" y1="104.03" x2="4.76" y2="104.03" gradientUnits="userSpaceOnUse"><stop offset="0" stop-color="#404040"/><stop offset="0.64" stop-color="#1a1a1a"/><stop offset="1" stop-color="#0a0a0a"/></linearGradient><linearGradient id="linear-gradient-11" x1="93.95" y1="104.1" x2="97.49" y2="104.1" gradientUnits="userSpaceOnUse"><stop offset="0" stop-color="#0a0a0a"/><stop offset="0.36" stop-color="#1a1a1a"/><stop offset="1" stop-color="#404040"/></linearGradient><linearGradient id="linear-gradient-12" x1="43.95" y1="10.71" x2="55.59" y2="10.71" gradientUnits="userSpaceOnUse"><stop offset="0" stop-color="#333"/><stop offset="0.09" stop-color="#2b2b2b"/><stop offset="0.29" stop-color="#1e1e1e"/><stop offset="0.48" stop-color="#1a1a1a"/><stop offset="0.79" stop-color="#1c1c1c"/><stop offset="0.9" stop-color="#232323"/><stop offset="0.98" stop-color="#2e2e2e"/><stop offset="1" stop-color="#333"/></linearGradient><linearGradient id="linear-gradient-13" x1="-17.02" y1="36.94" x2="117.17" y2="171.13" gradientUnits="userSpaceOnUse"><stop offset="0" stop-color="#f2f3f4"/><stop offset="0.36" stop-color="#edeeef"/><stop offset="0.78" stop-color="#dfe0e0"/><stop offset="1" stop-color="#d5d6d6"/></linearGradient><filter id="luminosity-noclip-3" x="5.07" y="0" width="92.37" height="195.73" filterUnits="userSpaceOnUse" color-interpolation-filters="sRGB"><feFlood flood-color="#fff" result="bg"/><feBlend in="SourceGraphic" in2="bg"/></filter><mask id="mask-3" x="5.07" y="0" width="92.37" height="195.73" maskUnits="userSpaceOnUse"><g class="cls-1"><path class="cls-2" d="M5.08,188.24a.06.06,0,0,0,0,0l0,0ZM7,191.47H7l.08.1A1.09,1.09,0,0,0,7,191.47Zm4.68,3.45.14,0s0,0,0,0Zm78.88.81h.14ZM97.09.06,97,0l.13.12A.17.17,0,0,0,97.09.06Zm.16,192.57a.52.52,0,0,1,.1-.11l.08-.08C97.37,192.5,97.31,192.58,97.25,192.63Z"/></g></mask><linearGradient id="linear-gradient-14" x1="51.25" y1="195.73" x2="51.25" gradientUnits="userSpaceOnUse"><stop offset="0" stop-color="#fff"/><stop offset="0.85" stop-color="#fff"/><stop offset="1" stop-color="#fff"/></linearGradient><filter id="luminosity-noclip-4" x="0" y="2.99" width="100.91" height="202.1" filterUnits="userSpaceOnUse" color-interpolation-filters="sRGB"><feFlood flood-color="#fff" result="bg"/><feBlend in="SourceGraphic" in2="bg"/></filter><mask id="mask-4" x="0" y="2.99" width="100.91" height="202.1" maskUnits="userSpaceOnUse"><g class="cls-3"><path class="cls-4" d="M100.77,49.77a.37.37,0,0,0-.62.28V16.62A13.63,13.63,0,0,0,86.52,3H81.43L0,84.42v107a13.63,13.63,0,0,0,13.63,13.63H86.52a13.63,13.63,0,0,0,13.63-13.63V72.5a.38.38,0,0,0,.38.38.33.33,0,0,0,.24-.1.35.35,0,0,0,.14-.28V50.05A.35.35,0,0,0,100.77,49.77Z"/></g></mask><linearGradient id="linear-gradient-15" x1="50.45" y1="205.09" x2="50.45" y2="2.99" gradientUnits="userSpaceOnUse"><stop offset="0.2" stop-color="#fff"/><stop offset="0.89" stop-color="#fff"/><stop offset="1" stop-color="#fff"/></linearGradient></defs><title>Mobile</title><g id="Layer_2" data-name="Layer 2"><g id="object"><path class="cls-5" d="M86.53,3H13.63A13.63,13.63,0,0,0,0,16.62V191.46a13.63,13.63,0,0,0,13.63,13.63h72.9a13.62,13.62,0,0,0,13.62-13.63V16.62A13.62,13.62,0,0,0,86.53,3ZM99.77,190.2a13.38,13.38,0,0,1-.64,4.07c0,.1-.06.19-.1.29s-.07.19-.11.29a2,2,0,0,1-.08.22c-.08.21-.18.43-.27.64l-.13.27-.2.39-.13.25a2.26,2.26,0,0,1-.16.26q-.21.38-.45.72l-.15.22-.18.25-.18.24-.19.24-.2.24-.41.45q-.31.34-.66.66l-.21.19-.48.41-.22.17c-.24.19-.49.37-.74.54l-.26.16c-.17.11-.34.22-.52.32l-.26.15c-.29.15-.58.3-.88.43l-.23.1a1.78,1.78,0,0,1-.29.12l-.28.11c-.22.09-.44.16-.66.23l-.23.07c-.29.09-.58.16-.88.23l-.32.06a1.75,1.75,0,0,1-.33.06l-.62.1h-.25l.55-.08.28,0,.27-.05a8,8,0,0,0,.81-.2l.26-.07.52-.18c.26-.09.51-.19.76-.3l.25-.11.24-.12.48-.25c.16-.09.31-.17.46-.27l.42-.26,0,0,.65-.47.21-.17c.2-.16.39-.33.58-.5a10.39,10.39,0,0,0,1.27-1.38l.17-.21a11.61,11.61,0,0,0,1.41-2.41l.18-.42a12.43,12.43,0,0,0,.61-2.13c0-.14.06-.29.08-.43a12.19,12.19,0,0,0,.14-1.82V16.62A12,12,0,0,0,87.79,4.7l-.32,0-.33,0H13a12,12,0,0,0-11.36,12V191.46a12,12,0,0,0,10.63,11.91l-.24,0h0l-.62-.1a13,13,0,0,1-3.55-1.13L7.63,202l-.58-.32a2.26,2.26,0,0,1-.26-.16,12.16,12.16,0,0,1-1.26-.86l-.21-.17c-.22-.17-.42-.35-.62-.53l-.2-.19-.22-.21-.21-.22-.14-.15L3.75,199a13.65,13.65,0,0,1-.94-1.19c-.06-.07-.11-.15-.16-.22-.16-.23-.31-.47-.45-.71l-.15-.27a12.35,12.35,0,0,1-.93-2.06c0-.1-.07-.19-.1-.29a13,13,0,0,1-.39-1.52l-.06-.31a13.82,13.82,0,0,1-.19-2.24V16.62c0-.14,0-.27,0-.39s0-.2,0-.3,0-.42,0-.63l0-.32,0-.17a.76.76,0,0,1,0-.21c0-.11,0-.22,0-.33s.07-.37.11-.56.05-.18.07-.27c.07-.28.14-.55.23-.82,0-.08.05-.16.08-.25s.07-.21.11-.31a2.6,2.6,0,0,1,.1-.25,1.8,1.8,0,0,1,.08-.21c0-.08.07-.16.1-.25l.09-.18.12-.27c.08-.16.15-.31.24-.47l.13-.23.15-.27A13.87,13.87,0,0,1,3.45,8.15c.06-.08.13-.15.2-.23a2.85,2.85,0,0,1,.23-.26l.4-.42c.15-.14.3-.29.45-.42l.47-.41a2.51,2.51,0,0,1,.24-.19l.49-.38.51-.34L7,5.17,7.24,5l.27-.15.28-.14.29-.14.57-.25.28-.11s0,0,0,0l.29-.1L9.52,4l.32-.1.3-.08.31-.08.31-.08.63-.12.32-.05.69-.08.55,0h74.2l.64,0h0l.32,0,.32,0,.32.05.31.06h0l.31.06.28.07h.06l.27.07.37.11.24.08.55.19.37.14.26.11.29.13.28.14a11.72,11.72,0,0,1,1.89,1.14l.22.16c.26.19.52.4.76.61l.32.29A11.86,11.86,0,0,1,96.74,8.2l.2.24.38.51c.06.09.13.18.18.27a4.4,4.4,0,0,1,.3.45c0,.08.1.16.14.24s.18.3.26.45l.11.22c.14.26.26.52.37.78l.09.21c.11.26.21.53.3.8,0,.1.07.2.1.3a15.06,15.06,0,0,1,.43,1.79l0,.2c0,.1,0,.21,0,.32l0,.32c0,.11,0,.22,0,.33s0,.4,0,.6,0,.26,0,.39Z"/><path class="cls-6" d="M12.36,203.38l-.32,0h0l-.62-.1a13,13,0,0,1-3.55-1.13L7.63,202l-.58-.32a2.26,2.26,0,0,1-.26-.16,12.16,12.16,0,0,1-1.26-.86l-.21-.17c-.22-.17-.42-.35-.62-.53l-.2-.19-.22-.21-.21-.22-.14-.15L3.75,199a13.65,13.65,0,0,1-.94-1.19c-.06-.07-.11-.15-.16-.22-.16-.23-.31-.47-.45-.71l-.15-.27a12.35,12.35,0,0,1-.93-2.06c0-.1-.07-.19-.1-.29a13,13,0,0,1-.39-1.52l-.06-.31a13.82,13.82,0,0,1-.19-2.24V17.88A13.27,13.27,0,0,1,13,4.65a12,12,0,0,0-11.36,12V191.46A12,12,0,0,0,12.36,203.38Z"/><path class="cls-7" d="M99.77,17.88V190.2a13.38,13.38,0,0,1-.64,4.07c0,.1-.06.19-.1.29s-.07.19-.11.29a2,2,0,0,1-.08.22c-.08.21-.18.43-.27.64l-.13.27-.2.39-.13.25a2.26,2.26,0,0,1-.16.26q-.21.38-.45.72l-.15.22-.18.25-.18.24-.19.24-.2.24-.41.45q-.31.34-.66.66l-.21.19-.48.41-.22.17c-.24.19-.49.37-.74.54l-.26.16c-.17.11-.34.22-.52.32l-.26.15c-.29.15-.58.3-.88.43l-.23.1a1.78,1.78,0,0,1-.29.12l-.28.11c-.22.09-.44.16-.66.23l-.23.07c-.29.09-.58.16-.88.23l-.32.06a1.75,1.75,0,0,1-.33.06l-.62.1h0l-.32,0a12,12,0,0,0,10.72-11.92V16.62a12,12,0,0,0-11-12A13.26,13.26,0,0,1,99.77,17.88Z"/><path class="cls-8" d="M99.77,190.2v1.26a13.26,13.26,0,0,1-13.24,13.25H13.63A13.27,13.27,0,0,1,.38,191.46V190.2a13.82,13.82,0,0,0,.19,2.24l.06.31A13,13,0,0,0,1,194.27c0,.1.07.19.1.29a12.35,12.35,0,0,0,.93,2.06l.15.27c.14.24.29.48.45.71.05.07.1.15.16.22A13.65,13.65,0,0,0,3.75,199l.18.19.14.15.21.22.22.21.2.19c.2.18.4.36.62.53l.21.17a12.16,12.16,0,0,0,1.26.86,2.26,2.26,0,0,0,.26.16l.58.32.23.11a13,13,0,0,0,3.55,1.13l.62.1h0l.64.06.33,0H87.14l.33,0,.52,0h.13l.62-.1a1.75,1.75,0,0,0,.33-.06l.32-.06c.3-.07.59-.14.88-.23l.23-.07c.22-.07.44-.14.66-.23l.28-.11a1.78,1.78,0,0,0,.29-.12l.23-.1c.3-.13.59-.28.88-.43l.26-.15c.18-.1.35-.21.52-.32l.26-.16c.25-.17.5-.35.74-.54l.22-.17.48-.41.21-.19q.34-.32.66-.66l.41-.45.2-.24.19-.24.18-.24.18-.25.15-.22q.24-.34.45-.72a2.26,2.26,0,0,0,.16-.26l.13-.25.2-.39.13-.27c.09-.21.19-.43.27-.64a2,2,0,0,0,.08-.22c0-.1.08-.19.11-.29s.07-.19.1-.29A13.38,13.38,0,0,0,99.77,190.2Z"/><path class="cls-9" d="M99.77,16.62v1.26a13.26,13.26,0,0,0-12-13.18l-.32,0-.33,0H13A13.27,13.27,0,0,0,.38,17.88V16.62c0-.14,0-.27,0-.39s0-.2,0-.3,0-.42,0-.63l0-.32,0-.17a.76.76,0,0,1,0-.21c0-.11,0-.22,0-.33s.07-.37.11-.56.05-.18.07-.27c.07-.28.14-.55.23-.82,0-.08.05-.16.08-.25s.07-.21.11-.31a2.6,2.6,0,0,1,.1-.25,1.8,1.8,0,0,1,.08-.21c0-.08.07-.16.1-.25l.09-.18.12-.27c.08-.16.15-.31.24-.47l.13-.23.15-.27A13.87,13.87,0,0,1,3.45,8.15c.06-.08.13-.15.2-.23a2.85,2.85,0,0,1,.23-.26l.4-.42c.15-.14.3-.29.45-.42l.47-.41a2.51,2.51,0,0,1,.24-.19l.49-.38.51-.34L7,5.17,7.24,5l.27-.15.28-.14.29-.14.57-.25.28-.11s0,0,0,0l.29-.1L9.52,4l.32-.1.3-.08.31-.08.31-.08.63-.12.32-.05.69-.08.55,0h74.2l.64,0h0l.32,0,.32,0,.32.05.31.06h0l.31.06.28.07h.06l.27.07.37.11.24.08.55.19.37.14.26.11.29.13.28.14a11.72,11.72,0,0,1,1.89,1.14l.22.16c.26.19.52.4.76.61l.32.29A11.86,11.86,0,0,1,96.74,8.2l.2.24.38.51c.06.09.13.18.18.27a4.4,4.4,0,0,1,.3.45c0,.08.1.16.14.24s.18.3.26.45l.11.22c.14.26.26.52.37.78l.09.21c.11.26.21.53.3.8,0,.1.07.2.1.3a15.06,15.06,0,0,1,.43,1.79l0,.2c0,.1,0,.21,0,.32l0,.32c0,.11,0,.22,0,.33s0,.4,0,.6S99.77,16.49,99.77,16.62Z"/><path class="cls-10" d="M87.14,4.65H13a12,12,0,0,0-11.36,12V191.46a12,12,0,0,0,11,11.95l.33,0H87.14l.33,0a12,12,0,0,0,11-11.95V16.62A12,12,0,0,0,87.14,4.65ZM97.49,191.46A11,11,0,0,1,87.4,202.4h-.31l-.56,0H13.63l-.57,0h-.3a11,11,0,0,1-10.1-10.94V16.62A11,11,0,0,1,13,5.66H87.11a11,11,0,0,1,10.38,11Z"/><path class="cls-11" d="M97.49,16.69V191.53a10.77,10.77,0,0,1-.46,3.13,11.08,11.08,0,0,1-1,2.26c-.09.15-.17.3-.26.44s-.28.42-.43.62A11.14,11.14,0,0,1,94,199.56a11.35,11.35,0,0,0,1.51-5.67v-2c0-.12,0-.24,0-.36V16.67c0-.13,0-.25,0-.37v-2A11.48,11.48,0,0,0,94,8.62,10.93,10.93,0,0,1,97.49,16.69Z"/><path d="M87.05,6.67h-74a10,10,0,0,0-9.39,10V191.46a10,10,0,0,0,9.17,9.93h.27l.52,0h72.9l.51,0h.28a10,10,0,0,0,9.16-9.93V16.62A10,10,0,0,0,87.05,6.67Zm6.78,184.79a7.29,7.29,0,0,1-1.52,4.44l-.15.19c-.16.2-.34.38-.51.56a5.35,5.35,0,0,1-.5.45h0a6.38,6.38,0,0,1-.67.49,6,6,0,0,1-.73.42h0c-.12.07-.25.12-.38.18h0c-.13.05-.26.11-.4.15a5.54,5.54,0,0,1-.82.24,7,7,0,0,1-1,.16h-74a7.33,7.33,0,0,1-6.72-7.28V16.62a7.3,7.3,0,0,1,6.81-7.29H87l.21,0h.1l.19,0,.22,0h0l.33.06.06,0a2,2,0,0,1,.26.06l.39.11.3.1.32.13c.21.09.41.19.61.3a4.6,4.6,0,0,1,.53.31l.12.08.21.15a2.47,2.47,0,0,1,.27.21l.5.44.23.24.23.25a7.5,7.5,0,0,1,.77,1.1c.12.2.22.4.32.61s.17.41.25.63.07.21.1.32a6,6,0,0,1,.18.73,2.93,2.93,0,0,1,0,.29,7.59,7.59,0,0,1,.08,1.07Z"/><path d="M25.82,12.68a1,1,0,0,1-.07-.15s0,0,0,0Z"/><path d="M74.42,12.48s0,0,0,0a1,1,0,0,1-.07.15A1.76,1.76,0,0,0,74.42,12.48Z"/><path d="M76,9.31a1.22,1.22,0,0,0-1.14,1.1c0,.05,0,.1,0,.16a4.78,4.78,0,0,1-.07.65,1.7,1.7,0,0,1,0,.22h0l-.06.27-.06.23a.14.14,0,0,0,0,.06s0,0,0,.05,0,0,0,0l0,.08a.36.36,0,0,1,0,.09,1.8,1.8,0,0,1-.08.21,1.76,1.76,0,0,1-.09.2,0,0,0,0,1,0,0h0l-.09.17-.07.15,0,0s0,.05,0,.08l-.06.1v0l0,0,0,.06,0,.08,0,.06,0,0,0,.07,0,.05-.06.07v0h0l-.06.08,0,0-.07.09h0l-.09.1-.09.1h0l0,.06-.07.07-.06.07-.12.11-.1.09,0,.05-.15.12-.13.11-.09.06-.1.08h0l-.1.07,0,0-.17.1a.57.57,0,0,1-.13.08,1,1,0,0,1-.17.1l-.06,0h0l-.13.06-.11.06-.1.05-.06,0,0,0h0l-.26.1-.25.09-.28.08-.57.11-.24,0h-.25l-.24,0H31l-.23,0h-.26l-.24,0-.57-.11-.27-.08-.25-.09-.27-.1h0l-.05,0,0,0-.11-.05-.11-.06-.12-.06h0l-.06,0a1,1,0,0,1-.17-.1L28,15.2l-.17-.1,0,0-.1-.07h0l-.1-.08-.08-.06-.14-.11-.14-.12-.06-.05-.09-.09a.65.65,0,0,1-.12-.11l-.07-.07-.06-.07-.06-.06h0l0-.06L26.63,14h0l-.06-.09,0,0-.06-.08h0v0a.18.18,0,0,1-.05-.07.1.1,0,0,1,0-.05l-.05-.07,0,0,0-.06a.35.35,0,0,1-.05-.08l0-.06,0,0s0,0,0,0l-.06-.1s0-.05,0-.08a.08.08,0,0,1,0,0,1.09,1.09,0,0,1-.08-.15.89.89,0,0,1-.08-.17h0a0,0,0,0,1,0,0l-.09-.2a1.8,1.8,0,0,1-.08-.21l0-.09,0-.08s0,0,0,0,0,0,0-.05v-.06c0-.08-.05-.16-.07-.23l-.06-.27h0a1.7,1.7,0,0,1,0-.22,4.78,4.78,0,0,1-.07-.65v-.16a1.23,1.23,0,0,0-1.15-1.1Z"/><path d="M30.72,16.06l.23,0h-.23Z"/><path d="M69.64,16.05H69.2l.24,0Z"/><path d="M25.65,12.27h0l0-.08Z"/><path d="M25.82,12.68a1,1,0,0,1-.07-.15s0,0,0,0Z"/><path d="M26.53,13.85l-.07-.09h0Z"/><path d="M26.76,14.12l-.09-.1-.05,0h0Z"/><path d="M26.87,14.24l-.06-.06h0Z"/><path d="M27.55,14.86l-.14-.11a.27.27,0,0,1-.08-.07s0,0-.06,0l.14.12Z"/><path d="M27.63,14.92l.1.08,0,0Z"/><path d="M28,15.2l-.1-.06h0l-.06,0Z"/><path d="M29.13,15.73l-.23-.08,0,0Z"/><path d="M29.38,15.82l.27.08-.18-.05-.09,0-.13,0-.12,0Z"/><path d="M30.22,16l.24,0-.21,0h-.13l-.19,0-.24-.05h0Z"/><path d="M30.72,16.06h0Z"/><path d="M69.12,16.08h0Z"/><path d="M69.44,16.06h0Z"/><path d="M69.93,16l.57-.11h0l-.24.05L70,16h-.12l-.22,0Z"/><path d="M71,15.73l-.13,0-.12,0-.09,0-.19.05.28-.08Z"/><path d="M71,15.73l.26-.1,0,0Z"/><path d="M72.11,15.2l.17-.1-.06,0h0Z"/><path d="M72.52,14.92l-.07.06,0,0Z"/><path d="M72.89,14.63a.18.18,0,0,1-.07,0,.27.27,0,0,1-.08.07l-.13.11.13-.11Z"/><path d="M73.35,14.18l-.06.06,0-.06Z"/><path d="M73.53,14l0,0,0,.05.09-.1Z"/><path d="M73.69,13.76l-.07.09.06-.08Z"/><path d="M74.42,12.48s0,0,0,0a1,1,0,0,1-.07.15A1.76,1.76,0,0,0,74.42,12.48Z"/><path d="M74.54,12.18l0,.08h0A.36.36,0,0,0,74.54,12.18Z"/><path class="cls-12" d="M95.47,191.88v2A11.35,11.35,0,0,1,94,199.56a10.85,10.85,0,0,1-6.55,2.89l-.31,0h-74l-.3,0-.42,0a10.86,10.86,0,0,1-6.13-2.85,11.31,11.31,0,0,1-1.52-5.69v-2.35a9,9,0,0,0,8.23,8.91H87.25A9,9,0,0,0,95.47,191.88Z"/><path class="cls-13" d="M97.49,16.69v0a11,11,0,0,0-10.39-11H13c-.24,0-.47,0-.7.06A10.86,10.86,0,0,0,6.2,8.6a11.48,11.48,0,0,0-1.51,5.71v2.36A8.94,8.94,0,0,1,13.1,7.74H87a8.94,8.94,0,0,1,8.46,8.56v-2A11.48,11.48,0,0,0,94,8.62,10.93,10.93,0,0,1,97.49,16.69Z"/><path class="cls-14" d="M6.2,199.51a11,11,0,0,1-3.54-8V16.62A10.93,10.93,0,0,1,6.19,8.55a11.45,11.45,0,0,0-1.51,5.71V193.82A11.46,11.46,0,0,0,6.2,199.51Z"/><path class="cls-15" d="M97.49,16.69V191.53a10.77,10.77,0,0,1-.46,3.13,11.08,11.08,0,0,1-1,2.26c-.09.15-.17.3-.26.44s-.28.42-.43.62a10.83,10.83,0,0,1-1.42,1.6v0a11.35,11.35,0,0,0,1.51-5.67V14.33A11.48,11.48,0,0,0,94,8.62,10.93,10.93,0,0,1,97.49,16.69Z"/><rect class="cls-16" x="43.95" y="10.1" width="11.63" height="1.22" rx="0.33"/><path class="cls-17" d="M93.83,16.62V191.46a7.29,7.29,0,0,1-1.52,4.44l-.15.19c-.17.2-.34.38-.51.56a5.35,5.35,0,0,1-.5.45h0a6.38,6.38,0,0,1-.67.49,6,6,0,0,1-.73.42h0l-.38.18h0l-.4.15a5.54,5.54,0,0,1-.82.24,7,7,0,0,1-1,.16h-74a7.33,7.33,0,0,1-6.72-7.28V16.62a7.3,7.3,0,0,1,6.81-7.29h11a1.23,1.23,0,0,1,1.15,1.1v.16a4.78,4.78,0,0,0,.07.65,1.7,1.7,0,0,0,0,.22h0l.06.27c0,.07,0,.15.07.23V12s0,0,0,.05,0,0,0,0l0,.08,0,.08h0a1.8,1.8,0,0,0,.08.21l.09.2a0,0,0,0,0,0,0h0a.89.89,0,0,0,.08.17A1.09,1.09,0,0,0,26,13a.08.08,0,0,0,0,0s0,.05,0,.08l.06.1s0,0,0,0l0,0,0,.06a.35.35,0,0,0,.05.08l0,.06,0,0,.05.07a.1.1,0,0,0,0,.05.18.18,0,0,0,.05.07v0h0l.06.08,0,0,.06.09h0a.1.1,0,0,0,0,0l.09.1,0,.06h0l.06.06.06.07.07.07a.65.65,0,0,0,.12.11l.09.09.06.05s0,0,.06,0a.27.27,0,0,0,.08.07h0l.14.11.08.06.07.06,0,0h0l.1.07,0,0,.06,0h0l.1.06.13.08a1,1,0,0,0,.17.1l.06,0h0l.12.06.11.06.11.05,0,0,.05,0,0,0,.23.08.12,0,.13,0h0l.09,0,.18.05h0l.24.05.19,0h.13l.21,0H69.69l.22,0H70l.19,0,.24-.05h0l.19-.05.09,0h0l.12,0,.13,0,.22-.08,0,0,0,0,.06,0,.1-.05.11-.06.13-.06h0l.06,0a1,1,0,0,0,.17-.1.57.57,0,0,0,.13-.08l.1-.06h0l.06,0,0,0,.1-.07h0l0,0,.07-.06.09-.06.13-.11h0a.27.27,0,0,0,.08-.07.18.18,0,0,0,.07,0l0-.05.1-.09.12-.11.06-.07.07-.07,0-.06h0l.09-.1,0-.05,0,0h0l.07-.09,0,0,.06-.08h0v0l.06-.07,0-.05,0-.07,0,0,0-.06,0-.08,0-.06,0,0v0l.06-.1s0-.05,0-.08l0,0,.07-.15.09-.17h0a0,0,0,0,0,0,0,1.76,1.76,0,0,0,.09-.2,1.8,1.8,0,0,0,.08-.21h0l0-.08,0-.08s0,0,0,0,0,0,0-.05a.14.14,0,0,1,0-.06l.06-.23.06-.27h0a1.7,1.7,0,0,0,0-.22,4.78,4.78,0,0,0,.07-.65v0s0-.08,0-.12A1.22,1.22,0,0,1,76,9.31H87l.19,0h.1l.19,0,.22,0h0l.33.06.06,0,.26.06.39.11.3.1.32.13c.21.09.41.19.61.3s.36.2.53.31l.12.08.21.15.27.21.5.44.23.24.23.25a8.07,8.07,0,0,1,.77,1.1c.12.2.22.4.32.61s.17.41.25.63.07.21.1.32a6,6,0,0,1,.18.73c0,.1,0,.19,0,.29A7.59,7.59,0,0,1,93.83,16.62Z"/><g class="cls-18"><path class="cls-19" d="M5.08,188.24a.06.06,0,0,0,0,0l0,0ZM7,191.47H7l.08.1A1.09,1.09,0,0,0,7,191.47Zm4.68,3.45.14,0s0,0,0,0Zm78.88.81h.14ZM97.09.06,97,0l.13.12A.17.17,0,0,0,97.09.06Zm.16,192.57a.52.52,0,0,1,.1-.11l.08-.08C97.37,192.5,97.31,192.58,97.25,192.63Z"/></g><g class="cls-20"><path class="cls-21" d="M100.77,49.77a.37.37,0,0,0-.62.28V16.62A13.63,13.63,0,0,0,86.52,3H81.43L0,84.42v107a13.63,13.63,0,0,0,13.63,13.63H86.52a13.63,13.63,0,0,0,13.63-13.63V72.5a.38.38,0,0,0,.38.38.33.33,0,0,0,.24-.1.35.35,0,0,0,.14-.28V50.05A.35.35,0,0,0,100.77,49.77Z"/></g></g></g></svg>