<svg xmlns="http://www.w3.org/2000/svg" xmlns:xlink="http://www.w3.org/1999/xlink" viewBox="0 0 676.71 561.58"><defs><style>.cls-1{mask:url(#mask);filter:url(#luminosity-noclip-4);}.cls-15,.cls-2,.cls-4,.cls-6{mix-blend-mode:multiply;}.cls-2{fill:url(#linear-gradient);}.cls-3{mask:url(#mask-2);filter:url(#luminosity-noclip-5);}.cls-4{fill:url(#linear-gradient-2);}.cls-5{mask:url(#mask-3);filter:url(#luminosity-noclip-6);}.cls-6{fill:url(#linear-gradient-3);}.cls-7{isolation:isolate;}.cls-8{fill:url(#linear-gradient-4);}.cls-9{fill:url(#linear-gradient-5);}.cls-10{mask:url(#mask-4);}.cls-11{opacity:0.7;fill:url(#linear-gradient-6);}.cls-12{fill:#333;}.cls-13{fill:url(#linear-gradient-7);}.cls-14{mask:url(#mask-5);}.cls-15{fill:url(#linear-gradient-8);}.cls-16{fill:#777;}.cls-17{fill:url(#linear-gradient-9);}.cls-18{mask:url(#mask-6);}.cls-19{opacity:0.2;fill:url(#linear-gradient-10);}.cls-20{filter:url(#luminosity-noclip-3);}.cls-21{filter:url(#luminosity-noclip-2);}.cls-22{filter:url(#luminosity-noclip);}</style><filter id="luminosity-noclip" x="236.36" y="-8428.49" width="203.98" height="32766" filterUnits="userSpaceOnUse" color-interpolation-filters="sRGB"><feFlood flood-color="#fff" result="bg"/><feBlend in="SourceGraphic" in2="bg"/></filter><mask id="mask" x="236.36" y="-8428.49" width="203.98" height="32766" maskUnits="userSpaceOnUse"><g class="cls-22"/></mask><linearGradient id="linear-gradient" x1="338.35" y1="561.58" x2="338.35" y2="555.45" gradientUnits="userSpaceOnUse"><stop offset="0" stop-color="#fff"/><stop offset="0.01" stop-color="#f6f6f6"/><stop offset="0.05" stop-color="#c8c8c8"/><stop offset="0.09" stop-color="#9d9d9d"/><stop offset="0.14" stop-color="#777"/><stop offset="0.2" stop-color="#575757"/><stop offset="0.25" stop-color="#3b3b3b"/><stop offset="0.32" stop-color="#252525"/><stop offset="0.4" stop-color="#141414"/><stop offset="0.49" stop-color="#090909"/><stop offset="0.63" stop-color="#020202"/><stop offset="1"/></linearGradient><filter id="luminosity-noclip-2" x="4.11" y="-8428.49" width="668.48" height="32766" filterUnits="userSpaceOnUse" color-interpolation-filters="sRGB"><feFlood flood-color="#fff" result="bg"/><feBlend in="SourceGraphic" in2="bg"/></filter><mask id="mask-2" x="4.11" y="-8428.49" width="668.48" height="32766" maskUnits="userSpaceOnUse"><g class="cls-21"/></mask><linearGradient id="linear-gradient-2" x1="338.35" y1="467.03" x2="338.35" y2="461.51" gradientUnits="userSpaceOnUse"><stop offset="0" stop-color="#1a1a1a"/><stop offset="0.55" stop-color="#0e0e0e"/><stop offset="1"/></linearGradient><filter id="luminosity-noclip-3" x="134.31" y="-8428.49" width="542.4" height="32766" filterUnits="userSpaceOnUse" color-interpolation-filters="sRGB"><feFlood flood-color="#fff" result="bg"/><feBlend in="SourceGraphic" in2="bg"/></filter><mask id="mask-3" x="134.31" y="-8428.49" width="542.4" height="32766" maskUnits="userSpaceOnUse"><g class="cls-20"/></mask><linearGradient id="linear-gradient-3" x1="405.51" y1="404.6" x2="405.51" gradientUnits="userSpaceOnUse"><stop offset="0.2"/><stop offset="0.5" stop-color="#020202"/><stop offset="0.6" stop-color="#090909"/><stop offset="0.68" stop-color="#141414"/><stop offset="0.74" stop-color="#252525"/><stop offset="0.8" stop-color="#3b3b3b"/><stop offset="0.84" stop-color="#575757"/><stop offset="0.89" stop-color="#777"/><stop offset="0.93" stop-color="#9d9d9d"/><stop offset="0.96" stop-color="#c8c8c8"/><stop offset="0.99" stop-color="#f6f6f6"/><stop offset="1" stop-color="#fff"/></linearGradient><linearGradient id="linear-gradient-4" x1="236.36" y1="558.51" x2="440.34" y2="558.51" gradientUnits="userSpaceOnUse"><stop offset="0" stop-color="#343434"/><stop offset="0.08" stop-color="#3e3e3e"/><stop offset="0.16" stop-color="#4f4f4f"/><stop offset="0.27" stop-color="#696969"/><stop offset="0.39" stop-color="gray"/><stop offset="0.65" stop-color="#7c7e7f"/><stop offset="0.75" stop-color="#6b6c6d"/><stop offset="0.96" stop-color="#3e3e3e"/><stop offset="1" stop-color="#343434"/></linearGradient><linearGradient id="linear-gradient-5" x1="338.35" y1="559.03" x2="338.35" y2="461.44" gradientUnits="userSpaceOnUse"><stop offset="0" stop-color="#535353"/><stop offset="0.16" stop-color="#585858"/><stop offset="0.18" stop-color="#4e4e4e"/><stop offset="0.24" stop-color="#373737"/><stop offset="0.28" stop-color="#414141"/><stop offset="0.34" stop-color="#5c5c5c"/><stop offset="0.39" stop-color="#777"/><stop offset="0.65" stop-color="#696a6c"/><stop offset="0.76" stop-color="#58595a"/><stop offset="0.99" stop-color="#2b2b2b"/><stop offset="1" stop-color="#2a2a2a"/></linearGradient><filter id="luminosity-noclip-4" x="236.36" y="555.45" width="203.98" height="6.12" filterUnits="userSpaceOnUse" color-interpolation-filters="sRGB"><feFlood flood-color="#fff" result="bg"/><feBlend in="SourceGraphic" in2="bg"/></filter><mask id="mask-4" x="236.36" y="555.45" width="203.98" height="6.12" maskUnits="userSpaceOnUse"><g class="cls-1"><path class="cls-2" d="M237.57,555.45h-1.21v2.68a3.53,3.53,0,0,0,3.56,3.45H436.78a3.51,3.51,0,0,0,3.56-3.45v-2.68Z"/></g></mask><linearGradient id="linear-gradient-6" x1="338.35" y1="561.58" x2="338.35" y2="555.45" gradientUnits="userSpaceOnUse"><stop offset="0" stop-color="#343434"/><stop offset="0.04" stop-color="#393939"/><stop offset="0.19" stop-color="#444"/><stop offset="0.41" stop-color="#4b4b4b"/><stop offset="1" stop-color="#4d4d4d"/></linearGradient><linearGradient id="linear-gradient-7" y1="435.82" x2="676.7" y2="435.82" gradientUnits="userSpaceOnUse"><stop offset="0" stop-color="#4b4b4d"/><stop offset="1" stop-color="#707070"/></linearGradient><filter id="luminosity-noclip-5" x="4.11" y="461.51" width="668.48" height="5.51" filterUnits="userSpaceOnUse" color-interpolation-filters="sRGB"><feFlood flood-color="#fff" result="bg"/><feBlend in="SourceGraphic" in2="bg"/></filter><mask id="mask-5" x="4.11" y="461.51" width="668.48" height="5.51" maskUnits="userSpaceOnUse"><g class="cls-3"><path class="cls-4" d="M672.59,461.51A16.28,16.28,0,0,1,660.35,467h-644a16.3,16.3,0,0,1-12.25-5.52Z"/></g></mask><linearGradient id="linear-gradient-8" x1="338.35" y1="467.03" x2="338.35" y2="461.51" gradientUnits="userSpaceOnUse"><stop offset="0"/><stop offset="0.09" stop-color="#0c0c0c"/><stop offset="0.25" stop-color="#2d2d2d"/><stop offset="0.47" stop-color="#636363"/><stop offset="0.73" stop-color="#adadad"/><stop offset="1" stop-color="#fff"/></linearGradient><linearGradient id="linear-gradient-9" x1="89.76" y1="-31.12" x2="586.95" y2="466.07" gradientUnits="userSpaceOnUse"><stop offset="0" stop-color="#f2f3f4"/><stop offset="0.36" stop-color="#edeeef"/><stop offset="0.78" stop-color="#dfe0e0"/><stop offset="1" stop-color="#d5d6d6"/></linearGradient><filter id="luminosity-noclip-6" x="134.31" y="0" width="542.4" height="404.6" filterUnits="userSpaceOnUse" color-interpolation-filters="sRGB"><feFlood flood-color="#fff" result="bg"/><feBlend in="SourceGraphic" in2="bg"/></filter><mask id="mask-6" x="134.31" y="0" width="542.4" height="404.6" maskUnits="userSpaceOnUse"><g class="cls-5"><path class="cls-6" d="M676.71,16.36V404.6H134.31L538.91,0H660.35A16.37,16.37,0,0,1,676.71,16.36Z"/></g></mask><linearGradient id="linear-gradient-10" x1="405.51" y1="404.6" x2="405.51" gradientUnits="userSpaceOnUse"><stop offset="0.2" stop-color="#fff"/><stop offset="0.89" stop-color="#fff"/><stop offset="1" stop-color="#fff"/></linearGradient></defs><title>laptop</title><g class="cls-7"><g id="Layer_2" data-name="Layer 2"><g id="Layer_4" data-name="Layer 4"><path class="cls-8" d="M237.57,555.45h-1.21v2.68a3.53,3.53,0,0,0,3.56,3.45H436.78a3.51,3.51,0,0,0,3.56-3.45v-2.68Z"/><path class="cls-9" d="M436.78,559H239.92a3.5,3.5,0,0,1-2-6.37l19.75-13.85a15.43,15.43,0,0,0,6.53-11.15l6.45-66.22H406.1l6.45,66.22a15.44,15.44,0,0,0,6.54,11.15l19.75,13.85A3.5,3.5,0,0,1,436.78,559Z"/><g class="cls-10"><path class="cls-11" d="M237.57,555.45h-1.21v2.68a3.53,3.53,0,0,0,3.56,3.45H436.78a3.51,3.51,0,0,0,3.56-3.45v-2.68Z"/></g><rect class="cls-12" width="676.7" height="466.44" rx="16.36"/><path d="M676.71,16.94V450.67A16.37,16.37,0,0,1,660.35,467h-644A16.36,16.36,0,0,1,0,450.67V16.94A16.36,16.36,0,0,1,16.36.58h644A16.37,16.37,0,0,1,676.71,16.94Z"/><path class="cls-13" d="M676.7,404.6v46.08A16.37,16.37,0,0,1,660.35,467h-644A16.37,16.37,0,0,1,0,450.68V404.6Z"/><g class="cls-14"><path class="cls-15" d="M672.59,461.51A16.28,16.28,0,0,1,660.35,467h-644a16.3,16.3,0,0,1-12.25-5.52Z"/></g><path class="cls-12" d="M649.05,28.5H27.66a1.21,1.21,0,0,0-1.21,1.22V404.6h1.84V30.35H648.42V404.6h1.83V29.72A1.21,1.21,0,0,0,649.05,28.5Z"/><rect class="cls-16" y="404.6" width="676.71" height="2.03"/><rect class="cls-17" x="28.29" y="30.35" width="620.13" height="374.25"/><g class="cls-18"><path class="cls-19" d="M676.71,16.36V404.6H134.31L538.91,0H660.35A16.37,16.37,0,0,1,676.71,16.36Z"/></g></g></g></g></svg>