<svg id="facebook" xmlns="http://www.w3.org/2000/svg" width="40.031" height="40.031" viewBox="0 0 40.031 40.031">
  <path id="Subtraction_1" data-name="Subtraction 1" d="M-6954.768-2438.762a19.886,19.886,0,0,1-14.154-5.862,19.887,19.887,0,0,1-5.862-14.154,19.884,19.884,0,0,1,5.862-14.152,19.884,19.884,0,0,1,14.154-5.863,19.882,19.882,0,0,1,14.152,5.863,19.882,19.882,0,0,1,5.862,14.152,19.886,19.886,0,0,1-5.862,14.154A19.882,19.882,0,0,1-6954.768-2438.762Zm-2.562-19.923v10.053h3.835v-10h3.141l.716-3.732h-3.685v-1.238a1.186,1.186,0,0,1,1.248-1.2h2.372l.207-3.825-3.161-.191.129.2c-3.113.11-4.666,1.474-4.749,4.173l.007,1.871h-2.561v3.89Z" transform="translate(6974.784 2478.793)" fill="#fff"/>
</svg>
