<svg xmlns="http://www.w3.org/2000/svg" width="41.649" height="41.649" viewBox="0 0 41.649 41.649">
  <g id="instagram-sketched" transform="translate(0)">
    <path id="Path_6" data-name="Path 6" d="M214.972,210.986A3.986,3.986,0,1,1,210.986,207,3.986,3.986,0,0,1,214.972,210.986Zm0,0" transform="translate(-190.161 -190.162)" fill="#fff"/>
    <path id="Path_7" data-name="Path 7" d="M154.61,138.239a3.96,3.96,0,0,0-2.269-2.269,6.617,6.617,0,0,0-2.22-.411c-1.261-.057-1.639-.07-4.832-.07s-3.571.012-4.832.07a6.621,6.621,0,0,0-2.22.412,3.962,3.962,0,0,0-2.27,2.269,6.618,6.618,0,0,0-.411,2.22c-.058,1.261-.07,1.639-.07,4.832s.012,3.571.07,4.832a6.615,6.615,0,0,0,.411,2.22,3.96,3.96,0,0,0,2.269,2.269,6.608,6.608,0,0,0,2.22.412c1.261.058,1.639.07,4.832.07s3.572-.012,4.832-.07a6.608,6.608,0,0,0,2.22-.412,3.96,3.96,0,0,0,2.269-2.269,6.621,6.621,0,0,0,.412-2.22c.058-1.261.07-1.639.07-4.832s-.012-3.571-.07-4.832A6.607,6.607,0,0,0,154.61,138.239Zm-9.322,13.193a6.14,6.14,0,1,1,6.14-6.14A6.14,6.14,0,0,1,145.288,151.432Zm6.383-11.088a1.435,1.435,0,1,1,1.435-1.435A1.435,1.435,0,0,1,151.671,140.344Zm0,0" transform="translate(-124.463 -124.467)" fill="#fff"/>
    <path id="Path_8" data-name="Path 8" d="M20.824,0A20.824,20.824,0,1,0,41.649,20.824,20.827,20.827,0,0,0,20.824,0ZM32.71,25.754a8.773,8.773,0,0,1-.556,2.9,6.114,6.114,0,0,1-3.5,3.5,8.779,8.779,0,0,1-2.9.556c-1.275.058-1.683.072-4.93.072s-3.655-.014-4.93-.072a8.779,8.779,0,0,1-2.9-.556,6.114,6.114,0,0,1-3.5-3.5,8.771,8.771,0,0,1-.556-2.9c-.059-1.275-.072-1.683-.072-4.93s.014-3.655.072-4.93a8.774,8.774,0,0,1,.555-2.9,6.118,6.118,0,0,1,3.5-3.5,8.781,8.781,0,0,1,2.9-.556c1.275-.058,1.683-.072,4.93-.072s3.655.014,4.93.072a8.783,8.783,0,0,1,2.9.555,6.116,6.116,0,0,1,3.5,3.5,8.772,8.772,0,0,1,.556,2.9c.058,1.275.072,1.683.072,4.93S32.768,24.479,32.71,25.754Zm0,0" transform="translate(0 0)" fill="#fff"/>
  </g>
</svg>
