<svg xmlns="http://www.w3.org/2000/svg" width="41.65" height="41.65" viewBox="0 0 41.65 41.65">
  <g id="whats_icon" data-name="whats icon" transform="translate(-224 -3570.513)">
    <circle id="Ellipse_13" data-name="Ellipse 13" cx="20.825" cy="20.825" r="20.825" transform="translate(224 3570.513)" fill="#fff"/>
    <path id="Icon_awesome-whatsapp" data-name="Icon awesome-whatsapp" d="M19.905,5.652a11.605,11.605,0,0,0-18.259,14L0,25.662l6.151-1.615A11.566,11.566,0,0,0,11.7,25.458H11.7a11.713,11.713,0,0,0,11.711-11.6,11.647,11.647,0,0,0-3.507-8.2ZM11.7,23.5A9.625,9.625,0,0,1,6.788,22.16l-.35-.209-3.648.956.972-3.559-.23-.366a9.661,9.661,0,1,1,17.919-5.127A9.75,9.75,0,0,1,11.7,23.5Zm5.289-7.222c-.287-.146-1.714-.847-1.981-.941s-.46-.146-.653.146-.747.941-.92,1.139-.34.219-.627.073A7.891,7.891,0,0,1,8.863,13.25c-.3-.512.3-.476.852-1.583a.537.537,0,0,0-.026-.507c-.073-.146-.653-1.573-.894-2.153-.235-.564-.476-.486-.653-.5s-.361-.01-.554-.01a1.074,1.074,0,0,0-.773.361A3.257,3.257,0,0,0,5.8,11.28a5.679,5.679,0,0,0,1.181,3,12.954,12.954,0,0,0,4.954,4.379c1.839.794,2.561.862,3.48.726a2.969,2.969,0,0,0,1.954-1.38,2.424,2.424,0,0,0,.167-1.38C17.47,16.5,17.277,16.422,16.989,16.281Z" transform="translate(233.119 3577.558)" fill="#d3c3be"/>
  </g>
</svg>
