<svg xmlns="http://www.w3.org/2000/svg" width="96.269" height="62.681" viewBox="0 0 96.269 62.681">
  <g id="logo" transform="translate(-12.083 -24.08)">
    <g id="aldr_tech" data-name="aldr tech" transform="translate(12.083 24.08)">
      <path id="Path_42" data-name="Path 42" d="M167.487,167.211h-2.405v8.124H163.2v-8.124h-2.39V165.59h6.677Z" transform="translate(-94.472 -112.817)" fill="#f3f5f9"/>
      <path id="Path_43" data-name="Path 43" d="M181.28,175.332h-5.4V165.68h5.2v1.554h-3.339v2.339h3.149v1.518h-3.149v2.687h3.544Z" transform="translate(-101.813 -112.861)" fill="#f3f5f9"/>
      <path id="Path_44" data-name="Path 44" d="M196.785,175.077a4.9,4.9,0,0,1-2.082.354,4.164,4.164,0,0,1-3.262-1.308,4.908,4.908,0,0,1-1.139-3.411A4.969,4.969,0,0,1,191.672,167a4.431,4.431,0,0,1,3.246-1.246,4.155,4.155,0,0,1,1.954.359l-.359,1.462a3.77,3.77,0,0,0-1.508-.3,2.564,2.564,0,0,0-1.985.821,4.3,4.3,0,0,0-.062,4.964,2.564,2.564,0,0,0,2.051.836,3.912,3.912,0,0,0,1.539-.262Z" transform="translate(-108.835 -112.893)" fill="#f3f5f9"/>
      <path id="Path_45" data-name="Path 45" d="M212.486,175.378h-1.872V171.2h-3.3v4.175H205.45v-9.7h1.862v3.872h3.3V165.68h1.872Z" transform="translate(-116.218 -112.861)" fill="#f3f5f9"/>
      <path id="Path_46" data-name="Path 46" d="M172.356,94.474A30.585,30.585,0,0,0,166.2,76.463c-4.128-5.2-7.565-7.816-13.124-10.016l-1.718-.677.149,61.1h2.508L153.878,69.5c4.134,1.887,7,4.272,10.37,8.513a28.1,28.1,0,0,1,5.564,15.206l-12.144.082,7.472,10.662a2.893,2.893,0,0,0-.246,1.18,3.1,3.1,0,1,0,3.1-3.01,3.159,3.159,0,0,0-.975.154l-4.564-6.508,9.893-.067ZM168,103.393a1.759,1.759,0,1,1-1.851,1.754A1.805,1.805,0,0,1,168,103.393" transform="translate(-89.868 -64.19)" fill="#f3f5f9"/>
      <path id="Path_47" data-name="Path 47" d="M130,119.54a3.108,3.108,0,1,0,3.1-3.01,3.108,3.108,0,0,0-3.1,3.01m3.1-1.754a1.759,1.759,0,1,1-1.851,1.754,1.805,1.805,0,0,1,1.851-1.754" transform="translate(-79.461 -88.918)" fill="#f3f5f9"/>
      <path id="Path_48" data-name="Path 48" d="M81.186,113.032a26.2,26.2,0,0,0,19.488,10.2v-.169a3.077,3.077,0,0,0,2.949,2.051,3.01,3.01,0,1,0,0-6.016,3.118,3.118,0,0,0-2.805,1.728v-.118c-15.586-.995-23.74-14.509-23.74-27.345a27.792,27.792,0,0,1,8.334-19.95,28.956,28.956,0,0,1,20.981-8.206l.036-2.508a31.464,31.464,0,0,0-22.776,8.924A30.258,30.258,0,0,0,74.57,93.358a32.479,32.479,0,0,0,6.575,19.647m22.468,7.339a1.759,1.759,0,1,1-1.851,1.759,1.81,1.81,0,0,1,1.851-1.759" transform="translate(-52.46 -62.69)" fill="#f3f5f9"/>
      <path id="Path_49" data-name="Path 49" d="M61,126.533c-.262-.231-.513-.472-.841-.718a38.756,38.756,0,0,1-3.18-58.265l-1.754-1.79h-.256c-6.344.513-12.18,4.067-17.345,10.57-3.667,4.616-6.154,12.088-6.154,18.591h0a53.259,53.259,0,0,0,6.949,26.735,2.933,2.933,0,0,0-.651,1.836,3.108,3.108,0,1,0,3.1-3.01h-.231a51.537,51.537,0,0,1-6.667-24.566h8.816a40.592,40.592,0,0,0,14.7,30.915h3.887l-.385-.333m-20.1-4.713a1.759,1.759,0,1,1-1.851,1.754,1.805,1.805,0,0,1,1.851-1.754m-6.847-28.34c.344-5.544,2.518-11.739,5.534-15.529,3.949-4.97,8.272-8.042,12.878-9.18a40.413,40.413,0,0,0-9.637,24.714Z" transform="translate(-31.458 -64.185)" fill="#f3f5f9"/>
      <path id="Path_50" data-name="Path 50" d="M116.752,120.911h-.215a13.616,13.616,0,0,1-1.38-.185l-.149-.026a14.96,14.96,0,0,1-.431-29.31h.067a26.84,26.84,0,0,1,4.164-.431H119V88.54h-1.246a17.452,17.452,0,1,0,.041,34.9h1.246v-2.328h-.185c-.667-.051-1.374-.118-2.092-.195" transform="translate(-65.004 -75.283)" fill="#f3f5f9"/>
      <path id="Path_51" data-name="Path 51" d="M126.295,120.931l-1.1-.1-.564-.031-.205-.036h-.113a7.452,7.452,0,0,1-.215-14.6h.077a13.849,13.849,0,0,1,2.077-.205h.569V103.74h-1.149a9.744,9.744,0,1,0,0,19.488h1.149v-2.169Z" transform="translate(-72.608 -82.687)" fill="#f3f5f9"/>
    </g>
  </g>
</svg>
